<svg width="200" height="200" viewBox="0 0 200 200" fill="none" xmlns="http://www.w3.org/2000/svg">
<path d="M73.8975 144.166L89.2778 148.268V142.904L90.534 141.643H99.3223V152.368H89.9052L78.2916 147.321L73.9004 144.166H73.8975Z" fill="#CDBDB2"/>
<path d="M124.118 144.166L109.052 148.268V142.904L107.796 141.643H99.0078V152.368H108.425L120.037 147.321L124.118 144.166Z" fill="#CDBDB2"/>
<path d="M90.5339 132.493L89.2778 142.904L90.8469 141.643H107.169L109.052 142.904L107.796 132.493L105.286 130.916L92.7303 131.231L90.5339 132.493Z" fill="#393939"/>
<path d="M82.0586 62.1426L89.5923 79.8092L93.0448 131.231H105.286L109.052 79.8092L115.957 62.1426H82.0586Z" fill="#F89C35"/>
<path d="M49.1028 100.947L40.3145 126.501L62.2854 125.239H76.4096V114.197L75.7809 91.4824L72.6428 94.0073L49.1028 100.947Z" fill="#F89D35"/>
<path d="M65.7378 103.785L91.4756 104.417L88.6504 117.667L76.4096 114.512L65.7378 103.785Z" fill="#D87C30"/>
<path d="M65.7378 104.102L76.4096 114.197V124.292L65.7378 104.102Z" fill="#EA8D3A"/>
<path d="M76.4097 114.512L88.9634 117.667L93.0447 131.232L90.2195 132.81L76.4097 124.607V114.512Z" fill="#F89D35"/>
<path d="M76.4097 124.607L73.8975 144.167L90.534 132.494L76.4097 124.607Z" fill="#EB8F35"/>
<path d="M91.4755 104.416L93.0445 131.231L88.3359 117.508L91.4755 104.416Z" fill="#EA8E3A"/>
<path d="M61.9707 124.924L76.4094 124.607L73.8971 144.167L61.9707 124.924Z" fill="#D87C30"/>
<path d="M47.2194 152.686L73.8989 144.167L61.971 124.924L40.3145 126.501L47.2194 152.686Z" fill="#EB8F35"/>
<path d="M89.5922 79.8105L76.0952 91.1673L65.7378 103.786L91.4756 104.732L89.5922 79.8105Z" fill="#E8821E"/>
<path d="M73.8975 144.167L90.534 132.494L89.2778 142.591V148.269L77.9787 146.061L73.8989 144.167H73.8975ZM124.118 144.167L107.796 132.494L109.052 142.591V148.269L120.35 146.061L124.12 144.167H124.118Z" fill="#DFCEC3"/>
<path d="M84.5691 110.096L88.0216 117.352L75.7822 114.197L84.5691 110.096Z" fill="#393939"/>
<path d="M46.9048 47.3145L89.592 79.8093L82.3727 62.1427L46.9048 47.3145Z" fill="#E88F35"/>
<path d="M46.9052 47.3145L41.2549 64.6661L44.3944 83.5944L42.1966 84.8561L45.3361 87.696L42.8239 89.9044L46.2764 93.0593L44.08 94.9511L49.103 101.261L72.643 94.006C72.643 94.006 89.9053 80.1244 89.5924 79.8093C89.278 79.4913 46.9052 47.3145 46.9052 47.3145Z" fill="#8E5A30"/>
<path d="M148.913 100.947L157.703 126.501L135.73 125.239H121.606V114.197L122.235 91.4824L125.373 94.0073L148.913 100.947Z" fill="#F89D35"/>
<path d="M132.278 103.785L106.54 104.417L109.365 117.667L121.606 114.512L132.278 103.785Z" fill="#D87C30"/>
<path d="M132.278 104.102L121.606 114.197V124.292L132.278 104.102Z" fill="#EA8D3A"/>
<path d="M121.606 114.512L109.052 117.667L104.971 131.232L107.796 132.81L121.606 124.607V114.512Z" fill="#F89D35"/>
<path d="M121.606 124.607L124.118 144.167L107.796 132.811L121.606 124.607Z" fill="#EB8F35"/>
<path d="M106.54 104.416L104.971 131.231L109.68 117.508L106.54 104.416Z" fill="#EA8E3A"/>
<path d="M136.045 124.924L121.606 124.607L124.118 144.167L136.045 124.924Z" fill="#D87C30"/>
<path d="M150.796 152.686L124.117 144.167L136.045 124.924L157.703 126.501L150.798 152.686H150.796Z" fill="#EB8F35"/>
<path d="M108.423 79.8105L121.92 91.1673L132.278 103.786L106.54 104.732L108.423 79.8105Z" fill="#E8821E"/>
<path d="M113.445 110.096L109.993 117.352L122.235 114.197L113.445 110.096Z" fill="#393939"/>
<path d="M151.111 47.3145L108.423 79.8093L115.643 62.1427L151.111 47.3145Z" fill="#E88F35"/>
<path d="M151.111 47.3145L156.761 64.6661L153.622 83.5944L155.819 84.8561L152.68 87.696L155.192 89.9044L151.74 93.0593L153.936 94.9511L148.914 101.261L125.372 94.0075C125.372 94.0075 108.109 80.1259 108.422 79.8108C108.738 79.4913 151.111 47.3145 151.111 47.3145Z" fill="#8E5A30"/>
</svg>
