<svg width="200" height="200" viewBox="0 0 200 200" fill="none" xmlns="http://www.w3.org/2000/svg">
<path d="M84.6577 99.7141L99.8212 84.5541L114.981 99.7141L99.8212 114.888L84.6611 99.7141H84.6577ZM132.914 99.7141L148.074 84.5541L163.234 99.7141L148.074 114.874L132.914 99.7141ZM36.4048 99.7141L51.5649 84.5541L66.7249 99.7141L51.5649 114.874L36.4048 99.7141ZM60.3472 75.7855L99.7489 36.3906L114.909 51.5507L75.5073 90.9456L60.3472 75.7855Z" fill="#F5B638"/>
<path d="M124.132 90.9456L84.7367 51.5507L99.8968 36.3906L139.292 75.7821L124.132 90.9421V90.9456ZM75.5107 108.696L114.906 148.091L99.7455 163.251L60.3506 123.856L75.5107 108.696Z" fill="#F5B638"/>
<path d="M139.309 123.857L99.914 163.252L84.7539 148.092L124.149 108.697L139.309 123.857Z" fill="#F5B638"/>
</svg>
