<svg width="200" height="200" viewBox="0 0 200 200" fill="none" xmlns="http://www.w3.org/2000/svg">
    <circle cx="99.5" cy="99.5" r="60.5" fill="white"/>
    <path d="M64.2228 96.583C64.2229 95.9056 64.3568 95.2348 64.6169 94.6093C64.877 93.9837 65.258 93.4157 65.7382 92.9378C66.2184 92.4599 66.7883 92.0816 67.4151 91.8246C68.0419 91.5676 68.7133 91.4369 69.3908 91.44L77.9588 91.468C79.3249 91.468 80.6351 92.0107 81.6011 92.9767C82.5671 93.9427 83.1098 95.2529 83.1098 96.619V129.019C84.0748 128.733 85.3098 128.428 86.6688 128.108C87.6103 127.887 88.4494 127.353 89.05 126.595C89.6506 125.837 89.9776 124.898 89.9778 123.931V83.744C89.9778 82.3778 90.5204 81.0675 91.4864 80.1014C92.4524 79.1352 93.7626 78.5923 95.1288 78.592H103.723C105.089 78.5923 106.399 79.1352 107.365 80.1014C108.331 81.0675 108.874 82.3778 108.874 83.744V121.044C108.874 121.044 111.024 120.174 113.117 119.29C113.895 118.961 114.558 118.41 115.025 117.707C115.492 117.003 115.741 116.177 115.742 115.333V70.866C115.742 69.5001 116.284 68.1901 117.25 67.2241C118.216 66.2581 119.526 65.7153 120.892 65.715H129.477C130.842 65.7164 132.151 66.2596 133.116 67.2255C134.081 68.1914 134.623 69.5008 134.623 70.866V107.483C142.066 102.089 149.609 95.601 155.595 87.8C156.463 86.6677 157.038 85.338 157.268 83.9295C157.497 82.521 157.375 81.0776 156.911 79.728C154.14 71.7562 149.735 64.4505 143.979 58.2786C138.222 52.1067 131.241 47.2044 123.481 43.8854C115.722 40.5665 107.354 38.904 98.9153 39.0043C90.4762 39.1046 82.1509 40.9655 74.4723 44.468C66.7936 47.9704 59.9307 53.0373 54.3226 59.3443C48.7146 65.6513 44.4849 73.0596 41.9042 81.0951C39.3236 89.1305 38.4488 97.6163 39.3359 106.009C40.2229 114.402 42.8523 122.518 47.0558 129.836C47.7881 131.099 48.8655 132.126 50.1615 132.797C51.4574 133.469 52.918 133.756 54.3718 133.626C55.9958 133.483 58.0178 133.281 60.4218 132.999C61.468 132.88 62.434 132.38 63.1356 131.595C63.8373 130.81 64.2257 129.794 64.2268 128.741V96.583" fill="#132A47"/>
    <path d="M64.0391 148.543C73.0883 155.126 83.7823 159.078 94.9379 159.96C106.093 160.843 117.276 158.622 127.248 153.544C137.22 148.466 145.592 140.728 151.439 131.187C157.286 121.645 160.38 110.673 160.378 99.4821C160.378 98.0821 160.313 96.7041 160.22 95.3301C138.057 128.385 97.1351 143.838 64.0391 148.543Z" fill="#C0D0DB"/>
</svg>
