<svg width="119" height="106" viewBox="0 0 119 106" fill="none" xmlns="http://www.w3.org/2000/svg">
    <path d="M33.8975 97.166L49.2778 101.268V95.9043L50.534 94.6426H59.3223V105.368H49.9052L38.2916 100.321L33.9004 97.166H33.8975Z" fill="#CDBDB2"/>
    <path d="M84.1183 97.166L69.0523 101.268V95.9043L67.7962 94.6426H59.0078V105.368H68.425L80.037 100.321L84.1183 97.166Z" fill="#CDBDB2"/>
    <path d="M50.5335 85.4928L49.2773 95.9043L50.8464 94.6426H67.1685L69.0519 95.9043L67.7958 85.4928L65.2851 83.916L52.7298 84.2311L50.5335 85.4928Z" fill="#393939"/>
    <path d="M42.0586 15.1426L49.5923 32.8092L53.0448 84.231H65.2856L69.0525 32.8092L75.9574 15.1426H42.0586Z" fill="#F89C35"/>
    <path d="M9.10282 53.9473L0.314453 79.5007L22.2854 78.239H36.4096V67.1973L35.7809 44.4824L32.6428 47.0073L9.10282 53.9473Z" fill="#F89D35"/>
    <path d="M25.7373 56.7852L51.4751 57.4167L48.6499 70.6667L36.4091 67.5118L25.7373 56.7852Z" fill="#D87C30"/>
    <path d="M25.7373 57.1016L36.4091 67.1966V77.2916L25.7373 57.1016Z" fill="#EA8D3A"/>
    <path d="M36.4092 67.5117L48.9629 70.6667L53.0442 84.2317L50.2191 85.81L36.4092 77.6067V67.5117Z" fill="#F89D35"/>
    <path d="M36.4097 77.6074L33.8975 97.1674L50.534 85.4941L36.4097 77.6074Z" fill="#EB8F35"/>
    <path d="M51.4755 57.416L53.0445 84.2311L48.3359 70.5085L51.4755 57.416Z" fill="#EA8E3A"/>
    <path d="M21.9707 77.924L36.4094 77.6074L33.8971 97.1674L21.9707 77.924Z" fill="#D87C30"/>
    <path d="M7.21939 105.686L33.8989 97.1672L21.971 77.9238L0.314453 79.5006L7.21939 105.686Z" fill="#EB8F35"/>
    <path d="M49.5917 32.8105L36.0947 44.1673L25.7373 56.7857L51.4751 57.7323L49.5917 32.8105Z" fill="#E8821E"/>
    <path d="M33.8975 97.1674L50.534 85.4941L49.2778 95.5906V101.269L37.9787 99.0607L33.8989 97.1674H33.8975ZM84.1184 97.1674L67.7963 85.4941L69.0524 95.5906V101.269L80.3501 99.0607L84.1199 97.1674H84.1184Z" fill="#DFCEC3"/>
    <path d="M44.5691 63.0957L48.0216 70.3523L35.7822 67.1973L44.5691 63.0957Z" fill="#393939"/>
    <path d="M6.90527 0.314453L49.5925 32.8093L42.3731 15.1427L6.90527 0.314453Z" fill="#E88F35"/>
    <path d="M6.90518 0.314453L1.25488 17.6661L4.39443 36.5944L2.1966 37.8561L5.33614 40.696L2.82392 42.9044L6.27639 46.0593L4.08003 47.9511L9.10301 54.2611L32.643 47.006C32.643 47.006 49.9053 33.1244 49.5924 32.8093C49.278 32.4913 6.90518 0.314453 6.90518 0.314453Z" fill="#8E5A30"/>
    <path d="M108.913 53.9473L117.703 79.5007L95.7307 78.239H81.6064V67.1973L82.2352 44.4824L85.3733 47.0073L108.913 53.9473Z" fill="#F89D35"/>
    <path d="M92.2778 56.7852L66.54 57.4167L69.3652 70.6667L81.606 67.5118L92.2778 56.7852Z" fill="#D87C30"/>
    <path d="M92.2783 57.1016L81.6064 67.1966V77.2916L92.2783 57.1016Z" fill="#EA8D3A"/>
    <path d="M81.6057 67.5117L69.052 70.6667L64.9707 84.2317L67.7958 85.81L81.6057 77.6067V67.5117Z" fill="#F89D35"/>
    <path d="M81.6058 77.6074L84.118 97.1674L67.7959 85.8106L81.6058 77.6074Z" fill="#EB8F35"/>
    <path d="M66.5397 57.416L64.9707 84.2311L69.6793 70.5085L66.5397 57.416Z" fill="#EA8E3A"/>
    <path d="M96.0451 77.924L81.6064 77.6074L84.1187 97.1674L96.0451 77.924Z" fill="#D87C30"/>
    <path d="M110.797 105.686L84.1172 97.1672L96.0451 77.9238L117.703 79.5006L110.798 105.686H110.797Z" fill="#EB8F35"/>
    <path d="M68.4235 32.8105L81.9204 44.1673L92.2778 56.7857L66.54 57.7323L68.4235 32.8105Z" fill="#E8821E"/>
    <path d="M73.4447 63.0957L69.9922 70.3523L82.2345 67.1973L73.4447 63.0957Z" fill="#393939"/>
    <path d="M111.111 0.314453L68.4238 32.8093L75.6432 15.1427L111.111 0.314453Z" fill="#E88F35"/>
    <path d="M111.111 0.314453L116.761 17.6661L113.622 36.5944L115.819 37.8561L112.68 40.696L115.192 42.9044L111.74 46.0593L113.936 47.9511L108.914 54.2611L85.3716 47.0075C85.3716 47.0075 68.1092 33.1259 68.4222 32.8108C68.738 32.4913 111.111 0.314453 111.111 0.314453Z" fill="#8E5A30"/>
</svg>
