<svg width="172" height="172" viewBox="0 0 172 172" fill="none" xmlns="http://www.w3.org/2000/svg">
    <path d="M70.6572 85.7141L85.8207 70.5541L100.981 85.7141L85.8207 100.888L70.6606 85.7141H70.6572ZM118.913 85.7141L134.074 70.5541L149.234 85.7141L134.074 100.874L118.913 85.7141ZM22.4043 85.7141L37.5644 70.5541L52.7245 85.7141L37.5644 100.874L22.4043 85.7141ZM46.3467 61.7855L85.7485 22.3906L100.909 37.5507L61.5068 76.9456L46.3467 61.7855Z" fill="#F5B638"/>
    <path d="M110.132 76.9456L70.7367 37.5507L85.8968 22.3906L125.292 61.7821L110.132 76.9421V76.9456ZM61.5107 94.696L100.906 134.091L85.7455 149.251L46.3506 109.856L61.5107 94.696Z" fill="#F5B638"/>
    <path d="M125.309 109.857L85.914 149.252L70.7539 134.092L110.149 94.6973L125.309 109.857Z" fill="#F5B638"/>
</svg>
