<svg width="286" height="107" viewBox="0 0 286 107" fill="none" xmlns="http://www.w3.org/2000/svg">
    <path d="M11 17H9.625H8.25H6.875H5.5H4.125H2.75H1.375L1.375 15.625L1.375 14.25L1.375 12.875L1.375 11.5L1.375 10.125L1.375 8.75L1.375 7.375L1.375 6L1.375 4.625L1.375 3.25L1.375 1.875L1.375 0.5H2.75H4.125H5.5L6.875 0.5H8.25H9.625H11V1.875H12.375V3.25H13.75V4.625L13.75 6V7.375H12.375V8.75H13.75V10.125V11.5V12.875V14.25V15.625H12.375L12.375 17L11 17ZM8.25 14.25H9.625V12.875H11V11.5H9.625V10.125H8.25H6.875H5.5H4.125V11.5V12.875L4.125 14.25H5.5H6.875H8.25ZM8.25 7.375H9.625V6L9.625 4.625H8.25V3.25H6.875L5.5 3.25H4.125V4.625V6V7.375H5.5H6.875H8.25ZM23.375 18.375H22H20.625V17H19.25H17.875V15.625H16.5V14.25V12.875V11.5V10.125V8.75V7.375V6V4.625V3.25V1.875V0.5L17.875 0.5H19.25V1.875V3.25V4.625V6V7.375V8.75V10.125V11.5V12.875H20.625V14.25H22H23.375H24.75H26.125V12.875V11.5V10.125V8.75V7.375V6V4.625V3.25V1.875V0.5H27.5L28.875 0.5H30.25V1.875V3.25V4.625V6V7.375V8.75V10.125V11.5V12.875H28.875V14.25V15.625H27.5V17H26.125H24.75V18.375H23.375ZM35.75 17H34.375L33 17H31.625V15.625V14.25H33V12.875V11.5L33 10.125V8.75V7.375V6V4.625V3.25H31.625V1.875V0.5H33H34.375H35.75H37.125V1.875V3.25H35.75V4.625V6V7.375V8.75V10.125L35.75 11.5V12.875V14.25H37.125V15.625V17H35.75ZM49.5 17H48.125H46.75H45.375H44H42.625H41.25H39.875V15.625V14.25V12.875V11.5L39.875 10.125V8.75V7.375V6V4.625V3.25V1.875V0.5H41.25H42.625H44H45.375H46.75H48.125H49.5V1.875L50.875 1.875H52.25V3.25V4.625H53.625V6V7.375V8.75V10.125L53.625 11.5V12.875V14.25H52.25V15.625H50.875V17H49.5ZM46.75 14.25H48.125V12.875H49.5V11.5L49.5 10.125H50.875V8.75V7.375H49.5V6V4.625H48.125V3.25H46.75H45.375H44H42.625V4.625V6V7.375V8.75V10.125L42.625 11.5V12.875V14.25H44H45.375H46.75ZM66 17H64.625H63.25H61.875H60.5H59.125H57.75H56.375V15.625V14.25V12.875V11.5L56.375 10.125V8.75V7.375V6V4.625V3.25V1.875V0.5H57.75H59.125V1.875V3.25V4.625V6V7.375V8.75V10.125L59.125 11.5V12.875V14.25H60.5H61.875H63.25H64.625H66H67.375V15.625V17H66ZM130.625 17H129.25V15.625V14.25V12.875V11.5V10.125V8.75V7.375V6V4.625V3.25H127.875L126.5 3.25H125.125H123.75V1.875V0.5H125.125H126.5L127.875 0.5H129.25H130.625H132H133.375H134.75H136.125H137.5V1.875V3.25H136.125H134.75H133.375H132V4.625V6V7.375V8.75V10.125V11.5V12.875V14.25V15.625V17H130.625ZM152.625 17H151.25H149.875V15.625V14.25V12.875V11.5V10.125H148.5H147.125H145.75H144.375L143 10.125V11.5V12.875V14.25V15.625V17H141.625H140.25V15.625V14.25V12.875V11.5V10.125V8.75V7.375V6V4.625V3.25V1.875V0.5H141.625H143V1.875V3.25V4.625V6V7.375L144.375 7.375H145.75H147.125H148.5H149.875V6V4.625V3.25V1.875V0.5H151.25H152.625H154V1.875V3.25V4.625V6V7.375V8.75V10.125V11.5V12.875V14.25V15.625V17H152.625ZM167.75 17H166.375L165 17H163.625H162.25H160.875H159.5H158.125H156.75V15.625V14.25V12.875V11.5V10.125V8.75V7.375V6V4.625V3.25V1.875V0.5H158.125H159.5L160.875 0.5H162.25H163.625H165H166.375H167.75H169.125V1.875V3.25H167.75H166.375H165H163.625H162.25H160.875L159.5 3.25V4.625V6V7.375H160.875H162.25H163.625H165L166.375 7.375H167.75V8.75V10.125H166.375L165 10.125H163.625H162.25H160.875H159.5V11.5V12.875V14.25H160.875H162.25H163.625H165L166.375 14.25H167.75H169.125V15.625V17H167.75ZM11 61H9.625H8.25H6.875H5.5H4.125H2.75H1.375L1.375 59.625L1.375 58.25L1.375 56.875L1.375 55.5L1.375 54.125L1.375 52.75L1.375 51.375L1.375 50L1.375 48.625L1.375 47.25L1.375 45.875L1.375 44.5H2.75H4.125H5.5H6.875H8.25H9.625H11V45.875H12.375V47.25H13.75V48.625L13.75 50V51.375H12.375V52.75H13.75V54.125V55.5V56.875V58.25V59.625H12.375L12.375 61H11ZM8.25 58.25H9.625V56.875H11V55.5H9.625V54.125H8.25H6.875H5.5H4.125V55.5V56.875L4.125 58.25H5.5H6.875H8.25ZM8.25 51.375H9.625V50L9.625 48.625H8.25V47.25H6.875H5.5H4.125V48.625V50V51.375H5.5H6.875H8.25ZM27.5 61H26.125H24.75H23.375H22H20.625H19.25H17.875H16.5V59.625V58.25V56.875V55.5V54.125V52.75V51.375V50V48.625V47.25V45.875V44.5H17.875H19.25H20.625H22L23.375 44.5H24.75H26.125H27.5H28.875V45.875V47.25H27.5H26.125H24.75H23.375L22 47.25H20.625H19.25V48.625V50V51.375H20.625H22L23.375 51.375H24.75H26.125H27.5V52.75V54.125H26.125H24.75H23.375H22H20.625H19.25V55.5V56.875V58.25H20.625H22H23.375H24.75H26.125H27.5H28.875V59.625V61H27.5ZM38.5 62.375H37.125H35.75V61H34.375H33H31.625V59.625V58.25H30.25V56.875V55.5H31.625H33H34.375V56.875V58.25H35.75H37.125H38.5H39.875H41.25V56.875V55.5H39.875H38.5L38.5 54.125H37.125H35.75H34.375H33V52.75H31.625V51.375V50V48.625V47.25V45.875H33V44.5H34.375H35.75H37.125H38.5H39.875H41.25V45.875H42.625V47.25H44V48.625V50H42.625H41.25H39.875V48.625V47.25H38.5H37.125H35.75V48.625H34.375V50H35.75V51.375H37.125H38.5H39.875H41.25V52.75H42.625H44V54.125L44 55.5V56.875V58.25V59.625H42.625V61H41.25H39.875V62.375H38.5ZM52.25 61H50.875V59.625V58.25V56.875V55.5L50.875 54.125V52.75V51.375V50V48.625V47.25H49.5H48.125H46.75H45.375V45.875V44.5H46.75H48.125H49.5H50.875H52.25H53.625H55H56.375H57.75H59.125V45.875V47.25H57.75H56.375H55H53.625V48.625V50V51.375V52.75V54.125L53.625 55.5V56.875V58.25V59.625V61H52.25ZM81.125 61H79.75V59.625H78.375V58.25V56.875V55.5H77V54.125V52.75V51.375V50H75.625V51.375V52.75V54.125V55.5H74.25V56.875V58.25V59.625H72.875V61H71.5H70.125H68.75V59.625V58.25V56.875V55.5H67.375V54.125V52.75V51.375V50L66 50V48.625V47.25V45.875V44.5L67.375 44.5H68.75V45.875V47.25H70.125V48.625V50V51.375V52.75H71.5H72.875V51.375V50V48.625V47.25H74.25V45.875V44.5H75.625H77H78.375V45.875H79.75V47.25V48.625V50V51.375V52.75H81.125H82.5V51.375V50V48.625V47.25H83.875V45.875V44.5H85.25H86.625V45.875V47.25V48.625V50H85.25V51.375V52.75V54.125H83.875V55.5V56.875V58.25V59.625H82.5V61H81.125ZM100.375 61H99H97.625H96.25H94.875H93.5H92.125H90.75H89.375V59.625V58.25V56.875V55.5V54.125V52.75V51.375V50V48.625V47.25V45.875V44.5H90.75H92.125H93.5H94.875H96.25H97.625H99H100.375H101.75V45.875V47.25H100.375H99H97.625H96.25H94.875H93.5H92.125V48.625V50V51.375H93.5H94.875H96.25H97.625H99H100.375V52.75V54.125H99H97.625H96.25H94.875H93.5H92.125V55.5V56.875V58.25H93.5H94.875H96.25H97.625H99H100.375H101.75V59.625V61H100.375ZM114.125 61H112.75H111.375H110H108.625H107.25H105.875H104.5V59.625V58.25V56.875V55.5V54.125V52.75V51.375V50V48.625V47.25V45.875V44.5H105.875H107.25H108.625H110L111.375 44.5H112.75H114.125V45.875H115.5V47.25H116.875V48.625V50V51.375H115.5V52.75H116.875V54.125V55.5V56.875V58.25V59.625H115.5V61H114.125ZM111.375 58.25H112.75V56.875H114.125V55.5H112.75V54.125H111.375H110H108.625H107.25V55.5V56.875V58.25H108.625H110H111.375ZM111.375 51.375H112.75V50V48.625H111.375V47.25L110 47.25H108.625H107.25V48.625V50V51.375H108.625H110L111.375 51.375ZM125.125 62.375H123.75H122.375V61H121H119.625V59.625H118.25V58.25V56.875V55.5H119.625H121V56.875H122.375V58.25H123.75V59.625H125.125V58.25H126.5V56.875V55.5V54.125H125.125H123.75H122.375V52.75V51.375H123.75H125.125V50H126.5V48.625H125.125V47.25H123.75H122.375V48.625V50H121H119.625H118.25V48.625V47.25H119.625V45.875H121V44.5H122.375H123.75H125.125H126.5V45.875H127.875H129.25V47.25V48.625V50V51.375H127.875V52.75H129.25V54.125V55.5V56.875V58.25V59.625H127.875V61H126.5V62.375H125.125ZM4.125 105H2.75H1.375H0L0 103.625L0 102.25H1.375L1.375 100.875L1.375 99.5L1.375 98.125L1.375 96.75L1.375 95.375L1.375 94L1.375 92.625L1.375 91.25H0L0 89.875L0 88.5H1.375H2.75H4.125H5.5V89.875L5.5 91.25H4.125V92.625V94V95.375L4.125 96.75V98.125V99.5V100.875L4.125 102.25H5.5V103.625V105H4.125ZM20.625 105H19.25H17.875V103.625H16.5V102.25H15.125V100.875V99.5H13.75V98.125H12.375V96.75H11V98.125V99.5V100.875V102.25V103.625L11 105H9.625H8.25L8.25 103.625V102.25V100.875V99.5V98.125V96.75V95.375V94L8.25 92.625V91.25V89.875V88.5H9.625H11V89.875H12.375V91.25H13.75V92.625L13.75 94H15.125V95.375H16.5V96.75V98.125H17.875V96.75V95.375V94V92.625V91.25V89.875V88.5H19.25H20.625H22V89.875V91.25V92.625V94V95.375V96.75V98.125V99.5V100.875V102.25V103.625V105H20.625ZM31.625 105H30.25H28.875V103.625H27.5V102.25V100.875V99.5H26.125V98.125V96.75H24.75V95.375V94V92.625H23.375V91.25V89.875V88.5H24.75H26.125V89.875H27.5V91.25V92.625V94H28.875V95.375V96.75V98.125H30.25V99.5H31.625V98.125V96.75H33V95.375V94V92.625H34.375V91.25V89.875V88.5H35.75H37.125H38.5V89.875V91.25H37.125V92.625V94V95.375H35.75V96.75V98.125H34.375L34.375 99.5V100.875H33V102.25V103.625V105H31.625ZM52.25 105H50.875H49.5H48.125H46.75H45.375L44 105H42.625H41.25V103.625V102.25V100.875V99.5L41.25 98.125V96.75V95.375V94V92.625V91.25V89.875V88.5H42.625H44L45.375 88.5H46.75H48.125H49.5H50.875H52.25H53.625V89.875V91.25H52.25H50.875H49.5H48.125H46.75H45.375L44 91.25V92.625V94V95.375L45.375 95.375H46.75H48.125H49.5H50.875H52.25V96.75V98.125H50.875H49.5H48.125H46.75H45.375L44 98.125L44 99.5V100.875V102.25L45.375 102.25H46.75H48.125H49.5H50.875H52.25H53.625V103.625V105H52.25ZM63.25 106.375H61.875H60.5V105H59.125H57.75H56.375V103.625V102.25H55V100.875V99.5H56.375H57.75H59.125V100.875V102.25H60.5H61.875H63.25H64.625H66V100.875V99.5H64.625H63.25L63.25 98.125H61.875H60.5H59.125H57.75V96.75H56.375V95.375V94V92.625V91.25V89.875H57.75V88.5H59.125H60.5H61.875H63.25H64.625H66V89.875H67.375V91.25H68.75V92.625V94H67.375H66H64.625V92.625V91.25H63.25H61.875H60.5V92.625H59.125V94H60.5V95.375H61.875H63.25H64.625H66V96.75H67.375H68.75V98.125V99.5V100.875V102.25V103.625H67.375V105H66H64.625V106.375H63.25ZM77 105H75.625V103.625V102.25V100.875V99.5V98.125V96.75V95.375V94V92.625V91.25H74.25H72.875H71.5H70.125V89.875V88.5H71.5H72.875H74.25H75.625H77H78.375H79.75H81.125H82.5H83.875V89.875V91.25H82.5H81.125H79.75H78.375V92.625V94V95.375V96.75V98.125V99.5V100.875V102.25V103.625V105H77ZM100.375 105H99V103.625V102.25V100.875V99.5V98.125H97.625V99.5V100.875V102.25H96.25V103.625V105H94.875H93.5H92.125V103.625V102.25H90.75V100.875V99.5V98.125H89.375V99.5V100.875V102.25V103.625V105H88H86.625V103.625V102.25V100.875V99.5V98.125V96.75V95.375V94V92.625V91.25V89.875V88.5H88H89.375H90.75V89.875V91.25H92.125V92.625V94V95.375H93.5V96.75V98.125V99.5H94.875V98.125V96.75H96.25V95.375V94V92.625H97.625V91.25V89.875V88.5H99H100.375H101.75V89.875V91.25V92.625V94V95.375V96.75V98.125V99.5V100.875V102.25V103.625V105H100.375ZM115.5 105H114.125H112.75H111.375H110H108.625H107.25H105.875H104.5V103.625V102.25V100.875V99.5V98.125V96.75V95.375V94V92.625V91.25V89.875V88.5H105.875H107.25H108.625H110H111.375H112.75H114.125H115.5H116.875V89.875V91.25H115.5H114.125H112.75H111.375H110H108.625H107.25V92.625V94V95.375H108.625H110H111.375H112.75H114.125H115.5V96.75V98.125H114.125H112.75H111.375H110H108.625H107.25V99.5V100.875V102.25H108.625H110H111.375H112.75H114.125H115.5H116.875V103.625V105H115.5ZM132 105H130.625H129.25V103.625H127.875V102.25H126.5V100.875V99.5H125.125V98.125H123.75V96.75H122.375V98.125V99.5V100.875V102.25V103.625V105H121H119.625V103.625V102.25V100.875V99.5V98.125V96.75V95.375V94V92.625V91.25V89.875V88.5H121H122.375V89.875H123.75V91.25H125.125V92.625V94H126.5V95.375H127.875V96.75V98.125H129.25V96.75V95.375V94V92.625V91.25V89.875V88.5H130.625H132L133.375 88.5V89.875V91.25V92.625V94V95.375V96.75V98.125V99.5V100.875V102.25V103.625V105L132 105ZM141.625 105H140.25V103.625V102.25V100.875V99.5V98.125V96.75V95.375V94V92.625V91.25H138.875H137.5H136.125H134.75V89.875V88.5H136.125H137.5H138.875H140.25H141.625H143H144.375H145.75H147.125H148.5V89.875V91.25H147.125H145.75H144.375H143V92.625V94V95.375V96.75V98.125V99.5V100.875V102.25V103.625V105H141.625ZM159.5 105H158.125V103.625V102.25V100.875V99.5V98.125V96.75V95.375V94V92.625V91.25V89.875V88.5H159.5H160.875H162.25H163.625H165H166.375H167.75H169.125V89.875H170.5V91.25V92.625V94V95.375V96.75V98.125H169.125H167.75V99.5H166.375H165H163.625H162.25H160.875V100.875V102.25V103.625V105H159.5ZM163.625 96.75H165V95.375H166.375H167.75V94V92.625H166.375V91.25H165H163.625H162.25H160.875V92.625V94V95.375V96.75H162.25H163.625ZM187 105H185.625H184.25H182.875V103.625V102.25H181.5V100.875H180.125V99.5H178.75V98.125H177.375H176V99.5V100.875V102.25V103.625V105H174.625H173.25V103.625V102.25V100.875V99.5V98.125V96.75V95.375V94V92.625V91.25V89.875V88.5H174.625H176H177.375H178.75H180.125H181.5H182.875H184.25V89.875H185.625V91.25H187V92.625V94V95.375H185.625V96.75V98.125H184.25V99.5H185.625V100.875V102.25H187V103.625H188.375V105H187ZM181.5 95.375H182.875V94V92.625H181.5V91.25H180.125H178.75H177.375H176V92.625V94V95.375H177.375H178.75H180.125H181.5ZM198 106.375H196.625V105H195.25H193.875H192.5V103.625H191.125V102.25V100.875H189.75V99.5V98.125V96.75V95.375V94H191.125V92.625V91.25H192.5V89.875H193.875V88.5H195.25H196.625H198H199.375H200.75H202.125V89.875H203.5H204.875V91.25V92.625H206.25V94V95.375V96.75V98.125V99.5V100.875V102.25H204.875V103.625H203.5V105H202.125H200.75H199.375V106.375H198ZM199.375 102.25H200.75V100.875H202.125V99.5V98.125H203.5V96.75V95.375H202.125V94V92.625H200.75V91.25H199.375H198H196.625V92.625H195.25V94H193.875V95.375V96.75V98.125V99.5V100.875H195.25V102.25H196.625H198H199.375ZM218.625 105H217.25H215.875H214.5H213.125H211.75H210.375H209V103.625V102.25V100.875V99.5V98.125V96.75V95.375V94V92.625V91.25V89.875V88.5H210.375H211.75H213.125H214.5H215.875H217.25H218.625V89.875H220L221.375 89.875V91.25V92.625H222.75V94V95.375V96.75V98.125V99.5V100.875V102.25H221.375V103.625L220 103.625V105H218.625ZM215.875 102.25H217.25V100.875H218.625V99.5V98.125H220V96.75V95.375H218.625V94V92.625H217.25V91.25H215.875H214.5H213.125H211.75V92.625V94V95.375V96.75V98.125V99.5V100.875V102.25H213.125H214.5H215.875ZM232.375 106.375H231H229.625V105H228.25H226.875V103.625H225.5V102.25V100.875V99.5V98.125V96.75V95.375V94V92.625V91.25V89.875V88.5H226.875H228.25V89.875V91.25V92.625V94V95.375V96.75V98.125V99.5V100.875H229.625V102.25H231H232.375H233.75H235.125V100.875V99.5V98.125V96.75V95.375V94V92.625V91.25V89.875V88.5H236.5H237.875H239.25V89.875V91.25V92.625V94V95.375V96.75V98.125V99.5V100.875H237.875V102.25V103.625H236.5V105H235.125H233.75V106.375H232.375ZM248.875 106.375H247.5V105H246.125H244.75H243.375V103.625H242V102.25V100.875H240.625V99.5V98.125V96.75V95.375V94H242V92.625V91.25H243.375V89.875H244.75V88.5H246.125H247.5H248.875H250.25H251.625H253V89.875H254.375V91.25H255.75V92.625V94H254.375H253H251.625V92.625V91.25H250.25H248.875H247.5H246.125V92.625H244.75V94V95.375V96.75V98.125V99.5V100.875H246.125V102.25H247.5H248.875H250.25H251.625V100.875H253V99.5H254.375H255.75V100.875V102.25V103.625H254.375V105H253H251.625H250.25V106.375H248.875ZM264 105H262.625V103.625V102.25V100.875V99.5V98.125V96.75V95.375V94V92.625V91.25H261.25H259.875H258.5H257.125V89.875V88.5H258.5H259.875H261.25H262.625H264H265.375H266.75H268.125H269.5H270.875V89.875V91.25H269.5H268.125H266.75H265.375V92.625V94V95.375V96.75V98.125V99.5V100.875V102.25V103.625V105H264ZM280.5 106.375H279.125H277.75V105H276.375H275H273.625V103.625V102.25H272.25V100.875V99.5H273.625H275H276.375V100.875V102.25H277.75H279.125H280.5H281.875H283.25V100.875V99.5H281.875H280.5V98.125H279.125H277.75H276.375H275V96.75H273.625V95.375V94V92.625V91.25V89.875H275V88.5H276.375H277.75H279.125H280.5H281.875H283.25V89.875H284.625V91.25H286V92.625V94H284.625H283.25H281.875V92.625V91.25H280.5H279.125H277.75V92.625H276.375V94H277.75V95.375H279.125H280.5H281.875H283.25V96.75H284.625H286V98.125V99.5V100.875V102.25V103.625H284.625V105H283.25H281.875V106.375H280.5Z" fill="white" fill-opacity="0.8"/>
</svg>
