<svg xmlns="http://www.w3.org/2000/svg" width="66" height="78" viewBox="0 0 66 78" fill="none">
    <path d="M58.2272 53.299C58.2549 53.3524 58.3237 53.3702 58.3732 53.3362C62.1064 50.773 64.5607 47.6317 65.2106 44.1993C65.3214 43.5757 65.3788 42.9595 65.3788 42.3617C65.383 32.6068 50.8656 24.6978 32.9596 24.6978C15.2072 24.6978 1.24437 32.7332 0.862204 45.1145C0.897093 48.1146 0.955692 51.093 1.76274 53.6816C1.79378 53.7811 1.93754 53.765 1.95634 53.6624C4.24889 41.1522 22.0187 38.4401 32.9596 39.3964C44.3235 40.3897 53.5642 44.3092 58.2272 53.299Z" fill="url(#paint0_linear_18_446)" stroke="black"/>
    <path d="M15.2394 55.2995C19.9245 58.5113 26.4228 59.9976 32.96 59.9976C43.2031 59.9976 52.3373 57.4094 58.2794 53.368C60.6455 51.7587 62.5055 49.9189 63.7278 47.9204C64.4611 46.7213 64.9648 45.465 65.2105 44.1671C65.3118 43.5976 65.3684 43.0343 65.3775 42.4855C65.3812 42.3752 65.3831 42.2646 65.3831 42.1538V59.8177C65.3831 69.5767 50.8657 77.4857 32.96 77.4857C26.3867 77.4857 19.8933 76.4718 15.1621 73.3329V55.2707C15.1621 55.2707 15.1621 55.2465 15.2394 55.2995Z" fill="url(#paint1_linear_18_446)"/>
    <path d="M65.2105 44.1671C64.9648 45.465 64.4611 46.7213 63.7278 47.9204C62.5055 49.9189 60.6455 51.7587 58.2794 53.368C52.3373 57.4094 43.2031 59.9976 32.96 59.9976C26.4228 59.9976 19.9245 58.5113 15.2394 55.2995C15.1621 55.2465 15.1621 55.2707 15.1621 55.2707V73.3329C19.8933 76.4718 26.3867 77.4857 32.96 77.4857C50.8657 77.4857 65.3831 69.5767 65.3831 59.8177V42.1538C65.3831 42.2646 65.3812 42.3752 65.3775 42.4855C65.3684 43.0343 65.3118 43.5976 65.2105 44.1671ZM65.2105 44.1671C65.3246 43.5644 65.3832 42.9527 65.3832 42.3336" stroke="black" stroke-linejoin="round"/>
    <path d="M9.56102 72.1064L7.27637 73.3441V61.0193L9.67324 59.4849L9.56102 72.1064Z" fill="url(#paint2_linear_18_446)" stroke="black" stroke-linejoin="round"/>
    <path d="M41.5528 39.0527L31.1605 33.0527L24.4609 36.8355L34.8224 54.7216L41.5528 51.0527V39.0527Z" fill="url(#paint3_linear_18_446)" stroke="black" stroke-linejoin="round"/>
    <path d="M41.4849 39.7061L35.0352 43.0863V54.5482L41.4849 50.9746V39.7061Z" fill="url(#paint4_linear_18_446)" stroke="black" stroke-linejoin="round"/>
    <path d="M34.8484 42.8771C34.8484 42.8413 34.8293 42.8083 34.7984 42.7905L24.6061 36.9059C24.5394 36.8674 24.4561 36.9156 24.4561 36.9925V48.7616C24.4561 48.7973 24.4751 48.8303 24.5061 48.8482L34.6984 54.7327C34.7651 54.7712 34.8484 54.7231 34.8484 54.6461V42.8771Z" fill="url(#paint5_linear_18_446)" stroke="black"/>
    <path d="M34.7549 43.2207L41.3235 39.5659" stroke="black"/>
    <path d="M1.88839 54.032C-4.739 32.844 16.0734 24.6655 32.9594 24.6655C50.8654 24.6655 65.3827 32.5746 65.3786 42.3295V42.3336C65.3783 42.9301 65.321 43.5449 65.2104 44.1671C64.9647 45.465 64.4609 46.7213 63.7276 47.9204C62.5054 49.9189 60.6454 51.7587 58.2792 53.368C52.3372 57.4094 43.203 59.9976 32.9599 59.9976C26.432 59.9976 19.8468 58.4952 15.1633 55.2928L18.2006 53.615C22.1354 55.8537 27.4165 56.9976 32.9599 56.9976C39.784 56.9976 46.0202 55.7897 50.9928 53.8043C56.0214 51.7966 59.4838 49.1095 61.1683 46.3552C61.7297 45.4371 62.0872 44.5244 62.2597 43.6253C62.3403 43.1661 62.3786 42.7317 62.3786 42.3295V42.3282C62.38 39.0659 59.9117 35.4495 54.45 32.4738C49.1027 29.5604 41.5099 27.6655 32.9594 27.6655C24.498 27.6655 16.9654 29.6145 11.6539 32.844C6.8449 35.7679 4.0132 39.8673 3.54365 45.1251C3.31904 50.3392 5.12053 55.3132 9.64091 59.318L7.20437 61.0535C4.45806 58.6945 2.90899 56.9776 1.88839 54.032Z" fill="url(#paint6_linear_18_446)"/>
    <path d="M65.2104 44.1671C65.321 43.5449 65.3783 42.9301 65.3786 42.3336V42.3295C65.3827 32.5746 50.8654 24.6655 32.9594 24.6655C16.0734 24.6655 -4.739 32.844 1.88839 54.032C2.90899 56.9776 4.45806 58.6944 7.20437 61.0535L9.64091 59.318C5.12053 55.3132 3.31904 50.3392 3.54365 45.1251C4.0132 39.8673 6.8449 35.7679 11.6539 32.844C16.9654 29.6145 24.498 27.6655 32.9594 27.6655C41.5099 27.6655 49.1027 29.5604 54.45 32.4738C59.9117 35.4495 62.38 39.0659 62.3786 42.3282V42.3295C62.3786 42.7317 62.3403 43.1661 62.2597 43.6253C62.0872 44.5244 61.7297 45.4371 61.1683 46.3552C59.4838 49.1095 56.0214 51.7966 50.9928 53.8043C46.0202 55.7897 39.784 56.9976 32.9599 56.9976C27.4165 56.9976 22.1354 55.8537 18.2006 53.615L15.1633 55.2928C19.8468 58.4952 26.432 59.9976 32.9599 59.9976C43.203 59.9976 52.3372 57.4094 58.2792 53.368C60.6454 51.7587 62.5054 49.9189 63.7276 47.9204C64.4609 46.7213 64.9647 45.465 65.2104 44.1671ZM65.2104 44.1671C65.3245 43.5644 65.383 42.9527 65.383 42.3336" stroke="black" stroke-linejoin="round"/>
    <path d="M41.5524 6.51367L31.16 0.513672L24.4692 4.29512L34.8064 36.3761L41.5524 32.6829V6.51367Z" fill="url(#paint7_linear_18_446)" stroke="black" stroke-linejoin="round"/>
    <path d="M34.8484 10.338C34.8484 10.3023 34.8293 10.2693 34.7984 10.2514L24.6061 4.36688C24.5394 4.32839 24.4561 4.3765 24.4561 4.45348V30.3917C24.4561 30.4275 24.4751 30.4605 24.5061 30.4783L34.6984 36.3629C34.7651 36.4014 34.8484 36.3532 34.8484 36.2763V10.338Z" fill="url(#paint8_linear_18_446)" stroke="black"/>
    <path d="M41.5521 6.51367V32.6829L34.8061 36.3761L34.8013 36.3612C34.8288 36.3439 34.8481 36.3136 34.8481 36.2765V10.3383C37.0861 8.84199 38.4905 8.38385 41.5521 6.51367Z" fill="url(#paint9_linear_18_446)" stroke="black" stroke-linejoin="round"/>
    <line x1="34.6038" y1="10.4146" x2="41.308" y2="6.64926" stroke="black"/>
    <defs>
        <linearGradient id="paint0_linear_18_446" x1="0.862305" y1="39.381" x2="65.3788" y2="39.381" gradientUnits="userSpaceOnUse">
            <stop stop-color="#80FBF1"/>
            <stop offset="1" stop-color="#60DF9A"/>
        </linearGradient>
        <linearGradient id="paint1_linear_18_446" x1="15.1621" y1="59.8198" x2="65.3832" y2="59.8198" gradientUnits="userSpaceOnUse">
            <stop stop-color="#80FBF1"/>
            <stop offset="1" stop-color="#60DF9A"/>
        </linearGradient>
        <linearGradient id="paint2_linear_18_446" x1="7.27637" y1="66.4145" x2="9.67324" y2="66.4145" gradientUnits="userSpaceOnUse">
            <stop stop-color="#80FBF1"/>
            <stop offset="1" stop-color="#60DF9A"/>
        </linearGradient>
        <linearGradient id="paint3_linear_18_446" x1="24.4609" y1="43.8872" x2="41.5528" y2="43.8872" gradientUnits="userSpaceOnUse">
            <stop stop-color="#80FBF1"/>
            <stop offset="1" stop-color="#60DF9A"/>
        </linearGradient>
        <linearGradient id="paint4_linear_18_446" x1="35.0352" y1="39.7061" x2="45.8856" y2="44.4212" gradientUnits="userSpaceOnUse">
            <stop stop-color="#00FEB5"/>
            <stop offset="1" stop-color="#90FF00"/>
        </linearGradient>
        <linearGradient id="paint5_linear_18_446" x1="24.4561" y1="45.8193" x2="34.8484" y2="45.8193" gradientUnits="userSpaceOnUse">
            <stop stop-color="#80FBF1"/>
            <stop offset="1" stop-color="#60DF9A"/>
        </linearGradient>
        <linearGradient id="paint6_linear_18_446" x1="0.625977" y1="42.8595" x2="65.383" y2="42.8595" gradientUnits="userSpaceOnUse">
            <stop stop-color="#80FBF1"/>
            <stop offset="1" stop-color="#60DF9A"/>
        </linearGradient>
        <linearGradient id="paint7_linear_18_446" x1="24.4692" y1="18.4449" x2="41.5524" y2="18.4449" gradientUnits="userSpaceOnUse">
            <stop stop-color="#80FBF1"/>
            <stop offset="1" stop-color="#60DF9A"/>
        </linearGradient>
        <linearGradient id="paint8_linear_18_446" x1="24.4561" y1="20.3649" x2="34.8484" y2="20.3649" gradientUnits="userSpaceOnUse">
            <stop stop-color="#80FBF1"/>
            <stop offset="1" stop-color="#60DF9A"/>
        </linearGradient>
        <linearGradient id="paint9_linear_18_446" x1="34.8013" y1="6.51367" x2="47.6464" y2="9.41748" gradientUnits="userSpaceOnUse">
            <stop stop-color="#00FEB5"/>
            <stop offset="1" stop-color="#90FF00"/>
        </linearGradient>
    </defs>
</svg>
