<svg width="25" height="25" viewBox="0 0 25 25" fill="none" xmlns="http://www.w3.org/2000/svg">
<circle cx="12.5" cy="12.5" r="12" fill="#F44653" fill-opacity="0.1"/>
<g clip-path="url(#clip0_47_2354)">
<path d="M13.6832 8.21807L13.3964 14.2412C13.3792 14.6075 13.0763 14.8965 12.71 14.8965H11.958C11.5906 14.8965 11.2888 14.6086 11.2716 14.2412L10.9848 8.21807C10.9708 7.92373 11.205 7.67773 11.5004 7.67773H13.1687C13.463 7.67773 13.6972 7.92373 13.6832 8.21807ZM13.709 16.6152C13.709 16.9944 13.5554 17.3382 13.3062 17.5874C13.0569 17.8366 12.7132 17.9902 12.334 17.9902C11.9548 17.9902 11.611 17.8366 11.3618 17.5874C11.1126 17.3382 10.959 16.9944 10.959 16.6152C10.959 15.8558 11.5745 15.2402 12.334 15.2402C12.7132 15.2402 13.0569 15.3938 13.3062 15.6431C13.5554 15.8923 13.709 16.236 13.709 16.6152Z" fill="#F44653"/>
</g>
<defs>
<clipPath id="clip0_47_2354">
<rect width="11" height="11" fill="white" transform="translate(6.83398 7.33398)"/>
</clipPath>
</defs>
</svg>
