<svg xmlns="http://www.w3.org/2000/svg" width="28" height="28" viewBox="0 0 28 28" fill="none">
    <path d="M10.8949 4L10.1696 4.08497C10.1696 4.08497 6.91593 4.43119 4.53971 6.28881H4.51186L4.48214 6.31593C3.94914 6.79322 3.717 7.37989 3.35021 8.23774C2.91785 9.26984 2.54978 10.3264 2.248 11.4016C1.559 13.8269 1 16.7647 1 19.4522V19.6782L1.11607 19.9042C1.97593 21.3731 3.5025 22.3087 4.91764 22.955C6.33186 23.6014 7.55479 23.944 8.39979 23.972L8.95136 24L9.24107 23.52L10.2569 21.7681C11.3341 22.005 12.5746 22.1641 14 22.1641C15.4254 22.1641 16.6659 22.005 17.7431 21.7681L18.7589 23.52L19.0496 24L19.6002 23.972C20.4452 23.944 21.6681 23.6014 23.0824 22.955C24.4975 22.3087 26.0241 21.3731 26.8839 19.9042L27 19.6782V19.4522C27 16.7647 26.441 13.8269 25.752 11.4016C25.4502 10.3264 25.0821 9.26984 24.6498 8.23774C24.283 7.37898 24.0509 6.79322 23.5179 6.31684L23.4891 6.28791H23.4594C21.085 4.43119 17.8304 4.08497 17.8304 4.08497L17.1051 4L16.8433 4.64994C16.8433 4.64994 16.5749 5.30983 16.4087 6.06282C15.6104 5.9556 14.8058 5.89884 14 5.89288C13.5032 5.89288 12.6443 5.92452 11.5913 6.06282C11.4241 5.30983 11.1558 4.64994 11.1558 4.64994L10.8949 4ZM9.61807 6.06282C9.658 6.18938 9.69793 6.29876 9.73414 6.40181C8.5335 6.69107 7.253 7.1322 6.07836 7.84181L7.0645 9.36768C9.47321 7.91232 12.9331 7.70079 14 7.70079C15.066 7.70079 18.5268 7.91232 20.9355 9.36768L21.9216 7.84181C20.747 7.1322 19.4665 6.69107 18.2659 6.4009C18.3021 6.29876 18.342 6.18938 18.3819 6.06192C19.2483 6.23186 20.903 6.62056 22.2699 7.67277C22.2624 7.67638 22.6181 8.19887 22.9375 8.94373C23.2644 9.71028 23.6265 10.7308 23.9534 11.8816C24.5811 14.0881 25.0741 16.7756 25.1141 19.1412C24.5291 20.0099 23.4454 20.7937 22.2986 21.3171C21.5795 21.6479 20.8186 21.885 20.0357 22.0221L19.5714 21.2601C19.8472 21.1607 20.1193 21.0522 20.3551 20.9492C21.7842 20.3381 22.5605 19.6782 22.5605 19.6782L21.3413 18.3223C21.3413 18.3223 20.8194 18.7887 19.6002 19.3112C18.3829 19.8337 16.5211 20.3562 14 20.3562C11.4789 20.3562 9.61807 19.8337 8.39979 19.3112C7.18057 18.7887 6.65871 18.3223 6.65871 18.3223L5.4395 19.6782C5.4395 19.6782 6.21579 20.3381 7.64486 20.9492C7.88071 21.0522 8.15279 21.1616 8.42857 21.2601L7.96429 22.0231C7.18101 21.8854 6.41982 21.6477 5.70043 21.3162C4.55457 20.7937 3.47 20.0099 2.88686 19.1412C2.92586 16.7756 3.41893 14.0881 4.04757 11.8816C4.32535 10.8835 4.66427 9.90242 5.0625 8.94373C5.38193 8.19887 5.73757 7.67638 5.73014 7.67277C7.097 6.62056 8.75171 6.23186 9.61807 6.06282ZM10.75 12.2206C10.0322 12.2206 9.39707 12.6192 9.00893 13.1245C8.62079 13.6298 8.42857 14.2508 8.42857 14.9324C8.42857 15.614 8.62079 16.235 9.00893 16.7403C9.39707 17.2456 10.0322 17.6443 10.75 17.6443C11.4678 17.6443 12.1029 17.2456 12.4911 16.7403C12.8792 16.235 13.0714 15.614 13.0714 14.9324C13.0714 14.2508 12.8792 13.6298 12.4911 13.1245C12.1029 12.6192 11.4678 12.2206 10.75 12.2206ZM17.25 12.2206C16.5322 12.2206 15.8971 12.6192 15.5089 13.1245C15.1208 13.6298 14.9286 14.2508 14.9286 14.9324C14.9286 15.614 15.1208 16.235 15.5089 16.7403C15.8971 17.2456 16.5322 17.6443 17.25 17.6443C17.9678 17.6443 18.6029 17.2456 18.9911 16.7403C19.3792 16.235 19.5714 15.614 19.5714 14.9324C19.5714 14.2508 19.3792 13.6298 18.9911 13.1245C18.6029 12.6192 17.9678 12.2206 17.25 12.2206ZM10.75 14.0285C10.8011 14.0285 10.8661 14.0466 10.9821 14.1984C11.0982 14.3494 11.2143 14.6142 11.2143 14.9324C11.2143 15.2506 11.0982 15.5155 10.9821 15.6673C10.8661 15.8183 10.8011 15.8364 10.75 15.8364C10.6989 15.8364 10.6339 15.8183 10.5179 15.6664C10.3643 15.4511 10.2832 15.1946 10.2857 14.9324C10.2857 14.6142 10.4018 14.3494 10.5179 14.1975C10.6339 14.0466 10.6989 14.0285 10.75 14.0285ZM17.25 14.0285C17.3011 14.0285 17.3661 14.0466 17.4821 14.1984C17.5982 14.3494 17.7143 14.6142 17.7143 14.9324C17.7143 15.2506 17.5982 15.5155 17.4821 15.6673C17.3661 15.8183 17.3011 15.8364 17.25 15.8364C17.1989 15.8364 17.1339 15.8183 17.0179 15.6664C16.8643 15.4511 16.7832 15.1946 16.7857 14.9324C16.7857 14.6142 16.9018 14.3494 17.0179 14.1975C17.1339 14.0466 17.1989 14.0285 17.25 14.0285Z" fill="#8CB4BD"/>
</svg>
