<svg width="32" height="32" viewBox="0 0 32 32" fill="none" xmlns="http://www.w3.org/2000/svg">
    <path d="M15.9992 9.59072C12.4523 9.59072 9.58984 12.4532 9.58984 16.0001C9.58984 19.547 12.4523 22.4095 15.9992 22.4095C19.5461 22.4095 22.4086 19.547 22.4086 16.0001C22.4086 12.4532 19.5461 9.59072 15.9992 9.59072ZM15.9992 20.1657C13.7055 20.1657 11.8336 18.2938 11.8336 16.0001C11.8336 13.7063 13.7055 11.8345 15.9992 11.8345C18.293 11.8345 20.1648 13.7063 20.1648 16.0001C20.1648 18.2938 18.293 20.1657 15.9992 20.1657ZM22.6711 7.83447C21.843 7.83447 21.1742 8.50322 21.1742 9.33135C21.1742 10.1595 21.843 10.8282 22.6711 10.8282C23.4992 10.8282 24.168 10.1626 24.168 9.33135C24.1648 8.5001 23.4992 7.83447 22.6711 7.83447Z" fill="#8CB4BD"/>
    <path d="M28.4939 15.9999C28.4939 14.2749 28.5095 12.5655 28.4126 10.8436C28.3158 8.84361 27.8595 7.0686 26.397 5.60611C24.9314 4.14048 23.1595 3.68736 21.1595 3.59048C19.4345 3.49361 17.7251 3.50923 16.0033 3.50923C14.2783 3.50923 12.5689 3.49361 10.847 3.59048C8.84702 3.68736 7.07202 4.14361 5.60952 5.60611C4.1439 7.07173 3.69077 8.84361 3.5939 10.8436C3.49702 12.5686 3.51265 14.278 3.51265 15.9999C3.51265 17.7217 3.49702 19.4342 3.5939 21.1561C3.69077 23.1561 4.14702 24.9311 5.60952 26.3936C7.07515 27.8592 8.84702 28.3124 10.847 28.4092C12.572 28.5061 14.2814 28.4905 16.0033 28.4905C17.7283 28.4905 19.4376 28.5061 21.1595 28.4092C23.1595 28.3124 24.9345 27.8561 26.397 26.3936C27.8626 24.928 28.3158 23.1561 28.4126 21.1561C28.5126 19.4342 28.4939 17.7249 28.4939 15.9999ZM25.7439 23.3686C25.5158 23.9374 25.2408 24.3624 24.8001 24.7999C24.3595 25.2405 23.9376 25.5155 23.3689 25.7436C21.7251 26.3967 17.822 26.2499 16.0001 26.2499C14.1783 26.2499 10.272 26.3967 8.62827 25.7467C8.05952 25.5186 7.63452 25.2436 7.19702 24.803C6.7564 24.3624 6.4814 23.9405 6.25327 23.3717C5.60327 21.7249 5.75015 17.8217 5.75015 15.9999C5.75015 14.178 5.60327 10.2717 6.25327 8.62798C6.4814 8.05923 6.7564 7.63423 7.19702 7.19673C7.63765 6.75923 8.05952 6.48111 8.62827 6.25298C10.272 5.60298 14.1783 5.74986 16.0001 5.74986C17.822 5.74986 21.7283 5.60298 23.372 6.25298C23.9408 6.48111 24.3658 6.75611 24.8033 7.19673C25.2439 7.63736 25.5189 8.05923 25.747 8.62798C26.397 10.2717 26.2501 14.178 26.2501 15.9999C26.2501 17.8217 26.397 21.7249 25.7439 23.3686Z" fill="#8CB4BD"/>
</svg>
