<svg xmlns="http://www.w3.org/2000/svg" width="32" height="32" viewBox="0 0 32 32" fill="none">
    <path d="M25.9433 6.21167C25.5201 5.77335 24.9423 5.51793 24.3333 5.5C24.0205 5.5006 23.711 5.56408 23.4233 5.68667L4.0566 14.075C3.8282 14.168 3.63515 14.3311 3.50519 14.5407C3.37523 14.7503 3.31504 14.9957 3.33327 15.2417V16C3.32075 16.2559 3.39279 16.5087 3.53828 16.7196C3.68377 16.9305 3.89461 17.0876 4.13827 17.1667L9.1666 18.8467L10.6833 23.9683C10.7852 24.3274 10.9821 24.6523 11.2531 24.9089C11.5241 25.1656 11.8592 25.3444 12.2233 25.4267C12.3627 25.4439 12.5038 25.4439 12.6433 25.4267C13.1607 25.4249 13.6577 25.2244 14.0316 24.8667L15.8866 23.1167L19.4799 25.9517C19.8249 26.221 20.2386 26.3879 20.6739 26.4333C21.1092 26.4787 21.5485 26.4007 21.9416 26.2083L22.3266 26.01C22.6558 25.8407 22.9417 25.598 23.1622 25.3007C23.3827 25.0033 23.5319 24.6592 23.5983 24.295L26.6666 8.42833C26.7386 8.02785 26.7103 7.61576 26.584 7.22893C26.4578 6.84209 26.2376 6.49258 25.9433 6.21167ZM21.8833 24.015C21.8642 24.1158 21.8229 24.211 21.7624 24.2938C21.7018 24.3765 21.6236 24.4447 21.5333 24.4933L21.1483 24.6917C21.0724 24.7303 20.9884 24.7503 20.9033 24.75C20.779 24.7477 20.6595 24.7023 20.5649 24.6217L16.1783 21.1217C16.0737 21.029 15.9388 20.9778 15.7991 20.9778C15.6594 20.9778 15.5245 21.029 15.4199 21.1217L12.8299 23.56C12.7823 23.5949 12.7256 23.6152 12.6666 23.6183V19.5C12.6668 19.4191 12.6834 19.3392 12.7155 19.2649C12.7476 19.1907 12.7945 19.1238 12.8533 19.0683C16.5749 15.5683 18.8033 13.6083 20.1333 12.4883C20.1756 12.4496 20.2098 12.4028 20.2338 12.3508C20.2578 12.2987 20.2713 12.2423 20.2733 12.185C20.2779 12.1289 20.2699 12.0725 20.2497 12.02C20.2295 11.9674 20.1977 11.9202 20.1566 11.8817C20.0997 11.8102 20.0206 11.7599 19.9317 11.7388C19.8429 11.7176 19.7496 11.7269 19.6666 11.765L10.8466 17.33C10.7682 17.3673 10.6826 17.3867 10.5958 17.3867C10.509 17.3867 10.4233 17.3673 10.3449 17.33L5.08327 15.5333L24.0649 7.29667C24.134 7.28029 24.2059 7.28029 24.2749 7.29667C24.3594 7.29888 24.4424 7.3187 24.5188 7.35486C24.5951 7.39102 24.6631 7.44273 24.7183 7.50667C24.7979 7.59126 24.8563 7.69352 24.8887 7.80506C24.9212 7.9166 24.9267 8.03424 24.9049 8.14833L21.8833 24.015Z" fill="#8CB4BD"/>
</svg>
