<svg width="32" height="32" viewBox="0 0 32 32" fill="none" xmlns="http://www.w3.org/2000/svg">
    <path d="M16.2163 4.54046C10.0044 4.54046 4.97308 9.57614 4.97308 15.788C4.97308 21.9978 10.0066 27.0356 16.2163 27.0356C22.4282 27.0356 27.4596 21.9999 27.4596 15.788C27.4596 9.5783 22.4261 4.54046 16.2163 4.54046ZM16.2163 3.24316C23.1422 3.24316 28.7569 8.86219 28.7569 15.788C28.7569 22.7165 23.1448 28.3329 16.2163 28.3329C9.29048 28.3329 3.67578 22.7139 3.67578 15.788C3.67578 8.8596 9.28789 3.24316 16.2163 3.24316Z" fill="#8CB4BD"/>
    <path d="M28.6306 15.0395C28.3697 15.2528 28.0819 15.4558 27.7671 15.6484C26.7751 16.2627 25.5351 16.7821 24.0473 17.2064C22.9137 17.5279 21.6921 17.7733 20.3824 17.9429C19.0355 18.1173 17.648 18.2045 16.2198 18.2045C13.3502 18.2045 10.7399 17.8719 8.3889 17.2069C6.89644 16.7799 5.65521 16.2598 4.66523 15.6466C4.35215 15.4552 4.0653 15.2528 3.80469 15.0395L4.62631 14.0354C4.84108 14.2113 5.0818 14.3808 5.34847 14.5439C6.2364 15.0937 7.36764 15.5653 8.7422 15.9589C9.81607 16.2624 10.9764 16.4949 12.2233 16.6564C13.5154 16.8236 14.8476 16.9072 16.2198 16.9072C17.5921 16.9072 18.924 16.8236 20.2155 16.6564C21.4621 16.4949 22.6207 16.2624 23.6914 15.9589C25.0636 15.5677 26.1965 15.0953 27.0899 14.5418C27.3542 14.38 27.5939 14.2113 27.809 14.0354L28.6306 15.0395Z" fill="#8CB4BD"/>
    <path d="M16.2179 4.54046C14.4677 4.54046 12.9505 5.59805 11.6661 7.71322C10.3187 9.93304 9.64495 12.6246 9.64495 15.788C9.64495 18.9514 10.3187 21.643 11.6661 23.8628C12.9505 25.978 14.4677 27.0356 16.2179 27.0356C17.9678 27.0356 19.4842 25.978 20.7671 23.8628C22.1134 21.6433 22.7866 18.9517 22.7866 15.788C22.7866 12.6244 22.1134 9.93275 20.7671 7.71322C19.4842 5.59805 17.9678 4.54046 16.2179 4.54046ZM16.2179 3.24316C18.4545 3.24316 20.3406 4.50875 21.8763 7.03992C23.348 9.46644 24.0839 12.3825 24.0839 15.788C24.0839 19.1936 23.348 22.1096 21.8763 24.5361C20.3406 27.0673 18.4545 28.3329 16.2179 28.3329C13.9808 28.3329 12.094 27.0673 10.5574 24.5361C9.08423 22.1093 8.34766 19.1933 8.34766 15.788C8.34766 12.3828 9.08423 9.46673 10.5574 7.03992C12.094 4.50875 13.9808 3.24316 16.2179 3.24316Z" fill="#8CB4BD"/>
    <path d="M16.868 3.89185V28.1081H15.5625V3.89185H16.8676H16.868Z" fill="#8CB4BD"/>
</svg>
