<svg width="32" height="32" viewBox="0 0 32 32" fill="none" xmlns="http://www.w3.org/2000/svg">
    <path d="M16.2163 4.54046C10.0044 4.54046 4.97308 9.57614 4.97308 15.788C4.97308 21.9978 10.0066 27.0356 16.2163 27.0356C22.4282 27.0356 27.4596 21.9999 27.4596 15.788C27.4596 9.5783 22.4261 4.54046 16.2163 4.54046ZM16.2163 3.24316C23.1422 3.24316 28.7569 8.86219 28.7569 15.788C28.7569 22.7165 23.1448 28.3329 16.2163 28.3329C9.29048 28.3329 3.67578 22.7139 3.67578 15.788C3.67578 8.8596 9.28789 3.24316 16.2163 3.24316Z" fill="#CEB864"/>
    <path d="M28.6287 15.0393C28.3678 15.2526 28.0799 15.4556 27.7651 15.6481C26.7731 16.2625 25.5332 16.7818 24.0453 17.2062C22.9118 17.5276 21.6902 17.7731 20.3805 17.9426C19.0336 18.117 17.646 18.2042 16.2179 18.2042C13.3482 18.2042 10.7379 17.8717 8.38695 17.2066C6.89448 16.7797 5.65326 16.2596 4.66327 15.6464C4.35019 15.455 4.06335 15.2526 3.80273 15.0393L4.62436 14.0352C4.83913 14.211 5.07985 14.3805 5.34652 14.5437C6.23445 15.0935 7.36569 15.5651 8.74025 15.9586C9.81412 16.2622 10.9745 16.4947 12.2213 16.6561C13.5134 16.8233 14.8456 16.9069 16.2179 16.9069C17.5901 16.9069 18.922 16.8233 20.2135 16.6561C21.4601 16.4947 22.6187 16.2622 23.6894 15.9586C25.0617 15.5674 26.1945 15.095 27.0879 14.5415C27.3523 14.3798 27.592 14.211 27.8071 14.0352L28.6287 15.0393Z" fill="#CEB864"/>
    <path d="M16.2179 4.54046C14.4677 4.54046 12.9505 5.59805 11.6661 7.71322C10.3187 9.93304 9.64495 12.6246 9.64495 15.788C9.64495 18.9514 10.3187 21.643 11.6661 23.8628C12.9505 25.978 14.4677 27.0356 16.2179 27.0356C17.9678 27.0356 19.4842 25.978 20.7671 23.8628C22.1134 21.6433 22.7866 18.9517 22.7866 15.788C22.7866 12.6244 22.1134 9.93275 20.7671 7.71322C19.4842 5.59805 17.9678 4.54046 16.2179 4.54046ZM16.2179 3.24316C18.4545 3.24316 20.3406 4.50875 21.8763 7.03992C23.348 9.46644 24.0839 12.3825 24.0839 15.788C24.0839 19.1936 23.348 22.1096 21.8763 24.5361C20.3406 27.0673 18.4545 28.3329 16.2179 28.3329C13.9808 28.3329 12.094 27.0673 10.5574 24.5361C9.08423 22.1093 8.34766 19.1933 8.34766 15.788C8.34766 12.3828 9.08423 9.46673 10.5574 7.03992C12.094 4.50875 13.9808 3.24316 16.2179 3.24316Z" fill="#CEB864"/>
    <path d="M16.869 3.8916V28.1078H15.5635V3.8916H16.8686H16.869Z" fill="#CEB864"/>
</svg>
