<svg width="124" height="34" viewBox="0 0 124 34" fill="none" xmlns="http://www.w3.org/2000/svg">
    <path d="M13.4277 28.0127L22.2979 33.1593L22.0653 23.9399C21.8799 16.5872 17.8931 9.85402 11.5435 6.16988C11.8075 6.52451 12.685 8.54453 13.7016 12.3576C14.7183 16.1708 13.9109 24.264 13.4277 28.0127Z" fill="#ADF1D9"/>
    <path d="M3.17185 10.9448L11.9668 16.0478L11.8073 14.3616C11.5654 11.8061 10.9347 9.30213 9.93715 6.93689C9.34447 5.53162 8.31144 4.35792 6.99499 3.59409L3.38595 1.50006L3.17185 10.9448Z" fill="#ADF1D9"/>
    <path d="M42.073 11.024V0.761719L34.4114 5.49927C28.1578 9.36618 24.3516 16.1948 24.3516 23.5474C24.5236 23.1416 25.814 21.3732 28.5669 18.5902C31.3197 15.8072 38.632 12.4735 42.073 11.024Z" fill="#ADF1D9"/>
    <path d="M32.4305 28.6447V18.3096L31.1614 19.2476C29.0717 20.792 27.2313 22.6479 25.7043 24.7504C24.8251 25.961 24.3516 27.4189 24.3516 28.9151V33.2381L32.4305 28.6447Z" fill="#ADF1D9"/>
    <path d="M53.1571 28.8092V12.9777H50.9297V8.14258H60.382V12.9777H58.1546V28.8092H53.1571Z" fill="white"/>
    <path d="M61.0011 28.8092V10.0766L63.0286 8.14258H69.7681L71.7956 10.0766V28.8092H66.7982V21.7914H65.9986V28.8092H61.0011ZM65.9986 16.9563H66.7982V12.9777H65.9986V16.9563Z" fill="white"/>
    <path d="M72.6023 26.8752V8.14258H77.5998V23.9741H78.3994V8.14258H83.3968V26.8752L81.3693 28.8092H74.6299L72.6023 26.8752Z" fill="white"/>
    <path d="M84.2036 28.8092V8.14258H92.9705L94.9981 10.0766V17.3707L92.9705 19.3324V19.4706L94.9981 21.4046V28.8092H90.0006V21.7914H89.201V28.8092H84.2036ZM89.201 16.9563H90.0006V12.9777H89.201V16.9563Z" fill="white"/>
    <path d="M95.8048 28.8092V8.14258H100.802V28.8092H95.8048Z" fill="white"/>
    <path d="M101.605 26.8752V10.0766L103.633 8.14258H110.372L112.4 10.0766V26.8752L110.372 28.8092H103.633L101.605 26.8752ZM106.603 23.9741H107.402V12.9777H106.603V23.9741Z" fill="white"/>
    <path d="M113.207 28.8092V8.14258H118.204V10.9331L119.232 15.7682H119.575L119.004 10.9331V8.14258H124.001V28.8092H119.004V26.0187L117.976 21.1836H117.633L118.204 26.0187V28.8092H113.207Z" fill="white"/>
</svg>
