<svg width="109" height="30" viewBox="0 0 109 30" fill="none" xmlns="http://www.w3.org/2000/svg">
    <path d="M12.1064 24.5676L20.1031 29.2075L19.8934 20.8958C19.7262 14.2672 16.132 8.19707 10.4077 4.87572C10.6457 5.19542 11.4368 7.01653 12.3533 10.4542C13.2699 13.8918 12.5419 21.188 12.1064 24.5676Z" fill="#ADF1D9"/>
    <path d="M2.85846 9.18004L10.7874 13.7806L10.6435 12.2604C10.4255 9.95656 9.85689 7.69914 8.95757 5.56681C8.42325 4.29992 7.49195 3.24179 6.30513 2.55318L3.05148 0.665351L2.85846 9.18004Z" fill="#ADF1D9"/>
    <path d="M37.9286 9.25172V0L31.0214 4.27104C25.3835 7.75717 21.9521 13.9134 21.9521 20.542C22.1073 20.1761 23.2706 18.5818 25.7524 16.0729C28.2341 13.564 34.8263 10.5585 37.9286 9.25172Z" fill="#ADF1D9"/>
    <path d="M29.2355 25.1368V15.8193L28.0914 16.665C26.2075 18.0573 24.5483 19.7304 23.1717 21.6259C22.3791 22.7173 21.9521 24.0316 21.9521 25.3805V29.2779L29.2355 25.1368Z" fill="#ADF1D9"/>
    <path d="M49.304 12.496V21.984H47.128V12.496H44.12V10.352H52.216V12.496H49.304ZM60.2238 16.752C60.0851 16.464 59.9571 16.2027 59.8398 15.968C59.7224 15.7333 59.6051 15.4987 59.4878 15.264C59.3704 15.0187 59.2478 14.7627 59.1198 14.496C58.9918 14.2187 58.8424 13.8933 58.6718 13.52L57.1198 16.752H60.2238ZM56.7038 21.968H54.4638C54.4638 21.7867 54.4638 21.5627 54.4638 21.296C54.4638 21.0293 54.4638 20.6987 54.4638 20.304C54.4744 19.9093 54.4798 19.4453 54.4798 18.912C54.4798 18.3787 54.4798 17.7547 54.4798 17.04C55.0131 15.9627 55.5624 14.8533 56.1278 13.712C56.6931 12.5707 57.2424 11.4507 57.7758 10.352H59.6158C60.1704 11.5147 60.7091 12.64 61.2318 13.728C61.7544 14.8053 62.2878 15.9253 62.8318 17.088V21.984H60.6238V19.04H56.7198L56.7038 21.968ZM73.2811 10.352V20.384L71.6811 22H66.6731L65.0731 20.384V10.352H67.2331V19.488C67.3078 19.5733 67.3611 19.6267 67.3931 19.648C67.4251 19.6693 67.4945 19.7333 67.6011 19.84H70.7531C70.8171 19.776 70.8651 19.728 70.8971 19.696C70.9398 19.664 71.0145 19.5947 71.1211 19.488V10.352H73.2811ZM81.1583 15.008C81.2116 14.9547 81.2703 14.9013 81.3343 14.848C81.3983 14.784 81.4729 14.7093 81.5583 14.624V12.96L81.1583 12.544H77.7343V15.008H81.1583ZM81.4943 17.184L83.7983 19.488V22H81.5903V20.384L78.3743 17.184H77.7343V22H75.5263V10.384H82.1343C82.4116 10.6507 82.6729 10.9227 82.9183 11.2C83.1636 11.4773 83.4356 11.7387 83.7343 11.984V15.536L82.0863 17.184H81.4943ZM86.0419 10.448H88.2019V22.016H86.0419V10.448ZM96.1281 19.84C96.1921 19.776 96.2401 19.728 96.2721 19.696C96.3148 19.664 96.3895 19.5947 96.4961 19.488V12.928L96.0801 12.528H93.0241L92.6081 12.928V19.488L92.9921 19.84H96.1281ZM98.6561 20.384L97.0561 22H92.0481L90.4481 20.384V11.968L92.0481 10.352H97.0561L98.6561 11.968V20.384ZM106.629 10.304H108.837V21.984H106.645V20.64C106.293 20.1387 105.984 19.696 105.717 19.312C105.451 18.928 105.189 18.5547 104.933 18.192C104.677 17.8187 104.405 17.4293 104.117 17.024C103.84 16.608 103.509 16.1227 103.125 15.568V21.984H100.901V10.32H103.109V11.648L106.629 16.688V10.304Z" fill="#ACF0D8"/>
</svg>
