<svg width="42" height="42" viewBox="0 0 42 42" fill="none" xmlns="http://www.w3.org/2000/svg">
    <g filter="url(#filter0_b_466_10125)">
        <circle cx="21" cy="21" r="21" fill="#CEB864" fill-opacity="0.1"/>
    </g>
    <path d="M21.2393 10.3927V20.7607H31.6073V22.1963C31.6073 24.5308 30.9151 26.813 29.6181 28.7541C28.3211 30.6952 26.4776 32.2081 24.3207 33.1015C22.1639 33.9949 19.7906 34.2286 17.5009 33.7732C15.2112 33.3177 13.108 32.1936 11.4572 30.5428C9.80644 28.892 8.68225 26.7888 8.22681 24.4991C7.77136 22.2094 8.00512 19.8361 8.89851 17.6792C9.7919 15.5224 11.3048 13.6789 13.2459 12.3819C15.187 11.0849 17.4691 10.3926 19.8037 10.3927H21.2393ZM18.3681 13.3787L18.0874 13.4281C15.9129 13.8593 13.9763 15.0834 12.6539 16.8626C11.3314 18.6418 10.7175 20.849 10.9315 23.0555C11.1454 25.262 12.1719 27.3102 13.8116 28.8022C15.4512 30.2942 17.5869 31.1234 19.8037 31.1288C21.8751 31.1287 23.8821 30.4089 25.4815 29.0927C27.0809 27.7764 28.1733 25.9453 28.5719 23.9126L28.6197 23.6319H18.3681V13.3787ZM21.3988 8C24.6728 8.00006 27.8183 9.27442 30.1692 11.5532C32.52 13.832 33.8917 16.9364 33.9936 20.2088L34 20.6012H31.1288C31.1289 18.0825 30.1522 15.6619 28.4042 13.8484C26.6562 12.035 24.2731 10.97 21.7561 10.8776L21.3988 10.8712V8H21.3988Z" fill="#CEB864"/>
    <defs>
        <filter id="filter0_b_466_10125" x="-217.9" y="-217.9" width="477.8" height="477.8" filterUnits="userSpaceOnUse" color-interpolation-filters="sRGB">
            <feFlood flood-opacity="0" result="BackgroundImageFix"/>
            <feGaussianBlur in="BackgroundImageFix" stdDeviation="108.95"/>
            <feComposite in2="SourceAlpha" operator="in" result="effect1_backgroundBlur_466_10125"/>
            <feBlend mode="normal" in="SourceGraphic" in2="effect1_backgroundBlur_466_10125" result="shape"/>
        </filter>
    </defs>
</svg>
