<svg width="42" height="42" viewBox="0 0 42 42" fill="none" xmlns="http://www.w3.org/2000/svg">
    <g filter="url(#filter0_b_0_1)">
        <circle cx="21" cy="21" r="21" fill="#CEB864" fill-opacity="0.1"/>
    </g>
    <g clip-path="url(#clip0_0_1)">
        <path d="M26.5923 29.4245L28.3158 32.016C26.1489 33.4583 23.6031 34.2259 21.0001 34.2218C18.6184 34.2254 16.2804 33.583 14.235 32.3629L13.8056 32.0954L15.5012 29.4867C17.1377 30.5502 19.0484 31.1145 21.0001 31.1107C23.0208 31.1107 24.9481 30.5196 26.5923 29.4245ZM9.92449 13.7756L12.5285 15.4758C11.4548 17.1177 10.8849 19.0378 10.889 20.9996C10.889 22.8538 11.3868 24.6318 12.317 26.1827L12.5581 26.5654L9.96185 28.2812C8.53372 26.1215 7.77405 23.5887 7.77785 20.9996C7.77785 18.3987 8.53231 15.9067 9.92452 13.774L9.92449 13.7756ZM32.0912 13.7989C33.4855 15.9414 34.226 18.4434 34.2223 20.9996C34.2223 23.4216 33.569 25.7518 32.3526 27.7818L32.0834 28.2127L29.4778 26.514C30.5476 24.8741 31.1153 22.9576 31.1112 20.9996C31.1145 19.1977 30.6337 17.428 29.719 15.8756L29.4841 15.4961L32.0912 13.8005L32.0912 13.7989ZM21.0001 13.9996C22.8566 13.9996 24.6371 14.7371 25.9498 16.0498C27.2626 17.3626 28.0001 19.1431 28.0001 20.9996C28.0001 22.8561 27.2626 24.6366 25.9498 25.9493C24.6371 27.2621 22.8566 27.9996 21.0001 27.9996C19.1436 27.9996 17.3631 27.2621 16.0503 25.9493C14.7376 24.6366 14.0001 22.8561 14.0001 20.9996C14.0001 19.1431 14.7376 17.3626 16.0503 16.0498C17.3631 14.7371 19.1436 13.9996 21.0001 13.9996ZM21.0001 17.1107C19.9687 17.1107 18.9795 17.5204 18.2502 18.2497C17.5209 18.979 17.1112 19.9682 17.1112 20.9996C17.1112 22.031 17.5209 23.0201 18.2502 23.7494C18.9795 24.4788 19.9687 24.8885 21.0001 24.8885C22.0315 24.8885 23.0206 24.4788 23.7499 23.7494C24.4792 23.0201 24.889 22.031 24.889 20.9996C24.889 19.9682 24.4792 18.979 23.7499 18.2497C23.0206 17.5204 22.0315 17.1107 21.0001 17.1107ZM21.0001 7.77736C23.4718 7.77736 25.8441 8.45871 27.9021 9.72027L28.3376 10.0003L26.611 12.5856C24.9507 11.4752 22.9974 10.8844 21.0001 10.8885C19.1902 10.8853 17.413 11.3705 15.8558 12.2931L15.4748 12.5296L13.773 9.92559C15.9211 8.52031 18.4331 7.77361 21.0001 7.77736Z" fill="#CEB864"/>
    </g>
    <defs>
        <filter id="filter0_b_0_1" x="-217.9" y="-217.9" width="477.8" height="477.8" filterUnits="userSpaceOnUse" color-interpolation-filters="sRGB">
            <feFlood flood-opacity="0" result="BackgroundImageFix"/>
            <feGaussianBlur in="BackgroundImageFix" stdDeviation="108.95"/>
            <feComposite in2="SourceAlpha" operator="in" result="effect1_backgroundBlur_0_1"/>
            <feBlend mode="normal" in="SourceGraphic" in2="effect1_backgroundBlur_0_1" result="shape"/>
        </filter>
        <clipPath id="clip0_0_1">
            <rect width="28" height="28" fill="white" transform="translate(7 7)"/>
        </clipPath>
    </defs>
</svg>
