<svg xmlns="http://www.w3.org/2000/svg" width="16" height="16" viewBox="0 0 16 16" fill="none">
    <path d="M9.12407 10.9751L12.7928 5.99832C12.9727 5.75563 13.049 5.45154 13.0051 5.15268C12.9612 4.85381 12.8007 4.58452 12.5586 4.40381L12.5177 4.3756C12.3129 4.23373 12.0697 4.1579 11.8206 4.15828H4.4831C4.32799 4.15586 4.17393 4.18401 4.02971 4.24113C3.88548 4.29825 3.75393 4.38322 3.64255 4.4912C3.53117 4.59917 3.44215 4.72802 3.38058 4.8704C3.319 5.01278 3.28608 5.1659 3.28369 5.321C3.28358 5.56482 3.36173 5.80224 3.50664 5.99832L7.17539 10.9751C7.3669 11.2245 7.64681 11.3909 7.9574 11.44C8.26799 11.4891 8.58558 11.4172 8.84468 11.239C8.95125 11.1664 9.04556 11.0774 9.12407 10.9751Z" fill="#F44653"/>
</svg>
