<svg xmlns="http://www.w3.org/2000/svg" width="16" height="16" viewBox="0 0 16 16" fill="none">
    <path d="M9.12407 4.63817L12.7928 9.61497C12.9727 9.85765 13.049 10.1617 13.0051 10.4606C12.9612 10.7595 12.8007 11.0288 12.5586 11.2095L12.5177 11.2377C12.3129 11.3796 12.0697 11.4554 11.8206 11.455H4.4831C4.32799 11.4574 4.17393 11.4293 4.02971 11.3722C3.88548 11.315 3.75393 11.2301 3.64255 11.1221C3.53117 11.0141 3.44215 10.8853 3.38058 10.7429C3.319 10.6005 3.28608 10.4474 3.28369 10.2923C3.28358 10.0485 3.36173 9.81105 3.50664 9.61497L7.17539 4.63817C7.3669 4.38877 7.64681 4.22236 7.9574 4.17326C8.26799 4.12417 8.58558 4.19612 8.84468 4.37429C8.95125 4.44684 9.04556 4.53591 9.12407 4.63817Z" fill="#42C525"/>
</svg>
