<svg width="48" height="48" viewBox="0 0 48 48" fill="none" xmlns="http://www.w3.org/2000/svg">
    <rect width="48" height="48" fill="#8AADBC1A"/>
    <path transform="translate(10, 10)" d="M25.375 10.5H28V21H25.375V10.5ZM15.75 14C15.75 14.4641 15.9344 14.9092 16.2626 15.2374C16.5908 15.5656 17.0359 15.75 17.5 15.75C17.9641 15.75 18.4092 15.5656 18.7374 15.2374C19.0656 14.9092 19.25 14.4641 19.25 14C19.25 13.5359 19.0656 13.0908 18.7374 12.7626C18.4092 12.4344 17.9641 12.25 17.5 12.25C17.0359 12.25 16.5908 12.4344 16.2626 12.7626C15.9344 13.0908 15.75 13.5359 15.75 14ZM0 10.5H2.625V21H0V10.5ZM10.5 17.85H17.5V20.475H10.5V17.85ZM15.4 1.75H12.6V5.6H3.85V25.9H24.15V5.6H15.4V1.75ZM21.35 8.4V23.1H6.65V8.4H21.35ZM8.75 14C8.75 14.4641 8.93437 14.9092 9.26256 15.2374C9.59075 15.5656 10.0359 15.75 10.5 15.75C10.9641 15.75 11.4092 15.5656 11.7374 15.2374C12.0656 14.9092 12.25 14.4641 12.25 14C12.25 13.5359 12.0656 13.0908 11.7374 12.7626C11.4092 12.4344 10.9641 12.25 10.5 12.25C10.0359 12.25 9.59075 12.4344 9.26256 12.7626C8.93437 13.0908 8.75 13.5359 8.75 14Z" fill="#8CB4BD" fill-opacity="0.7"/>
</svg>
