<svg width="99" height="34" viewBox="0 0 99 34" fill="none" xmlns="http://www.w3.org/2000/svg">
    <rect width="34" height="34" rx="8" fill="black"/>
    <path d="M18.7659 15.5809L25.671 7.72729H24.0353L18.0371 14.5451L13.2499 7.72729H7.72705L14.9678 18.038L7.72705 26.2727H9.36276L15.6929 19.0714L20.7497 26.2727H26.2725M9.95312 8.93422H12.466L24.0341 25.1251H21.5205" fill="white"/>
    <path d="M45.78 16.45L42.24 11.38H44.625L47.13 15.31L49.605 11.38H51.9L48.42 16.45L52.275 22H49.875L47.07 17.515L44.28 22H42L45.78 16.45ZM63.097 13.66C62.897 13.37 62.627 13.16 62.287 13.03C61.957 12.89 61.607 12.82 61.237 12.82C61.017 12.82 60.802 12.845 60.592 12.895C60.392 12.945 60.207 13.025 60.037 13.135C59.877 13.245 59.747 13.39 59.647 13.57C59.547 13.74 59.497 13.945 59.497 14.185C59.497 14.545 59.622 14.82 59.872 15.01C60.122 15.2 60.432 15.365 60.802 15.505C61.172 15.645 61.577 15.78 62.017 15.91C62.457 16.04 62.862 16.22 63.232 16.45C63.602 16.68 63.912 16.985 64.162 17.365C64.412 17.745 64.537 18.25 64.537 18.88C64.537 19.45 64.432 19.95 64.222 20.38C64.012 20.8 63.727 21.15 63.367 21.43C63.017 21.71 62.607 21.92 62.137 22.06C61.667 22.2 61.172 22.27 60.652 22.27C59.992 22.27 59.357 22.16 58.747 21.94C58.137 21.72 57.612 21.35 57.172 20.83L58.597 19.45C58.827 19.8 59.127 20.075 59.497 20.275C59.877 20.465 60.277 20.56 60.697 20.56C60.917 20.56 61.137 20.53 61.357 20.47C61.577 20.41 61.777 20.32 61.957 20.2C62.137 20.08 62.282 19.93 62.392 19.75C62.502 19.56 62.557 19.345 62.557 19.105C62.557 18.715 62.432 18.415 62.182 18.205C61.932 17.995 61.622 17.82 61.252 17.68C60.882 17.53 60.477 17.39 60.037 17.26C59.597 17.13 59.192 16.955 58.822 16.735C58.452 16.505 58.142 16.205 57.892 15.835C57.642 15.455 57.517 14.95 57.517 14.32C57.517 13.77 57.627 13.295 57.847 12.895C58.077 12.495 58.372 12.165 58.732 11.905C59.102 11.635 59.522 11.435 59.992 11.305C60.462 11.175 60.942 11.11 61.432 11.11C61.992 11.11 62.532 11.195 63.052 11.365C63.582 11.535 64.057 11.815 64.477 12.205L63.097 13.66ZM66.3403 14.8H68.0503V15.88H68.0803C68.3403 15.44 68.6903 15.12 69.1303 14.92C69.5703 14.72 70.0453 14.62 70.5553 14.62C71.1053 14.62 71.6003 14.72 72.0403 14.92C72.4803 15.11 72.8553 15.375 73.1653 15.715C73.4753 16.055 73.7103 16.455 73.8703 16.915C74.0303 17.375 74.1103 17.87 74.1103 18.4C74.1103 18.93 74.0253 19.425 73.8553 19.885C73.6853 20.345 73.4453 20.745 73.1353 21.085C72.8353 21.425 72.4703 21.695 72.0403 21.895C71.6103 22.085 71.1403 22.18 70.6303 22.18C70.2903 22.18 69.9903 22.145 69.7303 22.075C69.4703 22.005 69.2403 21.915 69.0403 21.805C68.8403 21.695 68.6703 21.58 68.5303 21.46C68.3903 21.33 68.2753 21.205 68.1853 21.085H68.1403V25.42H66.3403V14.8ZM72.3103 18.4C72.3103 18.12 72.2603 17.85 72.1603 17.59C72.0703 17.33 71.9303 17.1 71.7403 16.9C71.5603 16.7 71.3403 16.54 71.0803 16.42C70.8203 16.3 70.5253 16.24 70.1953 16.24C69.8653 16.24 69.5703 16.3 69.3103 16.42C69.0503 16.54 68.8253 16.7 68.6353 16.9C68.4553 17.1 68.3153 17.33 68.2153 17.59C68.1253 17.85 68.0803 18.12 68.0803 18.4C68.0803 18.68 68.1253 18.95 68.2153 19.21C68.3153 19.47 68.4553 19.7 68.6353 19.9C68.8253 20.1 69.0503 20.26 69.3103 20.38C69.5703 20.5 69.8653 20.56 70.1953 20.56C70.5253 20.56 70.8203 20.5 71.0803 20.38C71.3403 20.26 71.5603 20.1 71.7403 19.9C71.9303 19.7 72.0703 19.47 72.1603 19.21C72.2603 18.95 72.3103 18.68 72.3103 18.4ZM80.2886 21.01H80.2436C79.9836 21.42 79.6536 21.72 79.2536 21.91C78.8536 22.09 78.4136 22.18 77.9336 22.18C77.6036 22.18 77.2786 22.135 76.9586 22.045C76.6486 21.955 76.3686 21.82 76.1186 21.64C75.8786 21.46 75.6836 21.235 75.5336 20.965C75.3836 20.695 75.3086 20.38 75.3086 20.02C75.3086 19.63 75.3786 19.3 75.5186 19.03C75.6586 18.75 75.8436 18.52 76.0736 18.34C76.3136 18.15 76.5886 18 76.8986 17.89C77.2086 17.78 77.5286 17.7 77.8586 17.65C78.1986 17.59 78.5386 17.555 78.8786 17.545C79.2186 17.525 79.5386 17.515 79.8386 17.515H80.2886V17.32C80.2886 16.87 80.1336 16.535 79.8236 16.315C79.5136 16.085 79.1186 15.97 78.6386 15.97C78.2586 15.97 77.9036 16.04 77.5736 16.18C77.2436 16.31 76.9586 16.49 76.7186 16.72L75.7736 15.775C76.1736 15.365 76.6386 15.07 77.1686 14.89C77.7086 14.71 78.2636 14.62 78.8336 14.62C79.3436 14.62 79.7736 14.68 80.1236 14.8C80.4736 14.91 80.7636 15.055 80.9936 15.235C81.2236 15.415 81.3986 15.625 81.5186 15.865C81.6486 16.095 81.7386 16.33 81.7886 16.57C81.8486 16.81 81.8836 17.045 81.8936 17.275C81.9036 17.495 81.9086 17.69 81.9086 17.86V22H80.2886V21.01ZM80.1836 18.775H79.8086C79.5586 18.775 79.2786 18.785 78.9686 18.805C78.6586 18.825 78.3636 18.875 78.0836 18.955C77.8136 19.025 77.5836 19.135 77.3936 19.285C77.2036 19.425 77.1086 19.625 77.1086 19.885C77.1086 20.055 77.1436 20.2 77.2136 20.32C77.2936 20.43 77.3936 20.525 77.5136 20.605C77.6336 20.685 77.7686 20.745 77.9186 20.785C78.0686 20.815 78.2186 20.83 78.3686 20.83C78.9886 20.83 79.4436 20.685 79.7336 20.395C80.0336 20.095 80.1836 19.69 80.1836 19.18V18.775ZM88.7652 16.96C88.5552 16.74 88.3352 16.565 88.1052 16.435C87.8752 16.305 87.6402 16.24 87.4002 16.24C87.0702 16.24 86.7752 16.3 86.5152 16.42C86.2552 16.54 86.0302 16.7 85.8402 16.9C85.6602 17.1 85.5202 17.33 85.4202 17.59C85.3302 17.85 85.2852 18.12 85.2852 18.4C85.2852 18.68 85.3302 18.95 85.4202 19.21C85.5202 19.47 85.6602 19.7 85.8402 19.9C86.0302 20.1 86.2552 20.26 86.5152 20.38C86.7752 20.5 87.0702 20.56 87.4002 20.56C87.6802 20.56 87.9402 20.505 88.1802 20.395C88.4202 20.275 88.6252 20.105 88.7952 19.885L89.9952 21.175C89.8152 21.355 89.6052 21.51 89.3652 21.64C89.1352 21.77 88.9002 21.875 88.6602 21.955C88.4202 22.035 88.1902 22.09 87.9702 22.12C87.7502 22.16 87.5602 22.18 87.4002 22.18C86.8602 22.18 86.3502 22.09 85.8702 21.91C85.3902 21.73 84.9752 21.475 84.6252 21.145C84.2752 20.815 83.9952 20.42 83.7852 19.96C83.5852 19.49 83.4852 18.97 83.4852 18.4C83.4852 17.83 83.5852 17.315 83.7852 16.855C83.9952 16.385 84.2752 15.985 84.6252 15.655C84.9752 15.325 85.3902 15.07 85.8702 14.89C86.3502 14.71 86.8602 14.62 87.4002 14.62C87.8602 14.62 88.3202 14.71 88.7802 14.89C89.2502 15.06 89.6602 15.335 90.0102 15.715L88.7652 16.96ZM92.5215 19.03C92.5815 19.57 92.7915 19.99 93.1515 20.29C93.5115 20.59 93.9465 20.74 94.4565 20.74C94.9065 20.74 95.2815 20.65 95.5815 20.47C95.8915 20.28 96.1615 20.045 96.3915 19.765L97.6815 20.74C97.2615 21.26 96.7915 21.63 96.2715 21.85C95.7515 22.07 95.2065 22.18 94.6365 22.18C94.0965 22.18 93.5865 22.09 93.1065 21.91C92.6265 21.73 92.2115 21.475 91.8615 21.145C91.5115 20.815 91.2315 20.42 91.0215 19.96C90.8215 19.49 90.7215 18.97 90.7215 18.4C90.7215 17.83 90.8215 17.315 91.0215 16.855C91.2315 16.385 91.5115 15.985 91.8615 15.655C92.2115 15.325 92.6265 15.07 93.1065 14.89C93.5865 14.71 94.0965 14.62 94.6365 14.62C95.1365 14.62 95.5915 14.71 96.0015 14.89C96.4215 15.06 96.7765 15.31 97.0665 15.64C97.3665 15.97 97.5965 16.38 97.7565 16.87C97.9265 17.35 98.0115 17.905 98.0115 18.535V19.03H92.5215ZM96.2115 17.68C96.2015 17.15 96.0365 16.735 95.7165 16.435C95.3965 16.125 94.9515 15.97 94.3815 15.97C93.8415 15.97 93.4115 16.125 93.0915 16.435C92.7815 16.745 92.5915 17.16 92.5215 17.68H96.2115Z" fill="white"/>
</svg>
