<svg width="48" height="48" viewBox="0 0 48 48" fill="none" xmlns="http://www.w3.org/2000/svg">
    <mask id="mask0_673_9538" style="mask-type:alpha" maskUnits="userSpaceOnUse" x="0" y="0" width="48" height="48">
        <rect width="48" height="48" rx="24" fill="#8AADBC" fill-opacity=""/>
    </mask>
    <g mask="url(#mask0_673_9538)">
        <g filter="url(#filter0_b_673_9538)">
            <rect width="48" height="48" rx="24" fill="#192634"/>
        </g>
        <path fill-rule="evenodd" clip-rule="evenodd" d="M16.6131 15.323L13.7781 21.0841C13.4235 20.859 12.9028 20.6306 12.3023 20.3672C10.6839 19.6575 8.48596 18.6934 7.39618 16.8529C5.90205 14.3295 5.61977 12.6707 6.04513 9.99414C6.17184 10.2103 6.2918 10.4185 6.40735 10.6191C8.14114 13.6292 8.88342 14.9179 16.6131 15.323ZM34.0923 21.0841L31.2574 15.323C38.9871 14.9179 39.7293 13.6292 41.4631 10.6191C41.5787 10.4185 41.6986 10.2103 41.8254 9.99414C42.2507 12.6707 41.9684 14.3295 40.4743 16.8529C39.3845 18.6934 37.1866 19.6575 35.5682 20.3672C34.9677 20.6306 34.447 20.859 34.0923 21.0841ZM17.9196 15.5371L15.0742 21.2279H18.8362C20.3371 21.2279 21.5203 22.5056 21.4052 24.0021C21.0495 23.6227 20.0963 22.9778 19.1289 23.433C17.9196 24.0021 17.7062 24.7846 17.7062 25.6382C19.1289 25.6382 19.698 25.7094 20.3382 26.3496C20.9784 26.9898 21.4052 27.7011 21.4052 28.1279V30.5465H23.9659H24.0372H26.5979V28.1279C26.5979 27.7011 27.0247 26.9898 27.6649 26.3496C28.3051 25.7094 28.8742 25.6382 30.2969 25.6382C30.2969 24.7846 30.0835 24.0021 28.8742 23.433C27.9068 22.9778 26.9536 23.6227 26.5979 24.0021C26.4828 22.5056 27.666 21.2279 29.1669 21.2279H32.9289L30.0835 15.5371H24.0372H23.9659H17.9196ZM20.2674 31.4708V28.412C18.3031 28.412 16.7107 30.0044 16.7107 31.9688V35.0276H19.7695C21.7338 35.0276 23.3262 33.4352 23.3262 31.4708H20.2674ZM27.8779 28.412V31.4708H24.8191C24.8191 33.4352 26.4115 35.0276 28.3759 35.0276H31.4347V31.9688C31.4347 30.0044 29.8423 28.412 27.8779 28.412ZM23.6102 36.0249H23.9661H24.037H24.3929C27.1037 36.0249 29.3012 38.2224 29.3012 40.9332L26.2424 39.3682L24.037 41.9181V42.0002L24.0016 41.9592L23.9661 42.0002V41.9181L21.7607 39.3682L18.7019 40.9332C18.7019 38.2224 20.8995 36.0249 23.6102 36.0249Z" fill="url(#paint0_linear_673_9538)"/>
    </g>
    <defs>
        <filter id="filter0_b_673_9538" x="-217.9" y="-217.9" width="483.8" height="483.8" filterUnits="userSpaceOnUse" color-interpolation-filters="sRGB">
            <feFlood flood-opacity="0" result="BackgroundImageFix"/>
            <feGaussianBlur in="BackgroundImageFix" stdDeviation="108.95"/>
            <feComposite in2="SourceAlpha" operator="in" result="effect1_backgroundBlur_673_9538"/>
            <feBlend mode="normal" in="SourceGraphic" in2="effect1_backgroundBlur_673_9538" result="shape"/>
        </filter>
        <linearGradient id="paint0_linear_673_9538" x1="29" y1="13" x2="29.6168" y2="41.9999" gradientUnits="userSpaceOnUse">
            <stop stop-color="#B8E5E3"/>
            <stop offset="0.392277" stop-color="#F8DCE7"/>
            <stop offset="0.7105" stop-color="#D8B0FB"/>
            <stop offset="1" stop-color="#AAAFF3"/>
        </linearGradient>
    </defs>
</svg>
