<svg width="29" height="28" viewBox="0 0 29 28" fill="none" xmlns="http://www.w3.org/2000/svg">
<g id="&#233;&#130;&#174;&#228;&#187;&#182;&#229;&#155;&#190; 1">
<path id="Vector" d="M10.5927 12.702L2.58916 6.16138C2.44697 6.0438 2.23096 6.14497 2.23096 6.33091V21.061C2.23096 21.0911 2.23096 21.1184 2.23369 21.1485C2.24463 21.3399 2.47705 21.4274 2.6083 21.2879L10.6091 13.0247C10.6993 12.9317 10.6911 12.784 10.5927 12.702ZM3.4833 4.86802L14.3579 13.5825C14.4372 13.6454 14.5521 13.6454 14.6313 13.5825L25.506 4.86802C25.6673 4.7395 25.5771 4.47974 25.3692 4.47974H3.62002C3.41494 4.47974 3.32197 4.7395 3.4833 4.86802ZM17.1196 13.9379C17.0403 13.8532 16.9063 13.8477 16.8188 13.9243L14.6368 15.7918C14.5548 15.8602 14.4372 15.8629 14.3552 15.7946L12.1103 13.9325C12.0228 13.8586 11.8942 13.8668 11.8149 13.9489L3.45049 22.5102C3.3165 22.6497 3.41221 22.8821 3.60635 22.8821H25.1669C25.3583 22.8821 25.4567 22.6524 25.3255 22.5129L17.1196 13.9379ZM26.761 6.36646C26.761 6.18325 26.5478 6.07935 26.4056 6.19692L18.4294 12.6774C18.331 12.7594 18.32 12.9071 18.4103 13L26.3837 21.2907C26.5177 21.4274 26.7501 21.3426 26.761 21.1512C26.7638 21.1239 26.7638 21.0938 26.7638 21.0665L26.761 6.36646Z" fill="#8CB4BD"/>
</g>
</svg>
