<svg width="29" height="28" viewBox="0 0 29 28" fill="none" xmlns="http://www.w3.org/2000/svg">
<g id="Google">
<rect id="&#231;&#159;&#169;&#229;&#189;&#162; 709" x="0.3125" width="28" height="28" fill="#D8D8D8" fill-opacity="0.01"/>
<path id="&#232;&#183;&#175;&#229;&#190;&#132;" d="M23.3313 12.2517H14.4995V15.9686H19.5449C19.3273 17.17 18.6673 18.1862 17.6724 18.867C16.8315 19.4427 15.7584 19.7831 14.4971 19.7831C12.055 19.7831 9.98947 18.0936 9.25125 15.8234C9.06547 15.2477 8.95791 14.632 8.95791 13.9988C8.95791 13.3655 9.06547 12.7498 9.25125 12.1741C9.99192 9.90642 12.0575 8.21692 14.4995 8.21692C15.8757 8.21692 17.1102 8.70249 18.0831 9.65362L20.772 6.89786C19.1464 5.34602 17.0271 4.3949 14.4995 4.3949C10.8353 4.3949 7.66479 6.54744 6.12234 9.68616C5.48678 10.9827 5.125 12.4494 5.125 14.0013C5.125 15.5531 5.48678 17.0173 6.12234 18.3139C7.66479 21.4526 10.8353 23.6051 14.4995 23.6051C17.032 23.6051 19.1538 22.7441 20.7035 21.2774C22.4758 19.6054 23.5 17.1425 23.5 14.2165C23.5 13.5357 23.4413 12.8824 23.3313 12.2517Z" fill="#8CB4BD"/>
</g>
</svg>
