<svg width="56" height="56" viewBox="0 0 56 56" fill="none" xmlns="http://www.w3.org/2000/svg">
<path d="M28.4785 6.78531V27.5214H49.2146V30.3926C49.2147 35.0617 47.8301 39.6259 45.2361 43.5081C42.6421 47.3904 38.9552 50.4162 34.6415 52.203C30.3278 53.9898 25.5812 54.4573 21.0018 53.5464C16.4224 52.6355 12.216 50.3871 8.91443 47.0856C5.61289 43.784 3.36451 39.5776 2.45362 34.9982C1.54272 30.4188 2.01023 25.6722 3.79702 21.3585C5.58381 17.0448 8.60963 13.3578 12.4918 10.7638C16.3741 8.16983 20.9383 6.7853 25.6074 6.78531H28.4785ZM22.7362 12.7573L22.1747 12.8562C17.8257 13.7186 13.9526 16.1668 11.3077 19.7252C8.66283 23.2836 7.43508 27.6981 7.86298 32.111C8.29088 36.524 10.3439 40.6204 13.6231 43.6044C16.9024 46.5883 21.1737 48.2468 25.6074 48.2576C29.7502 48.2574 33.7642 46.8179 36.963 44.1853C40.1617 41.5527 42.3466 37.8906 43.1438 33.8253L43.2394 33.2638H22.7362V12.7573ZM28.7975 2C35.3456 2.00012 41.6366 4.54884 46.3383 9.10645C51.0401 13.6641 53.7833 19.8727 53.9872 26.4177L54 27.2025H48.2577C48.2578 22.165 46.3044 17.3237 42.8084 13.6968C39.3125 10.07 34.5462 7.94008 29.5122 7.75511L28.7976 7.74232V2H28.7975Z" fill="#8AC3B0"/>
</svg>
