<svg width="56" height="56" viewBox="0 0 56 56" fill="none" xmlns="http://www.w3.org/2000/svg">
<g clip-path="url(#clip0_663_9856)">
<rect width="56" height="56" fill="#01050B"/>
<path d="M15.2168 44.9669L27.2495 51.9485L26.934 39.442C26.6824 29.4679 21.2742 20.334 12.6607 15.3364C13.0189 15.8174 14.2092 18.5577 15.5883 23.7303C16.9675 28.9029 15.8722 39.8817 15.2168 44.9669Z" fill="#8AC3B0"/>
<path d="M1.30146 21.813L13.2322 28.7355L13.0157 26.4481C12.6876 22.9815 11.8321 19.5847 10.4788 16.3762C9.67485 14.4699 8.27351 12.8777 6.48769 11.8415L1.59191 9.00092L1.30146 21.813Z" fill="#8AC3B0"/>
<path d="M54.0716 21.9211V8L43.6783 14.4267C35.195 19.6723 30.0317 28.9356 30.0317 38.9097C30.2651 38.3591 32.0156 35.9603 35.7499 32.185C39.4843 28.4098 49.4036 23.8874 54.0716 21.9211Z" fill="#8AC3B0"/>
<path d="M40.9911 45.8247V31.8047L39.2695 33.0771C36.4348 35.1722 33.9382 37.6897 31.8668 40.5419C30.6741 42.1841 30.0317 44.1618 30.0317 46.1915V52.0558L40.9911 45.8247Z" fill="#8AC3B0"/>
</g>
<defs>
<clipPath id="clip0_663_9856">
<rect width="56" height="56" fill="white"/>
</clipPath>
</defs>
</svg>
