<svg width="58" height="45" viewBox="0 0 58 45" fill="none" xmlns="http://www.w3.org/2000/svg">
<g id="Group 52">
<path id="Vector 12" d="M18.2168 36.9669L30.2495 43.9485L29.934 31.442C29.6824 21.4679 24.2742 12.334 15.6607 7.33636C16.0189 7.81743 17.2092 10.5577 18.5883 15.7303C19.9675 20.9029 18.8722 31.8817 18.2168 36.9669Z" fill="#8AC3B0"/>
<path id="Vector 14" d="M4.30146 13.813L16.2322 20.7355L16.0157 18.4481C15.6876 14.9815 14.8321 11.5847 13.4788 8.37619C12.6749 6.46988 11.2735 4.87771 9.48769 3.84155L4.59191 1.00092L4.30146 13.813Z" fill="#8AC3B0"/>
<path id="Vector 20" d="M57.0716 13.9211V0L46.6783 6.42666C38.195 11.6723 33.0317 20.9356 33.0317 30.9097C33.2651 30.3591 35.0156 27.9603 38.7499 24.185C42.4843 20.4098 52.4036 15.8874 57.0716 13.9211Z" fill="#8AC3B0"/>
<path id="Vector 21" d="M43.9911 37.8247V23.8047L42.2695 25.0771C39.4348 27.1722 36.9382 29.6897 34.8668 32.5419C33.6741 34.1841 33.0317 36.1618 33.0317 38.1915V44.0558L43.9911 37.8247Z" fill="#8AC3B0"/>
</g>
</svg>
