<svg width="56" height="56" viewBox="0 0 56 56" fill="none" xmlns="http://www.w3.org/2000/svg">
<g id="5" clip-path="url(#clip0_663_9871)">
<rect id="Rectangle 179806" width="56" height="56" fill="#01050B"/>
<path id="Vector" d="M39.1846 44.8489L42.6317 50.0321C38.2978 52.9166 33.2062 54.4518 28.0002 54.4437C23.2369 54.4508 18.5608 53.1659 14.4699 50.7258L13.6113 50.1907L17.0024 44.9734C20.2754 47.1005 24.0967 48.229 28.0002 48.2214C32.0415 48.2214 35.8962 47.0392 39.1846 44.8489ZM5.84899 13.5512L11.057 16.9517C8.90969 20.2354 7.76989 24.0757 7.77798 27.9992C7.77798 31.7077 8.77351 35.2637 10.6339 38.3654L11.1162 39.1307L5.92369 42.5623C3.06745 38.243 1.54811 33.1774 1.55569 27.9992C1.55569 22.7974 3.06463 17.8134 5.84904 13.5481L5.84899 13.5512ZM50.1823 13.5978C52.971 17.8827 54.452 22.8868 54.4446 27.9992C54.4446 32.8432 53.1379 37.5037 50.7051 41.5637L50.1668 42.4254L44.9557 39.0281C47.0952 35.7482 48.2305 31.9151 48.2224 27.9992C48.2291 24.3954 47.2674 20.856 45.4379 17.7512L44.9682 16.9921L50.1824 13.601L50.1823 13.5978ZM28.0002 13.9992C31.7132 13.9992 35.2742 15.4742 37.8997 18.0997C40.5252 20.7252 42.0002 24.2862 42.0002 27.9992C42.0002 31.7122 40.5252 35.2732 37.8997 37.8987C35.2742 40.5242 31.7132 41.9992 28.0002 41.9992C24.2871 41.9992 20.7262 40.5242 18.1007 37.8987C15.4752 35.2732 14.0002 31.7122 14.0002 27.9992C14.0002 24.2862 15.4752 20.7252 18.1007 18.0997C20.7262 15.4742 24.2871 13.9992 28.0002 13.9992ZM28.0002 20.2214C25.9374 20.2214 23.9591 21.0409 22.5005 22.4995C21.0418 23.9581 20.2224 25.9364 20.2224 27.9992C20.2224 30.062 21.0418 32.0403 22.5005 33.4989C23.9591 34.9575 25.9374 35.777 28.0002 35.777C30.063 35.777 32.0413 34.9575 33.4999 33.4989C34.9585 32.0403 35.7779 30.062 35.7779 27.9992C35.7779 25.9364 34.9585 23.9581 33.4999 22.4995C32.0413 21.0409 30.063 20.2214 28.0002 20.2214ZM28.0002 1.55472C32.9437 1.55472 37.6882 2.91742 41.8042 5.44054L42.6753 6.00054L39.2219 11.1712C35.9015 8.95034 31.9948 7.76871 28.0002 7.77695C24.3804 7.77051 20.8259 8.74107 17.7117 10.5862L16.9495 11.0592L13.5459 5.85118C17.8422 3.04062 22.8663 1.54722 28.0002 1.55472Z" fill="#8AC3B0"/>
</g>
<defs>
<clipPath id="clip0_663_9871">
<rect width="56" height="56" fill="white"/>
</clipPath>
</defs>
</svg>
