<svg width="20" height="20" viewBox="0 0 20 20" fill="none" xmlns="http://www.w3.org/2000/svg">
<g id="&#231;&#156;&#188;&#231;&#157;&#155;&#229;&#155;&#190; 1">
<path id="Vector" d="M9.99885 4.09094C13.4098 4.09094 16.5607 6.60867 18.9443 9.77322C19.0276 9.88837 19.0776 10.0243 19.0886 10.166C19.0997 10.3077 19.0715 10.4497 19.007 10.5764L18.942 10.6819L18.8575 10.7932C16.4648 13.9205 13.3411 16.3637 10.0002 16.3637C6.59431 16.3637 3.45431 13.8537 1.05703 10.6805C0.973162 10.5654 0.922815 10.4294 0.911582 10.2874C0.900348 10.1455 0.928668 10.0032 0.993397 9.8764L1.05885 9.77049L1.14522 9.65958C3.63885 6.45912 6.65976 4.09094 9.9984 4.09094H9.99885ZM10.0016 5.55322C7.38158 5.55322 4.81885 7.41458 2.66294 10.0069L2.48521 10.2232L2.66476 10.4437C4.75476 12.9591 7.1743 14.7573 9.70612 14.8873L9.99885 14.895C12.6157 14.895 15.1566 13.0514 17.3443 10.4428L17.5248 10.2232L17.3443 10.005C15.2379 7.49367 12.8048 5.69094 10.2916 5.56049L10.0016 5.55322ZM9.97112 7.16776C10.6484 7.1717 11.2997 7.42923 11.7966 7.88958L11.9584 8.05094L12.1066 8.22231C12.5433 8.77671 12.7797 9.46247 12.7775 10.1682C12.7775 11.8246 11.522 13.1691 9.97067 13.1691C8.42158 13.1691 7.16612 11.8246 7.16612 10.1682C7.16612 8.57822 8.32203 7.27594 9.78612 7.17412L9.97112 7.16776ZM9.07749 8.96367L8.96385 9.07412L8.86294 9.19458C8.71441 9.39238 8.61297 9.62146 8.56634 9.86438C8.51971 10.1073 8.52912 10.3577 8.59385 10.5964L8.64567 10.7541L8.70976 10.8991C8.93476 11.3459 9.34931 11.6428 9.8143 11.6978L9.97067 11.7069L9.98203 11.7187L10.1329 11.71C10.4039 11.6759 10.6587 11.562 10.8648 11.3828L10.9857 11.2659C11.2598 10.9667 11.4093 10.574 11.4034 10.1682C11.4034 9.54549 11.0529 8.98276 10.5179 8.7464C10.282 8.64181 10.0211 8.6067 9.76584 8.64518C9.51062 8.68367 9.27167 8.79415 9.07703 8.96367H9.07749Z" fill="#8CB4BD" fill-opacity="0.4"/>
</g>
</svg>
