<svg width="982" height="302" viewBox="0 0 982 302" fill="none" xmlns="http://www.w3.org/2000/svg">
    <g clip-path="url(#clip0_679_10924)">
        <rect width="982" height="302" fill="#050F21"/>
        <mask id="mask0_679_10924" style="mask-type:alpha" maskUnits="userSpaceOnUse" x="0" y="0" width="982" height="302">
            <rect width="982" height="302" rx="48" fill="#363636" fill-opacity="0.51"/>
        </mask>
        <g mask="url(#mask0_679_10924)">
            <g filter="url(#filter0_f_679_10924)">
                <circle cx="844" cy="147" r="90" fill="#29A269" fill-opacity="0.6"/>
            </g>
            <g filter="url(#filter1_f_679_10924)">
                <circle cx="127" cy="218" r="90" fill="#29A269" fill-opacity="0.6"/>
            </g>
        </g>
        <rect width="982" height="302" rx="48" fill="#363636" fill-opacity="0.51"/>
        <path d="M72.816 58.344H79.728C80.6667 58.344 81.584 58.44 82.48 58.632C83.376 58.824 84.176 59.144 84.88 59.592C85.584 60.0187 86.1493 60.584 86.576 61.288C87.024 61.992 87.248 62.8667 87.248 63.912C87.248 65.2347 86.8853 66.3333 86.16 67.208C85.456 68.0613 84.496 68.6693 83.28 69.032V69.096C84.0053 69.16 84.6773 69.352 85.296 69.672C85.936 69.9707 86.48 70.3653 86.928 70.856C87.3973 71.3467 87.76 71.9227 88.016 72.584C88.272 73.224 88.4 73.9173 88.4 74.664C88.4 75.9227 88.1333 76.9573 87.6 77.768C87.088 78.5787 86.4053 79.2293 85.552 79.72C84.72 80.1893 83.7707 80.52 82.704 80.712C81.6587 80.904 80.6133 81 79.568 81H72.816V58.344ZM75.504 67.944H79.216C79.856 67.944 80.4747 67.9013 81.072 67.816C81.6907 67.7307 82.2453 67.56 82.736 67.304C83.2267 67.0267 83.6213 66.6533 83.92 66.184C84.2187 65.6933 84.368 65.0533 84.368 64.264C84.368 63.56 84.2293 62.9947 83.952 62.568C83.6747 62.12 83.3013 61.768 82.832 61.512C82.384 61.256 81.8613 61.0853 81.264 61C80.688 60.8933 80.1013 60.84 79.504 60.84H75.504V67.944ZM75.504 78.504H80.048C80.7093 78.504 81.36 78.44 82 78.312C82.6613 78.1627 83.248 77.9387 83.76 77.64C84.2933 77.32 84.72 76.9147 85.04 76.424C85.36 75.912 85.52 75.2933 85.52 74.568C85.52 73.7787 85.36 73.1173 85.04 72.584C84.7413 72.0507 84.336 71.624 83.824 71.304C83.3333 70.984 82.7573 70.76 82.096 70.632C81.456 70.504 80.7947 70.44 80.112 70.44H75.504V78.504ZM108.172 60.84H100.684V81H97.9963V60.84H90.5083V58.344H108.172V60.84ZM127.219 63.016C126.537 62.0987 125.694 61.416 124.691 60.968C123.689 60.4987 122.643 60.264 121.555 60.264C120.297 60.264 119.134 60.52 118.067 61.032C117.022 61.544 116.115 62.2373 115.347 63.112C114.579 63.9653 113.982 64.968 113.555 66.12C113.129 67.2507 112.915 68.4347 112.915 69.672C112.915 70.9947 113.129 72.232 113.555 73.384C113.982 74.5147 114.569 75.5067 115.315 76.36C116.083 77.192 116.99 77.8533 118.035 78.344C119.102 78.8347 120.275 79.08 121.555 79.08C122.942 79.08 124.179 78.8133 125.267 78.28C126.355 77.7253 127.305 76.936 128.115 75.912L130.131 77.608C129.107 78.9733 127.87 79.976 126.419 80.616C124.99 81.256 123.369 81.576 121.555 81.576C119.934 81.576 118.419 81.2773 117.011 80.68C115.603 80.0827 114.377 79.2613 113.331 78.216C112.307 77.1493 111.497 75.8907 110.899 74.44C110.323 72.9893 110.035 71.4 110.035 69.672C110.035 68.008 110.313 66.4507 110.867 65C111.443 63.5493 112.243 62.2907 113.267 61.224C114.291 60.1573 115.507 59.3147 116.915 58.696C118.323 58.0773 119.87 57.768 121.555 57.768C123.091 57.768 124.563 58.0453 125.971 58.6C127.401 59.1547 128.595 60.0613 129.555 61.32L127.219 63.016Z" fill="#8999A5"/>
        <path d="M723.024 149.672V142.632H726.288V149.672H733.328V152.936H726.288V159.976H723.024V152.936H715.984V149.672H723.024ZM743.889 142.76L739.633 146.696L737.393 144.04L744.241 138.344H747.729V161H743.889V142.76ZM756.426 158.76C756.426 158.077 756.671 157.491 757.162 157C757.674 156.509 758.282 156.264 758.986 156.264C759.669 156.264 760.266 156.499 760.778 156.968C761.29 157.437 761.546 158.013 761.546 158.696C761.546 159.379 761.29 159.965 760.778 160.456C760.287 160.947 759.69 161.192 758.986 161.192C758.645 161.192 758.314 161.128 757.994 161C757.695 160.872 757.429 160.701 757.194 160.488C756.959 160.275 756.767 160.019 756.618 159.72C756.49 159.421 756.426 159.101 756.426 158.76ZM770.823 147.464H771.815C772.369 147.464 772.903 147.432 773.415 147.368C773.948 147.304 774.417 147.165 774.823 146.952C775.249 146.739 775.591 146.429 775.847 146.024C776.103 145.619 776.231 145.075 776.231 144.392C776.231 143.517 775.932 142.803 775.335 142.248C774.737 141.693 773.959 141.416 772.999 141.416C772.231 141.416 771.537 141.64 770.919 142.088C770.321 142.515 769.884 143.123 769.607 143.912L765.543 142.824C765.799 141.992 766.161 141.267 766.631 140.648C767.1 140.029 767.655 139.528 768.295 139.144C768.935 138.739 769.639 138.44 770.407 138.248C771.175 138.056 771.975 137.96 772.807 137.96C773.788 137.96 774.716 138.088 775.591 138.344C776.465 138.6 777.233 138.984 777.895 139.496C778.556 139.987 779.079 140.616 779.463 141.384C779.868 142.131 780.071 143.005 780.071 144.008C780.071 145.224 779.729 146.312 779.047 147.272C778.364 148.211 777.415 148.829 776.199 149.128V149.192C777.649 149.405 778.748 150.024 779.495 151.048C780.241 152.072 780.615 153.288 780.615 154.696C780.615 155.784 780.401 156.744 779.975 157.576C779.569 158.408 779.015 159.112 778.311 159.688C777.607 160.243 776.785 160.669 775.847 160.968C774.929 161.245 773.969 161.384 772.967 161.384C772.028 161.384 771.143 161.277 770.311 161.064C769.479 160.872 768.721 160.563 768.039 160.136C767.377 159.709 766.801 159.165 766.311 158.504C765.82 157.821 765.447 157.011 765.191 156.072L769.287 154.984C769.521 155.923 769.937 156.648 770.535 157.16C771.132 157.672 771.943 157.928 772.967 157.928C773.479 157.928 773.959 157.843 774.407 157.672C774.876 157.501 775.281 157.267 775.623 156.968C775.985 156.648 776.263 156.275 776.455 155.848C776.668 155.4 776.775 154.909 776.775 154.376C776.775 153.651 776.615 153.064 776.295 152.616C775.996 152.147 775.601 151.795 775.111 151.56C774.641 151.304 774.108 151.133 773.511 151.048C772.913 150.963 772.327 150.92 771.751 150.92H770.823V147.464ZM792.128 137.96C793.088 137.96 793.984 138.099 794.816 138.376C795.67 138.632 796.406 139.016 797.024 139.528C797.664 140.019 798.166 140.637 798.528 141.384C798.891 142.109 799.072 142.952 799.072 143.912C799.072 145.128 798.784 146.195 798.208 147.112C797.654 148.029 796.8 148.659 795.648 149V149.064C796.182 149.171 796.694 149.395 797.184 149.736C797.696 150.056 798.144 150.461 798.528 150.952C798.912 151.421 799.211 151.965 799.424 152.584C799.659 153.203 799.776 153.864 799.776 154.568C799.776 155.699 799.574 156.691 799.168 157.544C798.763 158.376 798.219 159.08 797.536 159.656C796.854 160.232 796.043 160.669 795.104 160.968C794.166 161.245 793.174 161.384 792.128 161.384C791.062 161.384 790.059 161.245 789.12 160.968C788.203 160.669 787.403 160.232 786.72 159.656C786.038 159.08 785.494 158.376 785.088 157.544C784.683 156.691 784.48 155.699 784.48 154.568C784.48 153.864 784.587 153.203 784.8 152.584C785.035 151.965 785.344 151.421 785.728 150.952C786.112 150.461 786.55 150.056 787.04 149.736C787.552 149.395 788.075 149.171 788.608 149.064V149C787.456 148.659 786.592 148.029 786.016 147.112C785.462 146.195 785.184 145.128 785.184 143.912C785.184 142.952 785.366 142.109 785.728 141.384C786.091 140.637 786.582 140.019 787.2 139.528C787.84 139.016 788.576 138.632 789.408 138.376C790.262 138.099 791.168 137.96 792.128 137.96ZM792.128 141.224C791.147 141.224 790.379 141.523 789.824 142.12C789.291 142.717 789.024 143.443 789.024 144.296C789.024 145.192 789.302 145.949 789.856 146.568C790.411 147.165 791.168 147.464 792.128 147.464C792.555 147.464 792.95 147.389 793.312 147.24C793.696 147.069 794.027 146.845 794.304 146.568C794.603 146.269 794.827 145.928 794.976 145.544C795.147 145.16 795.232 144.744 795.232 144.296C795.232 143.443 794.934 142.717 794.336 142.12C793.76 141.523 793.024 141.224 792.128 141.224ZM792.128 150.536C791.616 150.536 791.126 150.621 790.656 150.792C790.187 150.963 789.782 151.208 789.44 151.528C789.099 151.848 788.822 152.232 788.608 152.68C788.416 153.107 788.32 153.576 788.32 154.088C788.32 155.176 788.672 156.061 789.376 156.744C790.102 157.405 791.019 157.736 792.128 157.736C793.238 157.736 794.144 157.405 794.848 156.744C795.574 156.061 795.936 155.176 795.936 154.088C795.936 153.576 795.83 153.107 795.616 152.68C795.424 152.232 795.158 151.848 794.816 151.528C794.475 151.208 794.07 150.963 793.6 150.792C793.131 150.621 792.64 150.536 792.128 150.536ZM817.754 155.432C817.754 154.6 817.903 153.832 818.202 153.128C818.522 152.403 818.948 151.773 819.482 151.24C820.036 150.685 820.666 150.259 821.37 149.96C822.095 149.64 822.874 149.48 823.706 149.48C824.538 149.48 825.306 149.64 826.01 149.96C826.735 150.259 827.364 150.685 827.898 151.24C828.452 151.773 828.879 152.403 829.178 153.128C829.498 153.832 829.658 154.6 829.658 155.432C829.658 156.264 829.498 157.043 829.178 157.768C828.879 158.472 828.452 159.101 827.898 159.656C827.364 160.189 826.735 160.616 826.01 160.936C825.306 161.235 824.538 161.384 823.706 161.384C822.874 161.384 822.095 161.235 821.37 160.936C820.666 160.616 820.036 160.189 819.482 159.656C818.948 159.101 818.522 158.472 818.202 157.768C817.903 157.043 817.754 156.264 817.754 155.432ZM826.586 155.432C826.586 154.621 826.308 153.939 825.754 153.384C825.199 152.829 824.516 152.552 823.706 152.552C822.895 152.552 822.212 152.829 821.658 153.384C821.103 153.939 820.826 154.621 820.826 155.432C820.826 156.243 821.103 156.925 821.658 157.48C822.212 158.035 822.895 158.312 823.706 158.312C824.516 158.312 825.199 158.035 825.754 157.48C826.308 156.925 826.586 156.243 826.586 155.432ZM802.554 143.912C802.554 143.08 802.703 142.312 803.002 141.608C803.322 140.883 803.748 140.253 804.282 139.72C804.836 139.165 805.466 138.739 806.17 138.44C806.895 138.12 807.674 137.96 808.506 137.96C809.338 137.96 810.106 138.12 810.81 138.44C811.535 138.739 812.164 139.165 812.698 139.72C813.252 140.253 813.679 140.883 813.978 141.608C814.298 142.312 814.458 143.08 814.458 143.912C814.458 144.744 814.298 145.523 813.978 146.248C813.679 146.952 813.252 147.581 812.698 148.136C812.164 148.669 811.535 149.096 810.81 149.416C810.106 149.715 809.338 149.864 808.506 149.864C807.674 149.864 806.895 149.715 806.17 149.416C805.466 149.096 804.836 148.669 804.282 148.136C803.748 147.581 803.322 146.952 803.002 146.248C802.703 145.523 802.554 144.744 802.554 143.912ZM811.386 143.912C811.386 143.101 811.108 142.419 810.554 141.864C809.999 141.309 809.316 141.032 808.506 141.032C807.695 141.032 807.012 141.309 806.458 141.864C805.903 142.419 805.626 143.101 805.626 143.912C805.626 144.723 805.903 145.405 806.458 145.96C807.012 146.515 807.695 146.792 808.506 146.792C809.316 146.792 809.999 146.515 810.554 145.96C811.108 145.405 811.386 144.723 811.386 143.912ZM821.466 137.32L824.122 138.536L810.81 162.024L808.154 160.808L821.466 137.32Z" fill="white"/>
        <circle cx="772.5" cy="151.5" r="111.5" stroke="black" stroke-opacity="0.5" stroke-width="20"/>
        <path d="M772 40C833.856 40 884 89.9846 884 151.644C884 191.345 863.211 226.205 831.893 246" stroke="#35AC33" stroke-width="20" stroke-linecap="round"/>
        <path d="M72 149.3C72 146.5 72.2167 144.117 72.65 142.15C73.1167 140.15 73.7167 138.483 74.45 137.15C75.1833 135.783 76 134.7 76.9 133.9C77.8333 133.067 78.7667 132.45 79.7 132.05C80.6667 131.617 81.5833 131.333 82.45 131.2C83.35 131.067 84.1333 131 84.8 131C85.4667 131 86.2333 131.067 87.1 131.2C88 131.333 88.9167 131.617 89.85 132.05C90.8167 132.45 91.75 133.067 92.65 133.9C93.5833 134.7 94.4167 135.783 95.15 137.15C95.8833 138.483 96.4667 140.15 96.9 142.15C97.3667 144.117 97.6 146.5 97.6 149.3C97.6 152.1 97.3667 154.5 96.9 156.5C96.4667 158.467 95.8833 160.133 95.15 161.5C94.4167 162.833 93.5833 163.917 92.65 164.75C91.75 165.55 90.8167 166.167 89.85 166.6C88.9167 167 88 167.267 87.1 167.4C86.2333 167.533 85.4667 167.6 84.8 167.6C84.1333 167.6 83.35 167.533 82.45 167.4C81.5833 167.267 80.6667 167 79.7 166.6C78.7667 166.167 77.8333 165.55 76.9 164.75C76 163.917 75.1833 162.833 74.45 161.5C73.7167 160.133 73.1167 158.467 72.65 156.5C72.2167 154.5 72 152.1 72 149.3ZM78 149.3C78 150.4 78.0667 151.683 78.2 153.15C78.3667 154.583 78.6833 155.95 79.15 157.25C79.6167 158.55 80.3 159.65 81.2 160.55C82.1 161.45 83.3 161.9 84.8 161.9C86.3 161.9 87.5 161.45 88.4 160.55C89.3 159.65 89.9833 158.55 90.45 157.25C90.9167 155.95 91.2167 154.583 91.35 153.15C91.5167 151.683 91.6 150.4 91.6 149.3C91.6 148.2 91.5167 146.933 91.35 145.5C91.2167 144.033 90.9167 142.65 90.45 141.35C89.9833 140.05 89.3 138.95 88.4 138.05C87.5 137.15 86.3 136.7 84.8 136.7C83.3 136.7 82.1 137.15 81.2 138.05C80.3 138.95 79.6167 140.05 79.15 141.35C78.6833 142.65 78.3667 144.033 78.2 145.5C78.0667 146.933 78 148.2 78 149.3ZM102.99 163.5C102.99 162.433 103.373 161.517 104.14 160.75C104.94 159.983 105.89 159.6 106.99 159.6C108.057 159.6 108.99 159.967 109.79 160.7C110.59 161.433 110.99 162.333 110.99 163.4C110.99 164.467 110.59 165.383 109.79 166.15C109.023 166.917 108.09 167.3 106.99 167.3C106.457 167.3 105.94 167.2 105.44 167C104.973 166.8 104.557 166.533 104.19 166.2C103.823 165.867 103.523 165.467 103.29 165C103.09 164.533 102.99 164.033 102.99 163.5ZM139.635 137H125.385L125.235 144.05C125.701 143.883 126.285 143.767 126.985 143.7C127.718 143.633 128.401 143.6 129.035 143.6C130.768 143.6 132.351 143.883 133.785 144.45C135.251 144.983 136.501 145.767 137.535 146.8C138.568 147.833 139.368 149.067 139.935 150.5C140.535 151.933 140.835 153.55 140.835 155.35C140.835 157.25 140.501 158.967 139.835 160.5C139.201 162 138.301 163.283 137.135 164.35C136.001 165.383 134.651 166.183 133.085 166.75C131.518 167.317 129.835 167.6 128.035 167.6C125.201 167.6 122.785 166.933 120.785 165.6C118.818 164.267 117.418 162.233 116.585 159.5L122.885 157.8C123.285 159.067 123.968 160.067 124.935 160.8C125.901 161.533 127.151 161.9 128.685 161.9C129.585 161.9 130.401 161.75 131.135 161.45C131.901 161.15 132.551 160.733 133.085 160.2C133.651 159.633 134.085 158.983 134.385 158.25C134.685 157.517 134.835 156.717 134.835 155.85C134.835 154.617 134.601 153.567 134.135 152.7C133.701 151.833 133.101 151.133 132.335 150.6C131.568 150.033 130.685 149.633 129.685 149.4C128.685 149.133 127.635 149 126.535 149C125.235 149 123.935 149.15 122.635 149.45C121.368 149.75 120.201 150.167 119.135 150.7L119.485 131.6H139.635V137ZM158.775 131C160.275 131 161.675 131.217 162.975 131.65C164.308 132.05 165.458 132.65 166.425 133.45C167.425 134.217 168.208 135.183 168.775 136.35C169.341 137.483 169.625 138.8 169.625 140.3C169.625 142.2 169.175 143.867 168.275 145.3C167.408 146.733 166.075 147.717 164.275 148.25V148.35C165.108 148.517 165.908 148.867 166.675 149.4C167.475 149.9 168.175 150.533 168.775 151.3C169.375 152.033 169.841 152.883 170.175 153.85C170.541 154.817 170.725 155.85 170.725 156.95C170.725 158.717 170.408 160.267 169.775 161.6C169.141 162.9 168.291 164 167.225 164.9C166.158 165.8 164.891 166.483 163.425 166.95C161.958 167.383 160.408 167.6 158.775 167.6C157.108 167.6 155.541 167.383 154.075 166.95C152.641 166.483 151.391 165.8 150.325 164.9C149.258 164 148.408 162.9 147.775 161.6C147.141 160.267 146.825 158.717 146.825 156.95C146.825 155.85 146.991 154.817 147.325 153.85C147.691 152.883 148.175 152.033 148.775 151.3C149.375 150.533 150.058 149.9 150.825 149.4C151.625 148.867 152.441 148.517 153.275 148.35V148.25C151.475 147.717 150.125 146.733 149.225 145.3C148.358 143.867 147.925 142.2 147.925 140.3C147.925 138.8 148.208 137.483 148.775 136.35C149.341 135.183 150.108 134.217 151.075 133.45C152.075 132.65 153.225 132.05 154.525 131.65C155.858 131.217 157.275 131 158.775 131ZM158.775 136.1C157.241 136.1 156.041 136.567 155.175 137.5C154.341 138.433 153.925 139.567 153.925 140.9C153.925 142.3 154.358 143.483 155.225 144.45C156.091 145.383 157.275 145.85 158.775 145.85C159.441 145.85 160.058 145.733 160.625 145.5C161.225 145.233 161.741 144.883 162.175 144.45C162.641 143.983 162.991 143.45 163.225 142.85C163.491 142.25 163.625 141.6 163.625 140.9C163.625 139.567 163.158 138.433 162.225 137.5C161.325 136.567 160.175 136.1 158.775 136.1ZM158.775 150.65C157.975 150.65 157.208 150.783 156.475 151.05C155.741 151.317 155.108 151.7 154.575 152.2C154.041 152.7 153.608 153.3 153.275 154C152.975 154.667 152.825 155.4 152.825 156.2C152.825 157.9 153.375 159.283 154.475 160.35C155.608 161.383 157.041 161.9 158.775 161.9C160.508 161.9 161.925 161.383 163.025 160.35C164.158 159.283 164.725 157.9 164.725 156.2C164.725 155.4 164.558 154.667 164.225 154C163.925 153.3 163.508 152.7 162.975 152.2C162.441 151.7 161.808 151.317 161.075 151.05C160.341 150.783 159.575 150.65 158.775 150.65ZM175.664 131.6H199.714V137.1L185.564 167H178.514L192.964 137.3H175.664V131.6ZM205.154 149.3C205.154 146.5 205.371 144.117 205.804 142.15C206.271 140.15 206.871 138.483 207.604 137.15C208.338 135.783 209.154 134.7 210.054 133.9C210.988 133.067 211.921 132.45 212.854 132.05C213.821 131.617 214.738 131.333 215.604 131.2C216.504 131.067 217.288 131 217.954 131C218.621 131 219.388 131.067 220.254 131.2C221.154 131.333 222.071 131.617 223.004 132.05C223.971 132.45 224.904 133.067 225.804 133.9C226.738 134.7 227.571 135.783 228.304 137.15C229.038 138.483 229.621 140.15 230.054 142.15C230.521 144.117 230.754 146.5 230.754 149.3C230.754 152.1 230.521 154.5 230.054 156.5C229.621 158.467 229.038 160.133 228.304 161.5C227.571 162.833 226.738 163.917 225.804 164.75C224.904 165.55 223.971 166.167 223.004 166.6C222.071 167 221.154 167.267 220.254 167.4C219.388 167.533 218.621 167.6 217.954 167.6C217.288 167.6 216.504 167.533 215.604 167.4C214.738 167.267 213.821 167 212.854 166.6C211.921 166.167 210.988 165.55 210.054 164.75C209.154 163.917 208.338 162.833 207.604 161.5C206.871 160.133 206.271 158.467 205.804 156.5C205.371 154.5 205.154 152.1 205.154 149.3ZM211.154 149.3C211.154 150.4 211.221 151.683 211.354 153.15C211.521 154.583 211.838 155.95 212.304 157.25C212.771 158.55 213.454 159.65 214.354 160.55C215.254 161.45 216.454 161.9 217.954 161.9C219.454 161.9 220.654 161.45 221.554 160.55C222.454 159.65 223.138 158.55 223.604 157.25C224.071 155.95 224.371 154.583 224.504 153.15C224.671 151.683 224.754 150.4 224.754 149.3C224.754 148.2 224.671 146.933 224.504 145.5C224.371 144.033 224.071 142.65 223.604 141.35C223.138 140.05 222.454 138.95 221.554 138.05C220.654 137.15 219.454 136.7 217.954 136.7C216.454 136.7 215.254 137.15 214.354 138.05C213.454 138.95 212.771 140.05 212.304 141.35C211.838 142.65 211.521 144.033 211.354 145.5C211.221 146.933 211.154 148.2 211.154 149.3ZM235.694 160.65L249.444 147.35C249.844 146.95 250.261 146.533 250.694 146.1C251.127 145.633 251.511 145.15 251.844 144.65C252.211 144.15 252.511 143.633 252.744 143.1C252.977 142.533 253.094 141.95 253.094 141.35C253.094 140.617 252.944 139.967 252.644 139.4C252.377 138.833 252.011 138.35 251.544 137.95C251.077 137.55 250.527 137.25 249.894 137.05C249.294 136.817 248.644 136.7 247.944 136.7C246.444 136.7 245.211 137.133 244.244 138C243.277 138.867 242.694 140.033 242.494 141.5L236.194 141C236.327 139.367 236.711 137.933 237.344 136.7C238.011 135.433 238.861 134.383 239.894 133.55C240.927 132.717 242.127 132.083 243.494 131.65C244.861 131.217 246.344 131 247.944 131C249.544 131 251.027 131.217 252.394 131.65C253.794 132.05 255.011 132.667 256.044 133.5C257.077 134.3 257.894 135.333 258.494 136.6C259.094 137.867 259.394 139.35 259.394 141.05C259.394 143.283 258.877 145.217 257.844 146.85C256.844 148.45 255.544 149.983 253.944 151.45L242.994 161.6H259.394V167H235.694V160.65ZM264.434 131.6H288.484V137.1L274.334 167H267.284L281.734 137.3H264.434V131.6ZM313.774 131.6L305.274 144.7L305.374 144.8C305.74 144.6 306.224 144.45 306.824 144.35C307.457 144.25 308.074 144.2 308.674 144.2C310.24 144.2 311.674 144.5 312.974 145.1C314.274 145.7 315.39 146.517 316.324 147.55C317.29 148.583 318.024 149.783 318.524 151.15C319.057 152.517 319.324 153.967 319.324 155.5C319.324 157.333 319.007 159 318.374 160.5C317.74 162 316.857 163.283 315.724 164.35C314.624 165.383 313.29 166.183 311.724 166.75C310.19 167.317 308.524 167.6 306.724 167.6C304.857 167.6 303.157 167.333 301.624 166.8C300.09 166.233 298.757 165.433 297.624 164.4C296.524 163.367 295.657 162.1 295.024 160.6C294.424 159.1 294.124 157.417 294.124 155.55C294.124 153.683 294.424 152 295.024 150.5C295.657 148.967 296.457 147.417 297.424 145.85L306.474 131.6H313.774ZM300.424 155.45C300.424 156.35 300.59 157.2 300.924 158C301.257 158.767 301.707 159.45 302.274 160.05C302.874 160.617 303.557 161.067 304.324 161.4C305.124 161.733 305.974 161.9 306.874 161.9C307.774 161.9 308.607 161.733 309.374 161.4C310.174 161.067 310.857 160.617 311.424 160.05C312.024 159.45 312.49 158.767 312.824 158C313.157 157.2 313.324 156.35 313.324 155.45C313.324 154.55 313.157 153.717 312.824 152.95C312.49 152.15 312.024 151.467 311.424 150.9C310.857 150.3 310.174 149.833 309.374 149.5C308.607 149.167 307.774 149 306.874 149C305.974 149 305.124 149.167 304.324 149.5C303.557 149.833 302.874 150.3 302.274 150.9C301.707 151.467 301.257 152.15 300.924 152.95C300.59 153.717 300.424 154.55 300.424 155.45ZM332.614 145.85H334.164C335.03 145.85 335.864 145.8 336.664 145.7C337.497 145.6 338.23 145.383 338.864 145.05C339.53 144.717 340.064 144.233 340.464 143.6C340.864 142.967 341.064 142.117 341.064 141.05C341.064 139.683 340.597 138.567 339.664 137.7C338.73 136.833 337.514 136.4 336.014 136.4C334.814 136.4 333.73 136.75 332.764 137.45C331.83 138.117 331.147 139.067 330.714 140.3L324.364 138.6C324.764 137.3 325.33 136.167 326.064 135.2C326.797 134.233 327.664 133.45 328.664 132.85C329.664 132.217 330.764 131.75 331.964 131.45C333.164 131.15 334.414 131 335.714 131C337.247 131 338.697 131.2 340.064 131.6C341.43 132 342.63 132.6 343.664 133.4C344.697 134.167 345.514 135.15 346.114 136.35C346.747 137.517 347.064 138.883 347.064 140.45C347.064 142.35 346.53 144.05 345.464 145.55C344.397 147.017 342.914 147.983 341.014 148.45V148.55C343.28 148.883 344.997 149.85 346.164 151.45C347.33 153.05 347.914 154.95 347.914 157.15C347.914 158.85 347.58 160.35 346.914 161.65C346.28 162.95 345.414 164.05 344.314 164.95C343.214 165.817 341.93 166.483 340.464 166.95C339.03 167.383 337.53 167.6 335.964 167.6C334.497 167.6 333.114 167.433 331.814 167.1C330.514 166.8 329.33 166.317 328.264 165.65C327.23 164.983 326.33 164.133 325.564 163.1C324.797 162.033 324.214 160.767 323.814 159.3L330.214 157.6C330.58 159.067 331.23 160.2 332.164 161C333.097 161.8 334.364 162.2 335.964 162.2C336.764 162.2 337.514 162.067 338.214 161.8C338.947 161.533 339.58 161.167 340.114 160.7C340.68 160.2 341.114 159.617 341.414 158.95C341.747 158.25 341.914 157.483 341.914 156.65C341.914 155.517 341.664 154.6 341.164 153.9C340.697 153.167 340.08 152.617 339.314 152.25C338.58 151.85 337.747 151.583 336.814 151.45C335.88 151.317 334.964 151.25 334.064 151.25H332.614V145.85ZM365.904 131C367.404 131 368.804 131.217 370.104 131.65C371.437 132.05 372.587 132.65 373.554 133.45C374.554 134.217 375.337 135.183 375.904 136.35C376.47 137.483 376.754 138.8 376.754 140.3C376.754 142.2 376.304 143.867 375.404 145.3C374.537 146.733 373.204 147.717 371.404 148.25V148.35C372.237 148.517 373.037 148.867 373.804 149.4C374.604 149.9 375.304 150.533 375.904 151.3C376.504 152.033 376.97 152.883 377.304 153.85C377.67 154.817 377.854 155.85 377.854 156.95C377.854 158.717 377.537 160.267 376.904 161.6C376.27 162.9 375.42 164 374.354 164.9C373.287 165.8 372.02 166.483 370.554 166.95C369.087 167.383 367.537 167.6 365.904 167.6C364.237 167.6 362.67 167.383 361.204 166.95C359.77 166.483 358.52 165.8 357.454 164.9C356.387 164 355.537 162.9 354.904 161.6C354.27 160.267 353.954 158.717 353.954 156.95C353.954 155.85 354.12 154.817 354.454 153.85C354.82 152.883 355.304 152.033 355.904 151.3C356.504 150.533 357.187 149.9 357.954 149.4C358.754 148.867 359.57 148.517 360.404 148.35V148.25C358.604 147.717 357.254 146.733 356.354 145.3C355.487 143.867 355.054 142.2 355.054 140.3C355.054 138.8 355.337 137.483 355.904 136.35C356.47 135.183 357.237 134.217 358.204 133.45C359.204 132.65 360.354 132.05 361.654 131.65C362.987 131.217 364.404 131 365.904 131ZM365.904 136.1C364.37 136.1 363.17 136.567 362.304 137.5C361.47 138.433 361.054 139.567 361.054 140.9C361.054 142.3 361.487 143.483 362.354 144.45C363.22 145.383 364.404 145.85 365.904 145.85C366.57 145.85 367.187 145.733 367.754 145.5C368.354 145.233 368.87 144.883 369.304 144.45C369.77 143.983 370.12 143.45 370.354 142.85C370.62 142.25 370.754 141.6 370.754 140.9C370.754 139.567 370.287 138.433 369.354 137.5C368.454 136.567 367.304 136.1 365.904 136.1ZM365.904 150.65C365.104 150.65 364.337 150.783 363.604 151.05C362.87 151.317 362.237 151.7 361.704 152.2C361.17 152.7 360.737 153.3 360.404 154C360.104 154.667 359.954 155.4 359.954 156.2C359.954 157.9 360.504 159.283 361.604 160.35C362.737 161.383 364.17 161.9 365.904 161.9C367.637 161.9 369.054 161.383 370.154 160.35C371.287 159.283 371.854 157.9 371.854 156.2C371.854 155.4 371.687 154.667 371.354 154C371.054 153.3 370.637 152.7 370.104 152.2C369.57 151.7 368.937 151.317 368.204 151.05C367.47 150.783 366.704 150.65 365.904 150.65ZM397.443 159.8H382.393V153.85L396.643 131.6H403.443V154.4H408.593V159.8H403.443V167H397.443V159.8ZM397.443 140.1H397.343L388.493 154.4H397.443V140.1Z" fill="white"/>
        <path d="M81.52 237H78.832V217.8H78.768L74.704 221.224L73.104 219.272L79.184 214.344H81.52V237ZM99.3013 237H96.6133V217.8H96.5493L92.4852 221.224L90.8853 219.272L96.9653 214.344H99.3013V237ZM109.691 241.416H107.227L109.403 233.736H112.315L109.691 241.416ZM116.069 233.928L124.613 225.608C125.146 225.096 125.615 224.627 126.021 224.2C126.426 223.752 126.757 223.325 127.013 222.92C127.29 222.493 127.493 222.056 127.621 221.608C127.749 221.16 127.813 220.659 127.813 220.104C127.813 219.507 127.706 218.973 127.493 218.504C127.279 218.035 126.981 217.64 126.597 217.32C126.234 216.979 125.797 216.723 125.285 216.552C124.794 216.36 124.261 216.264 123.685 216.264C122.533 216.264 121.583 216.595 120.837 217.256C120.09 217.917 119.61 218.792 119.397 219.88L116.485 219.624C116.634 218.707 116.911 217.896 117.317 217.192C117.743 216.467 118.266 215.869 118.885 215.4C119.525 214.931 120.239 214.579 121.029 214.344C121.818 214.088 122.671 213.96 123.589 213.96C124.527 213.96 125.413 214.099 126.245 214.376C127.077 214.632 127.802 215.016 128.421 215.528C129.061 216.04 129.562 216.68 129.925 217.448C130.309 218.216 130.501 219.101 130.501 220.104C130.501 221 130.373 221.811 130.117 222.536C129.882 223.261 129.551 223.933 129.125 224.552C128.719 225.149 128.25 225.725 127.717 226.28C127.205 226.813 126.661 227.347 126.085 227.88L119.109 234.44V234.504H130.661V237H116.069V233.928ZM147.418 216.84H138.17L138.074 222.952C138.501 222.739 138.97 222.6 139.482 222.536C140.015 222.451 140.517 222.408 140.986 222.408C142.074 222.408 143.055 222.6 143.93 222.984C144.826 223.347 145.594 223.869 146.234 224.552C146.874 225.213 147.365 226.003 147.706 226.92C148.047 227.816 148.218 228.797 148.218 229.864C148.218 230.995 148.015 232.029 147.61 232.968C147.226 233.885 146.682 234.675 145.978 235.336C145.295 235.976 144.474 236.477 143.514 236.84C142.575 237.203 141.551 237.384 140.442 237.384C138.714 237.384 137.317 237.011 136.25 236.264C135.205 235.517 134.373 234.515 133.754 233.256L136.442 232.232C136.826 233.085 137.381 233.779 138.106 234.312C138.853 234.824 139.706 235.08 140.666 235.08C141.349 235.08 141.978 234.963 142.554 234.728C143.151 234.472 143.663 234.12 144.09 233.672C144.538 233.203 144.89 232.648 145.146 232.008C145.402 231.368 145.53 230.653 145.53 229.864C145.53 229.032 145.381 228.296 145.082 227.656C144.805 227.016 144.41 226.483 143.898 226.056C143.407 225.608 142.821 225.277 142.138 225.064C141.455 224.829 140.719 224.712 139.93 224.712C139.162 224.712 138.373 224.851 137.562 225.128C136.751 225.384 136.005 225.715 135.322 226.12L135.546 214.344H147.418V216.84ZM156.559 223.784L156.623 223.848C157.05 223.613 157.541 223.443 158.095 223.336C158.671 223.229 159.194 223.176 159.663 223.176C160.645 223.176 161.551 223.347 162.383 223.688C163.237 224.029 163.962 224.52 164.559 225.16C165.178 225.779 165.658 226.525 165.999 227.4C166.341 228.275 166.511 229.235 166.511 230.28C166.511 231.389 166.319 232.381 165.935 233.256C165.551 234.131 165.018 234.877 164.335 235.496C163.653 236.093 162.842 236.563 161.903 236.904C160.986 237.224 159.994 237.384 158.927 237.384C157.861 237.384 156.858 237.224 155.919 236.904C155.002 236.563 154.202 236.093 153.519 235.496C152.837 234.877 152.303 234.131 151.919 233.256C151.535 232.381 151.343 231.389 151.343 230.28C151.343 228.979 151.546 227.837 151.951 226.856C152.357 225.875 152.869 224.893 153.487 223.912L159.503 214.344H162.639L156.559 223.784ZM158.927 225.48C158.245 225.48 157.605 225.597 157.007 225.832C156.41 226.045 155.887 226.365 155.439 226.792C155.013 227.197 154.671 227.699 154.415 228.296C154.159 228.893 154.031 229.555 154.031 230.28C154.031 231.027 154.159 231.699 154.415 232.296C154.671 232.872 155.013 233.373 155.439 233.8C155.887 234.205 156.41 234.525 157.007 234.76C157.605 234.973 158.245 235.08 158.927 235.08C159.61 235.08 160.25 234.973 160.847 234.76C161.445 234.525 161.957 234.205 162.383 233.8C162.831 233.373 163.183 232.872 163.439 232.296C163.695 231.699 163.823 231.027 163.823 230.28C163.823 229.555 163.695 228.893 163.439 228.296C163.183 227.699 162.831 227.197 162.383 226.792C161.957 226.365 161.445 226.045 160.847 225.832C160.25 225.597 159.61 225.48 158.927 225.48ZM183.173 216.84L174.117 237H171.077L180.293 216.84H169.349V214.344H183.173V216.84ZM200.762 216.84H191.514L191.418 222.952C191.844 222.739 192.314 222.6 192.826 222.536C193.359 222.451 193.86 222.408 194.33 222.408C195.418 222.408 196.399 222.6 197.274 222.984C198.17 223.347 198.938 223.869 199.578 224.552C200.218 225.213 200.708 226.003 201.05 226.92C201.391 227.816 201.562 228.797 201.562 229.864C201.562 230.995 201.359 232.029 200.954 232.968C200.57 233.885 200.026 234.675 199.322 235.336C198.639 235.976 197.818 236.477 196.858 236.84C195.919 237.203 194.895 237.384 193.786 237.384C192.058 237.384 190.66 237.011 189.594 236.264C188.548 235.517 187.716 234.515 187.098 233.256L189.786 232.232C190.17 233.085 190.724 233.779 191.45 234.312C192.196 234.824 193.05 235.08 194.01 235.08C194.692 235.08 195.322 234.963 195.898 234.728C196.495 234.472 197.007 234.12 197.434 233.672C197.882 233.203 198.234 232.648 198.49 232.008C198.746 231.368 198.874 230.653 198.874 229.864C198.874 229.032 198.724 228.296 198.426 227.656C198.148 227.016 197.754 226.483 197.242 226.056C196.751 225.608 196.164 225.277 195.482 225.064C194.799 224.829 194.063 224.712 193.274 224.712C192.506 224.712 191.716 224.851 190.906 225.128C190.095 225.384 189.348 225.715 188.666 226.12L188.89 214.344H200.762V216.84ZM207.823 233.352C208.356 233.352 208.804 233.544 209.167 233.928C209.551 234.291 209.743 234.739 209.743 235.272C209.743 235.805 209.54 236.264 209.135 236.648C208.751 237.011 208.314 237.192 207.823 237.192C207.332 237.192 206.884 237.011 206.479 236.648C206.095 236.264 205.903 235.805 205.903 235.272C205.903 234.739 206.084 234.291 206.447 233.928C206.831 233.544 207.29 233.352 207.823 233.352ZM227.641 216.84L218.585 237H215.545L224.761 216.84H213.817V214.344H227.641V216.84ZM236.591 223.944H237.423C237.977 223.944 238.553 223.901 239.151 223.816C239.769 223.731 240.324 223.549 240.815 223.272C241.327 222.995 241.743 222.6 242.063 222.088C242.404 221.555 242.575 220.861 242.575 220.008C242.575 218.856 242.212 217.949 241.487 217.288C240.783 216.605 239.855 216.264 238.703 216.264C237.743 216.264 236.911 216.477 236.207 216.904C235.503 217.331 234.948 217.96 234.543 218.792L231.951 217.8C232.505 216.52 233.369 215.56 234.543 214.92C235.737 214.28 237.06 213.96 238.51 213.96C239.407 213.96 240.26 214.088 241.071 214.344C241.903 214.6 242.628 214.973 243.247 215.464C243.865 215.955 244.356 216.573 244.719 217.32C245.081 218.045 245.263 218.899 245.263 219.88C245.263 221.075 244.9 222.152 244.175 223.112C243.471 224.051 242.543 224.701 241.391 225.064V225.128C242.116 225.256 242.756 225.491 243.311 225.832C243.887 226.173 244.377 226.6 244.783 227.112C245.188 227.603 245.497 228.168 245.711 228.808C245.924 229.448 246.031 230.12 246.031 230.824C246.031 231.912 245.828 232.861 245.423 233.672C245.017 234.483 244.473 235.165 243.791 235.72C243.108 236.275 242.308 236.691 241.391 236.968C240.495 237.245 239.545 237.384 238.543 237.384C236.815 237.384 235.311 237.011 234.031 236.264C232.751 235.517 231.823 234.301 231.247 232.616L233.967 231.72C234.351 232.936 234.895 233.8 235.599 234.312C236.303 234.824 237.284 235.08 238.543 235.08C239.183 235.08 239.78 234.973 240.335 234.76C240.889 234.547 241.369 234.248 241.775 233.864C242.201 233.459 242.532 232.989 242.767 232.456C243.023 231.901 243.151 231.293 243.151 230.632C243.151 229.8 242.98 229.107 242.639 228.552C242.319 227.976 241.881 227.528 241.327 227.208C240.793 226.867 240.185 226.621 239.503 226.472C238.82 226.323 238.127 226.248 237.423 226.248H236.591V223.944ZM276.558 228.36C276.558 229.597 276.398 230.771 276.078 231.88C275.779 232.989 275.289 233.971 274.606 234.824C273.945 235.656 273.07 236.328 271.982 236.84C270.894 237.331 269.571 237.576 268.014 237.576C266.457 237.576 265.134 237.331 264.046 236.84C262.958 236.328 262.073 235.656 261.39 234.824C260.729 233.971 260.238 232.989 259.918 231.88C259.619 230.771 259.47 229.597 259.47 228.36V214.344H262.158V227.976C262.158 228.893 262.254 229.779 262.446 230.632C262.638 231.485 262.958 232.243 263.406 232.904C263.854 233.565 264.451 234.099 265.198 234.504C265.945 234.888 266.883 235.08 268.014 235.08C269.145 235.08 270.083 234.888 270.83 234.504C271.577 234.099 272.174 233.565 272.622 232.904C273.07 232.243 273.39 231.485 273.582 230.632C273.774 229.779 273.87 228.893 273.87 227.976V214.344H276.558V228.36ZM292.849 218.344C292.401 217.619 291.804 217.096 291.057 216.776C290.311 216.435 289.532 216.264 288.721 216.264C288.124 216.264 287.537 216.339 286.961 216.488C286.385 216.637 285.863 216.861 285.393 217.16C284.945 217.459 284.583 217.853 284.305 218.344C284.028 218.835 283.889 219.411 283.889 220.072C283.889 220.584 283.964 221.043 284.113 221.448C284.284 221.832 284.551 222.184 284.913 222.504C285.276 222.824 285.767 223.123 286.385 223.4C287.004 223.677 287.761 223.955 288.657 224.232C289.532 224.509 290.375 224.808 291.185 225.128C292.017 225.448 292.743 225.853 293.361 226.344C294.001 226.835 294.503 227.453 294.865 228.2C295.249 228.925 295.441 229.843 295.441 230.952C295.441 232.083 295.217 233.064 294.769 233.896C294.321 234.728 293.724 235.421 292.977 235.976C292.252 236.509 291.409 236.904 290.449 237.16C289.489 237.437 288.497 237.576 287.473 237.576C286.812 237.576 286.151 237.512 285.489 237.384C284.828 237.277 284.188 237.107 283.569 236.872C282.972 236.616 282.407 236.296 281.873 235.912C281.34 235.507 280.881 235.016 280.497 234.44L282.801 232.552C283.292 233.384 283.975 234.013 284.849 234.44C285.724 234.867 286.652 235.08 287.633 235.08C288.209 235.08 288.785 234.995 289.361 234.824C289.959 234.653 290.492 234.408 290.961 234.088C291.431 233.747 291.815 233.331 292.113 232.84C292.412 232.349 292.561 231.784 292.561 231.144C292.561 230.44 292.444 229.875 292.209 229.448C291.975 229 291.612 228.616 291.121 228.296C290.631 227.976 290.012 227.688 289.265 227.432C288.519 227.176 287.644 226.877 286.641 226.536C285.831 226.28 285.084 225.992 284.401 225.672C283.719 225.331 283.121 224.925 282.609 224.456C282.119 223.965 281.724 223.389 281.425 222.728C281.148 222.045 281.009 221.235 281.009 220.296C281.009 219.208 281.223 218.259 281.649 217.448C282.076 216.637 282.652 215.965 283.377 215.432C284.103 214.877 284.924 214.461 285.841 214.184C286.759 213.907 287.719 213.768 288.721 213.768C290.001 213.768 291.164 213.971 292.209 214.376C293.276 214.76 294.225 215.443 295.057 216.424L292.849 218.344ZM299.463 214.344H308.167C308.913 214.344 309.703 214.429 310.535 214.6C311.367 214.771 312.188 215.048 312.999 215.432C313.831 215.795 314.62 216.275 315.367 216.872C316.135 217.469 316.807 218.195 317.383 219.048C317.959 219.88 318.417 220.851 318.759 221.96C319.1 223.048 319.271 224.285 319.271 225.672C319.271 227.059 319.1 228.307 318.759 229.416C318.417 230.504 317.959 231.475 317.383 232.328C316.807 233.16 316.135 233.875 315.367 234.472C314.62 235.069 313.831 235.56 312.999 235.944C312.188 236.307 311.367 236.573 310.535 236.744C309.703 236.915 308.913 237 308.167 237H299.463V214.344ZM302.151 234.504H307.271C308.572 234.504 309.777 234.333 310.887 233.992C311.996 233.651 312.956 233.128 313.767 232.424C314.577 231.699 315.217 230.781 315.687 229.672C316.156 228.563 316.391 227.229 316.391 225.672C316.391 224.115 316.156 222.781 315.687 221.672C315.217 220.563 314.577 219.656 313.767 218.952C312.956 218.227 311.996 217.693 310.887 217.352C309.777 217.011 308.572 216.84 307.271 216.84H302.151V234.504Z" fill="#42C525"/>
    </g>
    <defs>
        <filter id="filter0_f_679_10924" x="604.6" y="-92.4" width="478.8" height="478.8" filterUnits="userSpaceOnUse" color-interpolation-filters="sRGB">
            <feFlood flood-opacity="0" result="BackgroundImageFix"/>
            <feBlend mode="normal" in="SourceGraphic" in2="BackgroundImageFix" result="shape"/>
            <feGaussianBlur stdDeviation="74.7" result="effect1_foregroundBlur_679_10924"/>
        </filter>
        <filter id="filter1_f_679_10924" x="-112.4" y="-21.4" width="478.8" height="478.8" filterUnits="userSpaceOnUse" color-interpolation-filters="sRGB">
            <feFlood flood-opacity="0" result="BackgroundImageFix"/>
            <feBlend mode="normal" in="SourceGraphic" in2="BackgroundImageFix" result="shape"/>
            <feGaussianBlur stdDeviation="74.7" result="effect1_foregroundBlur_679_10924"/>
        </filter>
        <clipPath id="clip0_679_10924">
            <rect width="982" height="302" fill="white"/>
        </clipPath>
    </defs>
</svg>
