<svg width="10" height="11" viewBox="0 0 10 11" fill="none" xmlns="http://www.w3.org/2000/svg">
<g id="&#233;&#152;&#191;&#233;&#135;&#140;&#229;&#183;&#180;&#229;&#183;&#180;&#230;&#155;&#180;&#229;&#164;&#154;&#229;&#155;&#190;&#230;&#160;&#135; 1" clip-path="url(#clip0_2_2617)">
<path id="Vector" opacity="0.3" d="M4.82863 10.0795C4.87463 10.1235 4.93663 10.1485 5.00063 10.1485C5.06463 10.1485 5.12663 10.1235 5.17263 10.0795M5.17363 10.0795L9.80363 5.64551C10.0076 5.45051 9.99463 5.12651 9.79163 4.93251C9.58863 4.73851 9.26063 4.73751 9.05763 4.93151L5.00163 8.81151L0.946634 4.93151C0.742634 4.73651 0.414634 4.73851 0.212634 4.93251C0.00863374 5.12551 -0.00436626 5.45051 0.199634 5.64451L4.82963 10.0785H5.17363V10.0795Z" fill="#8CB4BD"/>
<path id="Vector_2" opacity="0.4" d="M4.82594 6.39201C4.87194 6.43601 4.93394 6.46001 4.99794 6.46001C5.06194 6.46001 5.12394 6.43501 5.16994 6.39201M5.17094 6.39201L9.80094 1.95801C10.0049 1.76301 9.99194 1.43901 9.78894 1.24501C9.58594 1.05101 9.25794 1.05001 9.05494 1.24401L4.99894 5.12401L0.94294 1.24401C0.73894 1.04901 0.41094 1.05101 0.20894 1.24501C0.00593976 1.43901 -0.00706023 1.76401 0.19694 1.95801L4.82694 6.39201H5.17094Z" fill="#8CB4BD"/>
</g>
<defs>
<clipPath id="clip0_2_2617">
<rect width="10" height="10" fill="white" transform="translate(0 0.5)"/>
</clipPath>
</defs>
</svg>
