<svg width="14" height="14" viewBox="0 0 14 14" fill="none" xmlns="http://www.w3.org/2000/svg">
<g id="&#232;&#175;&#173;&#232;&#168;&#128; 1">
<g id="Group 1000001892">
<path id="Vector" d="M11 4.7V10.5469C11 10.7975 10.7775 11 10.5033 11H2.49675C2.43156 11.0001 2.367 10.9886 2.30675 10.9662C2.2465 10.9437 2.19174 10.9109 2.14561 10.8694C2.09948 10.828 2.06288 10.7787 2.03789 10.7246C2.01291 10.6704 2.00003 10.6123 2 10.5536V2.4464C2 2.20475 2.22425 2 2.501 2H7.9985L11 4.7ZM10 5.15H7.5V2.9H3V10.1H10V5.15ZM4.5 4.25H6V5.15H4.5V4.25ZM4.5 6.05H8.5V6.95H4.5V6.05ZM4.5 7.85H8.5V8.75H4.5V7.85Z" fill="#CEB864"/>
</g>
</g>
</svg>
