<svg width="14" height="14" viewBox="0 0 14 14" fill="none" xmlns="http://www.w3.org/2000/svg">
<g id="&#232;&#175;&#173;&#232;&#168;&#128; 1">
<path id="Vector" d="M6.50061 1C3.46151 0.998738 1 3.52594 1 6.64517C1 9.11177 2.53983 11.2085 4.68428 11.9785C4.97308 12.053 4.92884 11.8422 4.92884 11.6983V10.72C3.2612 10.9207 3.19361 9.78712 3.08178 9.59777C2.85566 9.2014 2.32108 9.10041 2.48084 8.91106C2.86057 8.71035 3.24768 8.96156 3.69624 9.64196C4.02067 10.1355 4.65356 10.0522 4.9743 9.97016C5.04435 9.67351 5.19428 9.40842 5.40074 9.20266C3.67289 8.88455 2.95274 7.80147 2.95274 6.51389C2.95274 5.88903 3.15306 5.31467 3.54631 4.85139C3.29561 4.08768 3.56966 3.43378 3.60652 3.33659C4.32052 3.27094 5.06279 3.86172 5.12055 3.90842C5.52609 3.79608 5.98939 3.73675 6.50799 3.73675C7.02905 3.73675 7.49358 3.7986 7.9028 3.91221C8.04167 3.80365 8.72986 3.29619 9.39348 3.35804C9.42911 3.45524 9.69702 4.09399 9.46107 4.8476C9.85923 5.31214 10.062 5.89155 10.062 6.51767C10.062 7.80778 9.33695 8.89213 7.60418 9.20519C7.89297 9.49805 8.07239 9.90452 8.07239 10.3539V11.774C8.08223 11.8877 8.07239 12 8.25673 12C10.4331 11.2464 12 9.1345 12 6.64643C12 3.52594 9.53726 1 6.50061 1Z" fill="#CEB864"/>
</g>
</svg>
