<svg width="14" height="14" viewBox="0 0 14 14" fill="none" xmlns="http://www.w3.org/2000/svg">
<g id="&#232;&#175;&#173;&#232;&#168;&#128; 1">
<g id="Group 1000001892">
<path id="Vector" d="M7.09488 1.98554C4.37718 1.98554 2.17597 4.18864 2.17597 6.90635C2.17597 9.6231 4.37813 11.8272 7.09488 11.8272C9.81259 11.8272 12.0138 9.62405 12.0138 6.90635C12.0138 4.18959 9.81164 1.98554 7.09488 1.98554ZM7.09488 1.41797C10.1249 1.41797 12.5814 3.87629 12.5814 6.90635C12.5814 9.93754 10.1261 12.3947 7.09488 12.3947C4.06483 12.3947 1.6084 9.9364 1.6084 6.90635C1.6084 3.87516 4.0637 1.41797 7.09488 1.41797Z" fill="#CEB864"/>
<path id="Vector_2" d="M12.5254 6.57992C12.4113 6.67326 12.2853 6.76205 12.1476 6.8463C11.7136 7.11508 11.1711 7.34229 10.5202 7.52795C10.0243 7.66858 9.48981 7.77598 8.91682 7.85014C8.32756 7.92644 7.72051 7.9646 7.09568 7.9646C5.84022 7.9646 4.69822 7.81911 3.66966 7.52814C3.0167 7.34135 2.47367 7.11381 2.04055 6.84554C1.90358 6.7618 1.77808 6.67326 1.66406 6.57992L2.02352 6.14062C2.11749 6.21756 2.2228 6.29172 2.33947 6.36311C2.72794 6.60363 3.22286 6.80998 3.82422 6.98214C4.29404 7.11495 4.8017 7.21667 5.3472 7.2873C5.91249 7.36045 6.49532 7.39703 7.09568 7.39703C7.69604 7.39703 8.27875 7.36045 8.84379 7.2873C9.38916 7.21667 9.89606 7.11495 10.3645 6.98214C10.9649 6.81099 11.4605 6.60433 11.8513 6.36217C11.967 6.29141 12.0719 6.21756 12.166 6.14062L12.5254 6.57992Z" fill="#CEB864"/>
<path id="Vector_3" d="M7.09559 1.98554C6.32987 1.98554 5.66607 2.44823 5.10418 3.37362C4.51467 4.34479 4.21991 5.52236 4.21991 6.90635C4.21991 8.29033 4.51467 9.46791 5.10418 10.4391C5.66607 11.3645 6.32987 11.8272 7.09559 11.8272C7.86117 11.8272 8.5246 11.3645 9.08586 10.4391C9.67487 9.46803 9.96937 8.29045 9.96937 6.90635C9.96937 5.52224 9.67487 4.34466 9.08586 3.37362C8.5246 2.44823 7.86117 1.98554 7.09559 1.98554ZM7.09559 1.41797C8.07407 1.41797 8.89925 1.97166 9.57113 3.07905C10.215 4.14065 10.5369 5.41642 10.5369 6.90635C10.5369 8.39627 10.215 9.67204 9.57113 10.7336C8.89925 11.841 8.07407 12.3947 7.09559 12.3947C6.11685 12.3947 5.29135 11.841 4.6191 10.7336C3.9746 9.67191 3.65234 8.39615 3.65234 6.90635C3.65234 5.41654 3.9746 4.14078 4.6191 3.07905C5.29135 1.97166 6.11685 1.41797 7.09559 1.41797Z" fill="#CEB864"/>
<path id="Vector_4" d="M7.38024 1.70312V12.2977H6.80908V1.70312H7.38006H7.38024Z" fill="#CEB864"/>
</g>
</g>
</svg>
