<svg width="7" height="8" viewBox="0 0 7 8" fill="none" xmlns="http://www.w3.org/2000/svg">
<g id="&#233;&#152;&#191;&#233;&#135;&#140;&#229;&#183;&#180;&#229;&#183;&#180;&#230;&#155;&#180;&#229;&#164;&#154;&#229;&#155;&#190;&#230;&#160;&#135; 1" clip-path="url(#clip0_2_3736)">
<path id="Vector" opacity="0.3" d="M6.70536 4.11993C6.73616 4.08773 6.75366 4.04433 6.75366 3.99953C6.75366 3.95473 6.73616 3.91133 6.70536 3.87913M6.70536 3.87843L3.60156 0.637432C3.46506 0.494632 3.23826 0.503732 3.10246 0.645832C2.96666 0.787932 2.96596 1.01753 3.10176 1.15963L5.81776 3.99883L3.10176 6.83733C2.96526 6.98013 2.96666 7.20973 3.10246 7.35113C3.23756 7.49393 3.46506 7.50303 3.60086 7.36023L6.70466 4.11923V3.87843H6.70536Z" fill="#8CB4BD"/>
<path id="Vector_2" opacity="0.4" d="M4.12437 4.12181C4.15517 4.08961 4.17197 4.04621 4.17197 4.00141C4.17197 3.95661 4.15447 3.91321 4.12437 3.88101M4.12437 3.88031L1.02057 0.639305C0.88407 0.496505 0.65727 0.505605 0.52147 0.647705C0.38567 0.789805 0.38497 1.01941 0.52077 1.16151L3.23677 4.00071L0.52077 6.83991C0.38427 6.98271 0.38567 7.21231 0.52147 7.35371C0.65727 7.49581 0.88477 7.50491 1.02057 7.36211L4.12437 4.12111V3.88031Z" fill="#8CB4BD"/>
</g>
<defs>
<clipPath id="clip0_2_3736">
<rect width="7" height="7" fill="white" transform="matrix(0 -1 1 0 0 7.5)"/>
</clipPath>
</defs>
</svg>
