<svg width="10" height="10" viewBox="0 0 10 10" fill="none" xmlns="http://www.w3.org/2000/svg">
<g id="&#233;&#152;&#191;&#233;&#135;&#140;&#229;&#183;&#180; (12) 1" clip-path="url(#clip0_134_11678)">
<path id="Vector" d="M5.00572 0.0127051C2.25044 0.0127051 0.0168457 2.24849 0.0168457 5.00647C0.0168457 7.76446 2.25044 10.0002 5.00571 10.0002C7.76099 10.0002 9.99459 7.76444 9.99459 5.00647C9.99459 2.24851 7.76102 0.0126953 5.00573 0.0126953L5.00572 0.0127051ZM5.00572 9.12632C2.73261 9.12632 0.88989 7.2818 0.88989 5.00646C0.88989 2.73113 2.73261 0.886621 5.00572 0.886621C7.27884 0.886621 9.12156 2.73113 9.12156 5.00646C9.12156 7.2818 7.27883 9.12632 5.00572 9.12632Z" fill="white" fill-opacity="0.4"/>
<path id="Vector_2" d="M4.86141 7.19265C4.70217 7.19265 4.56912 7.24624 4.46212 7.35329C4.35511 7.4605 4.30157 7.59369 4.30157 7.75303C4.30157 7.91237 4.35511 8.04553 4.46212 8.1527C4.56912 8.2598 4.70219 8.31337 4.86141 8.31337C5.0205 8.31337 5.15368 8.2598 5.26066 8.1527C5.3676 8.04553 5.42114 7.91237 5.42114 7.75303C5.42114 7.59369 5.3676 7.4605 5.26066 7.35329C5.15368 7.24624 5.0205 7.19265 4.86141 7.19265ZM6.23214 2.38851C6.08662 2.25665 5.91232 2.15917 5.70941 2.09597C5.50616 2.03288 5.28664 2.00403 5.05076 2.00943C4.80914 2.01499 4.58276 2.05204 4.37158 2.1207C4.16022 2.18945 3.97643 2.28138 3.82 2.39674C3.66357 2.51211 3.54009 2.65091 3.44953 2.81287C3.35897 2.975 3.31372 3.15214 3.31372 3.34438C3.31372 3.48177 3.34933 3.58621 3.42075 3.65751C3.49196 3.729 3.61007 3.76746 3.7747 3.77287C3.9064 3.77287 4.03532 3.73724 4.16162 3.66575C4.28781 3.59446 4.35097 3.48733 4.35097 3.34438C4.35097 3.20161 4.41952 3.09719 4.55678 3.03126C4.69395 2.96535 4.85032 2.92966 5.02596 2.92413C5.20162 2.91872 5.35249 2.95579 5.47887 3.03537C5.60492 3.11508 5.66812 3.26751 5.66812 3.4927C5.66812 3.5862 5.66 3.6699 5.64352 3.74407C5.62705 3.81824 5.59947 3.8924 5.56118 3.96656C5.52258 4.04068 5.46922 4.11899 5.40052 4.2014C5.33184 4.2838 5.24835 4.37445 5.14954 4.47334C5.01781 4.59976 4.90255 4.73571 4.80375 4.88122C4.70497 5.02688 4.62264 5.17252 4.55676 5.31788C4.49091 5.46355 4.44011 5.60089 4.40446 5.72994C4.36868 5.85912 4.35093 5.96765 4.35093 6.0554C4.35093 6.22588 4.40034 6.34803 4.49913 6.42216C4.59792 6.49628 4.71861 6.53337 4.86137 6.53337C5.004 6.53337 5.12474 6.49357 5.22352 6.41397C5.32232 6.33441 5.37171 6.21488 5.37171 6.0554C5.37171 5.95116 5.37854 5.85493 5.39235 5.76706C5.406 5.67931 5.43757 5.58994 5.48698 5.49919C5.53637 5.40863 5.60763 5.30706 5.70103 5.19437C5.79435 5.08178 5.92041 4.94854 6.07973 4.79469C6.31558 4.56945 6.47342 4.35936 6.55307 4.16427C6.6326 3.96936 6.67515 3.76193 6.68064 3.54212C6.68612 3.28953 6.64908 3.06704 6.56956 2.87468C6.48993 2.68245 6.37739 2.52035 6.23214 2.38851Z" fill="white" fill-opacity="0.4"/>
</g>
<defs>
<clipPath id="clip0_134_11678">
<rect width="10" height="10" fill="white"/>
</clipPath>
</defs>
</svg>
