<svg width="8" height="8" viewBox="0 0 8 8" fill="none" xmlns="http://www.w3.org/2000/svg">
<g id="&#233;&#152;&#191;&#233;&#135;&#140;&#229;&#183;&#180;&#229;&#183;&#180;&#230;&#155;&#180;&#229;&#164;&#154;&#229;&#155;&#190;&#230;&#160;&#135; 1" clip-path="url(#clip0_2_4148)">
<path id="Vector" opacity="0.3" d="M3.88007 0.794636C3.91227 0.763836 3.95567 0.746336 4.00047 0.746336C4.04527 0.746336 4.08867 0.763836 4.12087 0.794636M4.12157 0.794636L7.36257 3.89844C7.50537 4.03494 7.49627 4.26174 7.35417 4.39754C7.21207 4.53334 6.98247 4.53404 6.84037 4.39824L4.00117 1.68224L1.16267 4.39824C1.01987 4.53474 0.790268 4.53334 0.648868 4.39754C0.506068 4.26244 0.496968 4.03494 0.639768 3.89914L3.88077 0.795336H4.12157V0.794636Z" fill="#8CB4BD"/>
<path id="Vector_2" opacity="0.4" d="M3.87819 3.37569C3.91039 3.34489 3.95379 3.32809 3.99859 3.32809C4.04339 3.32809 4.08679 3.34559 4.11899 3.37569M4.11969 3.37569L7.36069 6.47949C7.50349 6.61599 7.49439 6.84279 7.35229 6.97859C7.2102 7.11439 6.98059 7.11509 6.83849 6.97929L3.99929 4.26329L1.16009 6.97929C1.01729 7.11579 0.787694 7.11439 0.646294 6.97859C0.504194 6.84279 0.495094 6.61529 0.637894 6.47949L3.87889 3.37569H4.11969Z" fill="#8CB4BD"/>
</g>
<defs>
<clipPath id="clip0_2_4148">
<rect width="7" height="7" fill="white" transform="matrix(1 0 0 -1 0.5 7.5)"/>
</clipPath>
</defs>
</svg>
