<svg xmlns="http://www.w3.org/2000/svg" width="16" height="16" viewBox="0 0 16 16" fill="none">
    <path d="M3.46176 14.0005H12.3522C12.8312 14.0007 13.2907 13.8107 13.6297 13.4723C13.9687 13.1339 14.1595 12.6747 14.1602 12.1957V4.98449C14.1595 4.50547 13.9687 4.04629 13.6297 3.70787C13.2907 3.36945 12.8312 3.17948 12.3522 3.17969H11.6986C11.5713 3.17969 11.4492 3.23026 11.3591 3.32028C11.2691 3.41029 11.2186 3.53238 11.2186 3.65969C11.2186 3.78699 11.2691 3.90908 11.3591 3.9991C11.4492 4.08912 11.5713 4.13969 11.6986 4.13969H12.3522C12.4633 4.13948 12.5734 4.16116 12.6762 4.2035C12.779 4.24584 12.8724 4.30801 12.9511 4.38646C13.0299 4.46491 13.0924 4.5581 13.1351 4.66071C13.1778 4.76332 13.1999 4.87334 13.2002 4.98449V12.1949C13.2001 12.3061 13.178 12.4162 13.1353 12.5189C13.0927 12.6216 13.0302 12.7149 12.9514 12.7934C12.8726 12.872 12.7792 12.9342 12.6764 12.9766C12.5735 13.019 12.4634 13.0407 12.3522 13.0405H3.46176C3.23783 13.0401 3.0232 12.9509 2.86486 12.7926C2.70652 12.6342 2.61738 12.4196 2.61696 12.1957V4.98449C2.61738 4.76056 2.70652 4.54593 2.86486 4.38759C3.0232 4.22925 3.23783 4.14011 3.46176 4.13969H4.06656C4.19386 4.13969 4.31595 4.08912 4.40597 3.9991C4.49598 3.90908 4.54656 3.78699 4.54656 3.65969C4.54656 3.53238 4.49598 3.41029 4.40597 3.32028C4.31595 3.23026 4.19386 3.17969 4.06656 3.17969H3.46176C2.98315 3.18011 2.52425 3.37037 2.18575 3.70872C1.84725 4.04707 1.65679 4.50588 1.65615 4.98449V12.1949C1.65658 12.6736 1.84695 13.1326 2.18547 13.4712C2.524 13.8097 2.98301 14.0001 3.46176 14.0005Z" fill="#CEB864"/>
    <path d="M6.45763 4.14029H9.41763C9.54493 4.14029 9.66702 4.08972 9.75704 3.99971C9.84706 3.90969 9.89763 3.7876 9.89763 3.66029C9.89763 3.53299 9.84706 3.4109 9.75704 3.32088C9.66702 3.23087 9.54493 3.18029 9.41763 3.18029H6.45763C6.33033 3.18029 6.20824 3.23087 6.11822 3.32088C6.0282 3.4109 5.97763 3.53299 5.97763 3.66029C5.97763 3.7876 6.0282 3.90969 6.11822 3.99971C6.20824 4.08972 6.33033 4.14029 6.45763 4.14029ZM2.28243 7.53709H13.5312C13.6585 7.53709 13.7806 7.48652 13.8706 7.39651C13.9607 7.30649 14.0112 7.1844 14.0112 7.05709C14.0112 6.92979 13.9607 6.8077 13.8706 6.71768C13.7806 6.62767 13.6585 6.57709 13.5312 6.57709H2.28243C2.15513 6.57709 2.03304 6.62767 1.94302 6.71768C1.853 6.8077 1.80243 6.92979 1.80243 7.05709C1.80243 7.1844 1.853 7.30649 1.94302 7.39651C2.03304 7.48652 2.15513 7.53709 2.28243 7.53709ZM10.5728 5.41869C10.7001 5.41869 10.8222 5.36812 10.9122 5.27811C11.0023 5.18809 11.0528 5.066 11.0528 4.93869V2.60109C11.0528 2.47379 11.0023 2.3517 10.9122 2.26168C10.8222 2.17167 10.7001 2.12109 10.5728 2.12109C10.4455 2.12109 10.3234 2.17167 10.2334 2.26168C10.1434 2.3517 10.0928 2.47379 10.0928 2.60109V4.93869C10.0928 5.066 10.1434 5.18809 10.2334 5.27811C10.3234 5.36812 10.4455 5.41869 10.5728 5.41869ZM5.24083 5.41869C5.30386 5.41869 5.36628 5.40628 5.42452 5.38216C5.48275 5.35803 5.53567 5.32268 5.58024 5.27811C5.62481 5.23353 5.66017 5.18062 5.68429 5.12238C5.70842 5.06415 5.72083 5.00173 5.72083 4.93869V2.60109C5.72083 2.47379 5.67026 2.3517 5.58024 2.26168C5.49022 2.17167 5.36813 2.12109 5.24083 2.12109C5.11353 2.12109 4.99144 2.17167 4.90142 2.26168C4.8114 2.3517 4.76083 2.47379 4.76083 2.60109V4.93869C4.76083 5.066 4.8114 5.18809 4.90142 5.27811C4.99144 5.36812 5.11353 5.41869 5.24083 5.41869Z" fill="#CEB864"/>
</svg>
