<svg xmlns="http://www.w3.org/2000/svg" width="16" height="16" viewBox="0 0 16 16" fill="none">
    <g clip-path="url(#clip0_826_10851)">
        <path d="M10.8878 10.8952C10.6878 11.0952 10.3678 11.0952 10.1678 10.8952L7.9998 8.71922L5.8318 10.8872C5.6318 11.0872 5.3118 11.0872 5.1118 10.8872C4.9118 10.6872 4.9118 10.3672 5.1118 10.1672L7.2878 7.99922L5.1118 5.82322C4.9118 5.62322 4.9118 5.30322 5.1118 5.10322C5.3118 4.90322 5.6318 4.90322 5.8318 5.10322L7.9998 7.27922L10.1678 5.10322C10.3598 4.90322 10.6798 4.90322 10.8798 5.09522L10.8878 5.10322C11.0878 5.30322 11.0878 5.62322 10.8878 5.81522L8.7118 7.99922L10.8878 10.1752C11.0878 10.3752 11.0878 10.6952 10.8878 10.8952ZM7.9998 15.1992C4.0238 15.1992 0.799805 11.9752 0.799805 7.99922C0.799805 4.02322 4.0238 0.799219 7.9998 0.799219C11.9758 0.799219 15.1998 4.02322 15.1998 7.99922C15.1998 11.9752 11.9758 15.1992 7.9998 15.1992ZM12.3758 3.62322C11.2158 2.46322 9.6398 1.80722 7.9998 1.81522C6.3598 1.81522 4.7838 2.46322 3.6238 3.62322C2.4638 4.78322 1.8078 6.35922 1.8078 7.99922C1.8078 9.63922 2.4558 11.2152 3.6238 12.3752C4.7838 13.5352 6.3598 14.1912 7.9998 14.1832C9.6398 14.1832 11.2158 13.5352 12.3758 12.3672C13.5358 11.2072 14.1918 9.63122 14.1838 7.99122C14.1918 6.35922 13.5358 4.78322 12.3758 3.62322Z" fill="#CEB864"/>
    </g>
    <defs>
        <clipPath id="clip0_826_10851">
            <rect width="16" height="16" fill="white" transform="matrix(1 0 0 -1 0 16)"/>
        </clipPath>
    </defs>
</svg>
