<svg xmlns="http://www.w3.org/2000/svg" width="14" height="16" viewBox="0 0 14 16" fill="none">
    <path d="M12.9959 6.98237C12.3762 5.34972 11.2233 3.89032 10.437 3.71706C10.3307 3.69385 10.2203 3.69701 10.1155 3.72628C10.0107 3.75555 9.91468 3.81003 9.83579 3.88497C9.75691 3.95991 9.69758 4.05303 9.66297 4.15618C9.62837 4.25934 9.61956 4.3694 9.63729 4.47675C9.67643 4.69715 9.67643 4.92273 9.63729 5.14314C8.30452 1.87783 4.71268 0.151883 4.53942 0.0652524C4.40071 -0.00110899 4.24331 -0.0174573 4.09392 0.0189792C3.94453 0.0554157 3.81234 0.142395 3.71976 0.265169C3.62513 0.383361 3.57357 0.530255 3.57357 0.681662C3.57357 0.833069 3.62513 0.979963 3.71976 1.09816C4.56607 2.08441 4.15958 4.68999 3.21997 6.88241C2.84013 6.3493 2.5136 5.88949 1.99381 5.84284C1.87408 5.83292 1.75389 5.85555 1.64597 5.90834C1.53805 5.96113 1.4464 6.04211 1.38073 6.14272C1.32619 6.22528 1.29071 6.31894 1.27688 6.41692C1.26305 6.51489 1.27121 6.61472 1.30077 6.70915C1.24649 7.00961 1.17077 7.3058 1.0742 7.59545C0.681026 8.92823 0.0213006 11.174 1.00756 13.1398C2.06045 15.2589 4.66603 15.9986 6.95175 15.9986H7.39156C8.42836 15.9365 9.43522 15.627 10.3279 15.096C11.2205 14.565 11.973 13.8279 12.5224 12.9464C13.0718 12.0649 13.402 11.0647 13.4856 10.0294C13.5691 8.9941 13.4035 7.95386 13.0026 6.9957L12.9959 6.98237ZM11.2766 12.3934C10.8452 13.0513 10.2653 13.5985 9.58344 13.991C8.90163 14.3834 8.1371 14.61 7.35158 14.6525H7.26495C5.45903 14.7325 3.03338 14.226 2.19373 12.5401C1.44071 11.0407 1.98715 9.20811 2.347 7.96863C2.50912 8.2046 2.68961 8.42742 2.88677 8.63501C2.95958 8.70916 3.04872 8.76525 3.14707 8.79881C3.24542 8.83236 3.35026 8.84245 3.4532 8.82827C3.55685 8.81331 3.6555 8.77415 3.74118 8.71394C3.82686 8.65374 3.89714 8.57419 3.94633 8.48174C4.77932 6.9024 5.65895 4.29682 5.47236 2.25767C6.80514 3.2306 8.51776 4.92323 8.751 7.17562C8.76546 7.30986 8.82036 7.43653 8.90842 7.53887C8.99648 7.64121 9.11355 7.71439 9.24412 7.74872C9.3753 7.78309 9.51385 7.77663 9.64125 7.73019C9.76866 7.68375 9.87887 7.59955 9.95716 7.48883C10.3375 6.9764 10.6303 6.40443 10.8235 5.7962C11.3572 6.51349 11.7506 7.32517 11.983 8.18853C12.1978 8.89639 12.2459 9.64438 12.1233 10.3739C12.0008 11.1034 11.711 11.7947 11.2766 12.3934Z" fill="#CEB864"/>
</svg>
