<svg xmlns="http://www.w3.org/2000/svg" width="16" height="16" viewBox="0 0 16 16" fill="none">
    <path d="M14.2264 3.33484C12.5649 1.28284 9.55438 0.966338 7.50188 2.62834L5.92738 3.90334L6.71388 4.87484L8.28838 3.59984C8.64876 3.30801 9.06309 3.09002 9.50772 2.95831C9.95235 2.82661 10.4186 2.78377 10.8797 2.83224C11.3409 2.88071 11.788 3.01955 12.1956 3.24082C12.6031 3.46209 12.9631 3.76146 13.2549 4.12184C13.5467 4.48222 13.7647 4.89655 13.8964 5.34118C14.0281 5.7858 14.071 6.25202 14.0225 6.7132C13.974 7.17438 13.8352 7.6215 13.6139 8.02903C13.3926 8.43655 13.0933 8.79651 12.7329 9.08834L11.0459 10.4543L11.8324 11.4258L13.5194 10.0598C14.0074 9.66473 14.4129 9.17735 14.7125 8.62554C15.0122 8.07372 15.2002 7.46828 15.2659 6.84378C15.3315 6.21929 15.2735 5.58798 15.0952 4.98591C14.9168 4.38384 14.6216 3.8228 14.2264 3.33484ZM8.06788 12.8663C7.7075 13.1582 7.29317 13.3762 6.84855 13.5079C6.40392 13.6396 5.93771 13.6824 5.47652 13.6339C5.01534 13.5855 4.56822 13.4466 4.1607 13.2254C3.75317 13.0041 3.39321 12.7047 3.10138 12.3443C2.80955 11.984 2.59156 11.5696 2.45986 11.125C2.32815 10.6804 2.28532 10.2142 2.33379 9.75298C2.38226 9.2918 2.52109 8.84468 2.74236 8.43715C2.96363 8.02962 3.263 7.66967 3.62338 7.37784L5.35738 5.97384L4.57088 5.00234L2.83688 6.40634C0.784883 8.06784 0.468383 11.0788 2.12988 13.1308C3.79138 15.1828 6.80238 15.4993 8.85438 13.8378L10.4969 12.5078L9.71038 11.5363L8.06788 12.8663Z" fill="#CEB864"/>
    <path d="M10.5648 5.51953L11.3653 6.47953L5.99727 10.953L5.19727 9.99303L10.5648 5.51953Z" fill="#CEB864"/>
</svg>
