<svg width="48" height="48" viewBox="0 0 48 48" fill="none" xmlns="http://www.w3.org/2000/svg">
    <g filter="url(#filter0_b_0_1)">
        <rect width="48" height="48" rx="24" fill="#8AADBC" fill-opacity="0.1"/>
    </g>
    <path d="M33.3396 17.0062C30.8473 13.9282 26.3316 13.4534 23.2528 15.9464L20.8911 17.8589L22.0708 19.3162L24.4326 17.4037C24.9731 16.9659 25.5946 16.6389 26.2616 16.4414C26.9285 16.2438 27.6278 16.1796 28.3196 16.2523C29.0114 16.325 29.6821 16.5332 30.2934 16.8651C30.9046 17.197 31.4446 17.6461 31.8823 18.1867C32.3201 18.7272 32.6471 19.3487 32.8446 20.0157C33.0422 20.6826 33.1064 21.3819 33.0337 22.0737C32.961 22.7655 32.7528 23.4362 32.4209 24.0474C32.089 24.6587 31.6399 25.1987 31.0993 25.6364L28.5688 27.6854L29.7486 29.1427L32.2791 27.0937C33.0111 26.501 33.6193 25.7699 34.0688 24.9422C34.5183 24.1145 34.8003 23.2063 34.8988 22.2696C34.9973 21.3328 34.9103 20.3859 34.6428 19.4828C34.3752 18.5797 33.9324 17.7381 33.3396 17.0062ZM24.1018 31.3034C23.5613 31.7412 22.9398 32.0681 22.2728 32.2657C21.6059 32.4633 20.9066 32.5275 20.2148 32.4548C19.523 32.3821 18.8523 32.1738 18.241 31.8419C17.6298 31.51 17.0898 31.061 16.6521 30.5204C16.2143 29.9798 15.8873 29.3583 15.6898 28.6914C15.4922 28.0245 15.428 27.3251 15.5007 26.6334C15.5734 25.9416 15.7816 25.2709 16.1135 24.6596C16.4454 24.0483 16.8945 23.5084 17.4351 23.0707L20.0361 20.9647L18.8563 19.5074L16.2553 21.6134C13.1773 24.1057 12.7026 28.6222 15.1948 31.7002C17.6871 34.7782 22.2036 35.2529 25.2816 32.7607L27.7453 30.7657L26.5656 29.3084L24.1018 31.3034Z" fill="#CEB864"/>
    <path d="M27.8476 20.2812L29.0484 21.7213L20.9964 28.4315L19.7964 26.9915L27.8476 20.2812Z" fill="#CEB864"/>
    <defs>
        <filter id="filter0_b_0_1" x="-217.9" y="-217.9" width="483.8" height="483.8" filterUnits="userSpaceOnUse" color-interpolation-filters="sRGB">
            <feFlood flood-opacity="0" result="BackgroundImageFix"/>
            <feGaussianBlur in="BackgroundImageFix" stdDeviation="108.95"/>
            <feComposite in2="SourceAlpha" operator="in" result="effect1_backgroundBlur_0_1"/>
            <feBlend mode="normal" in="SourceGraphic" in2="effect1_backgroundBlur_0_1" result="shape"/>
        </filter>
    </defs>
</svg>
