<svg width="9" height="9" viewBox="0 0 9 9" fill="none" xmlns="http://www.w3.org/2000/svg">
<g clip-path="url(#clip0_50_2014)">
<path d="M5.01858 8.12031H3.98045C3.74712 8.12031 3.52335 8.02762 3.35836 7.86264C3.19338 7.69765 3.10069 7.47388 3.10069 7.24055C3.10069 6.91503 2.93353 6.62471 2.65201 6.44876C2.14962 6.13452 1.7357 5.69734 1.44936 5.17855C1.16303 4.65976 1.01375 4.07651 1.01564 3.48395C1.01645 2.95133 1.13937 2.42599 1.37495 1.9483C1.61053 1.47061 1.9525 1.0533 2.37458 0.728439C2.79666 0.403577 3.2876 0.179815 3.80967 0.0743512C4.33174 -0.0311123 4.87105 -0.0154688 5.38613 0.120079C5.90121 0.255627 6.37836 0.507471 6.78089 0.856252C7.18343 1.20503 7.50064 1.64147 7.70813 2.13201C7.91563 2.62255 8.00789 3.15413 7.97783 3.6859C7.94776 4.21767 7.79617 4.73547 7.5347 5.19949C7.24762 5.70494 6.83952 6.13119 6.34702 6.43996C6.0655 6.61591 5.89834 6.90624 5.89834 7.23175C5.8995 7.34802 5.87761 7.46337 5.83391 7.57112C5.79022 7.67888 5.7256 7.77691 5.64379 7.85953C5.56198 7.94216 5.46461 8.00775 5.35729 8.05251C5.24998 8.09727 5.13485 8.12032 5.01858 8.12031ZM4.49951 0.70389C2.96872 0.70389 1.71946 1.95316 1.71946 3.48395C1.71946 4.45169 2.21212 5.33146 3.03031 5.84172C3.26507 5.9909 3.45866 6.19659 3.59336 6.43996C3.7312 6.68431 3.80391 6.96 3.8045 7.24055C3.8045 7.26365 3.80905 7.28653 3.81789 7.30788C3.82674 7.32923 3.8397 7.34863 3.85603 7.36496C3.87237 7.3813 3.89177 7.39426 3.91312 7.40311C3.93447 7.41195 3.95735 7.4165 3.98045 7.4165H5.01858C5.06524 7.4165 5.10999 7.39796 5.14299 7.36496C5.17599 7.33197 5.19453 7.28721 5.19453 7.24055C5.19512 6.96 5.26783 6.68431 5.40567 6.43996C5.54036 6.19659 5.73395 5.9909 5.96872 5.84172C6.7869 5.33146 7.27957 4.45169 7.27957 3.48395C7.27957 1.95316 6.0303 0.70389 4.49951 0.70389ZM5.56403 9.00008H3.435C3.34168 9.00006 3.25218 8.96298 3.1862 8.89699C3.12021 8.83099 3.08315 8.74149 3.08315 8.64817C3.08315 8.55485 3.12021 8.46535 3.1862 8.39936C3.25218 8.33336 3.34168 8.29628 3.435 8.29627H5.56403C5.61025 8.29626 5.65601 8.30536 5.69871 8.32304C5.74142 8.34072 5.78022 8.36664 5.8129 8.39932C5.84558 8.432 5.87151 8.47079 5.8892 8.51349C5.90689 8.55619 5.91599 8.60195 5.91599 8.64817C5.91599 8.69439 5.90689 8.74016 5.8892 8.78285C5.87151 8.82555 5.84558 8.86435 5.8129 8.89703C5.78022 8.92971 5.74142 8.95563 5.69871 8.97331C5.65601 8.99099 5.61025 9.00009 5.56403 9.00008Z" fill="#CEB864"/>
<path d="M5.38091 7.19649H3.62138C3.52806 7.19647 3.43857 7.15939 3.37258 7.0934C3.3066 7.0274 3.26953 6.9379 3.26953 6.84458C3.26953 6.75126 3.3066 6.66176 3.37258 6.59577C3.43857 6.52977 3.52806 6.49269 3.62138 6.49268H5.38091C5.47423 6.49269 5.56373 6.52977 5.62971 6.59577C5.69569 6.66176 5.73276 6.75126 5.73276 6.84458C5.73276 6.9379 5.69569 7.0274 5.62971 7.0934C5.56373 7.15939 5.47423 7.19647 5.38091 7.19649Z" fill="#CEB864"/>
<path d="M4.50034 6.85322C4.40701 6.85322 4.3175 6.81615 4.25151 6.75015C4.18551 6.68415 4.14844 6.59465 4.14844 6.50132V4.02038C4.14873 3.96796 4.16073 3.91627 4.18357 3.86908C4.2064 3.8219 4.23948 3.78041 4.2804 3.74765L5.18656 2.99985C5.25889 2.94035 5.3519 2.91202 5.44512 2.9211C5.53833 2.93017 5.62413 2.9759 5.68363 3.04824C5.74313 3.12057 5.77145 3.21357 5.76238 3.30679C5.75331 3.40001 5.70757 3.4858 5.63524 3.5453L4.85225 4.18753V6.50132C4.85225 6.59465 4.81517 6.68415 4.74918 6.75015C4.68318 6.81615 4.59367 6.85322 4.50034 6.85322Z" fill="#CEB864"/>
<path d="M4.50907 4.35488C4.43293 4.35488 4.35884 4.33018 4.29793 4.2845L3.31259 3.55429C3.23794 3.49829 3.1886 3.41493 3.17541 3.32254C3.16222 3.23016 3.18627 3.13632 3.24226 3.06166C3.29825 2.98701 3.3816 2.93765 3.47399 2.92444C3.56637 2.91124 3.66021 2.93527 3.73488 2.99124L4.72021 3.72145C4.7793 3.76577 4.82295 3.82755 4.84497 3.89805C4.86699 3.96855 4.86627 4.04419 4.84292 4.11426C4.81956 4.18433 4.77475 4.24527 4.71483 4.28846C4.65492 4.33164 4.58293 4.35488 4.50907 4.35488Z" fill="#CEB864"/>
</g>
<defs>
<clipPath id="clip0_50_2014">
<rect width="9" height="9" fill="white"/>
</clipPath>
</defs>
</svg>
