<svg width="18" height="18" viewBox="0 0 18 18" fill="none" xmlns="http://www.w3.org/2000/svg">
<path d="M9.60875 1.125C10.8368 1.12519 12.0313 1.52557 13.0114 2.2655C13.9915 3.00544 14.7037 4.04461 15.0402 5.22562H13.6565C13.4436 4.65564 13.1123 4.13725 12.6845 3.70462C12.2807 3.30079 11.8011 2.98062 11.2733 2.76248C10.7455 2.54433 10.1798 2.43249 9.60875 2.43338H8.25762C7.68612 2.43163 7.11994 2.54318 6.59182 2.76157C6.06369 2.97997 5.58409 3.30088 5.18074 3.70575C4.77605 4.1097 4.45528 4.58973 4.23691 5.11819C4.01854 5.64664 3.90688 6.21308 3.90837 6.78488V7.749C3.90659 7.83736 3.88748 7.92451 3.85212 8.0055L2.42337 11.3479L3.79924 11.6235C3.94737 11.6525 4.08079 11.7321 4.17665 11.8487C4.2725 11.9653 4.32482 12.1116 4.32462 12.2625V14.0096C4.32462 14.3944 4.39212 14.6599 4.48662 14.8489C4.56649 15.0176 4.68912 15.1639 4.84437 15.2719C5.1335 15.4834 5.59024 15.5734 5.98737 15.57C6.19437 15.5723 6.40249 15.5509 6.60612 15.5059C7.11012 15.3709 7.85149 15.1684 8.62662 14.9546L9.29487 14.7713L9.95074 14.589C11.1286 14.2628 12.104 13.9916 12.1062 13.9894L12.4572 15.2449C12.4572 15.2449 8.54674 16.3384 6.94024 16.7681C6.70849 16.8244 6.38562 16.8727 5.98624 16.875C5.56549 16.875 5.06937 16.8187 4.57662 16.6084C4.02129 16.3822 3.56955 15.9581 3.30874 15.4181C3.11749 15.0221 3.01737 14.5496 3.01737 14.0096V12.7969L1.38162 12.4706C1.28655 12.4511 1.19699 12.4108 1.11939 12.3525C1.04179 12.2942 0.978101 12.2195 0.932901 12.1336C0.887702 12.0477 0.862124 11.9529 0.858011 11.8559C0.853899 11.7589 0.871354 11.6623 0.90912 11.5729L2.60337 7.614V6.786C2.60263 6.04295 2.74833 5.30703 3.03214 4.62031C3.31594 3.9336 3.7323 3.30954 4.2574 2.78381C4.78251 2.25808 5.40607 1.84098 6.09245 1.55635C6.77883 1.27172 7.51457 1.12515 8.25762 1.125H9.60875ZM12.8814 6.60713L14.9581 13.0927H13.3977L13.0006 11.6392H10.9644L10.5177 13.0927H9.05187L11.2085 6.60713H12.8814ZM17.1496 6.60487V13.0871H15.6264V6.60375H17.1507L17.1496 6.60487ZM12.0342 7.84913H12.014L11.2411 10.5412H12.7002L12.0342 7.848V7.84913Z" fill="#CEB864"/>
</svg>
