<svg width="18" height="18" viewBox="0 0 18 18" fill="none" xmlns="http://www.w3.org/2000/svg">
<path d="M9.60679 1.125C10.8348 1.12519 12.0293 1.52557 13.0094 2.2655C13.9895 3.00544 14.7018 4.04461 15.0383 5.22563H13.6545C13.4417 4.65564 13.1104 4.13725 12.6825 3.70462C12.2787 3.30079 11.7992 2.98062 11.2714 2.76248C10.7436 2.54433 10.1779 2.43249 9.60679 2.43338H8.25567C7.68417 2.43163 7.11799 2.54318 6.58987 2.76157C6.06174 2.97997 5.58214 3.30088 5.17879 3.70575C4.7741 4.1097 4.45333 4.58973 4.23496 5.11819C4.01659 5.64664 3.90493 6.21308 3.90642 6.78487V7.749C3.90464 7.83736 3.88553 7.92451 3.85017 8.0055L2.42142 11.3479L3.79729 11.6235C3.94541 11.6525 4.07884 11.7321 4.1747 11.8487C4.27055 11.9653 4.32286 12.1116 4.32267 12.2625V14.0096C4.32267 14.3944 4.39017 14.6599 4.48467 14.8489C4.56454 15.0176 4.68717 15.1639 4.84242 15.2719C5.13154 15.4834 5.58829 15.5734 5.98542 15.57C6.19242 15.5723 6.40054 15.5509 6.60417 15.5059C7.10817 15.3709 7.84954 15.1684 8.62467 14.9546L9.29292 14.7712L9.94879 14.589C11.1267 14.2628 12.102 13.9916 12.1043 13.9894L12.4553 15.2449C12.4553 15.2449 8.54479 16.3384 6.93829 16.7681C6.70654 16.8244 6.38367 16.8728 5.98429 16.875C5.56354 16.875 5.06742 16.8187 4.57467 16.6084C4.01933 16.3822 3.56759 15.9581 3.30679 15.4181C3.11554 15.0221 3.01542 14.5496 3.01542 14.0096V12.7969L1.37967 12.4706C1.2846 12.4511 1.19503 12.4108 1.11744 12.3525C1.03984 12.2942 0.976148 12.2195 0.930948 12.1336C0.885749 12.0477 0.86017 11.9529 0.856058 11.8559C0.851945 11.7589 0.869401 11.6623 0.907167 11.5729L2.60142 7.614V6.786C2.60068 6.04295 2.74638 5.30703 3.03018 4.62031C3.31399 3.9336 3.73035 3.30954 4.25545 2.78381C4.78055 2.25808 5.40412 1.84098 6.09049 1.55635C6.77687 1.27172 7.51261 1.12515 8.25567 1.125H9.60679ZM12.8794 6.60713L14.9562 13.0927H13.3958L12.9987 11.6392H10.9624L10.5158 13.0927H9.04992L11.2065 6.60713H12.8794ZM17.1477 6.60487V13.0871H15.6244V6.60375H17.1488L17.1477 6.60487ZM12.0323 7.84913H12.012L11.2392 10.5413H12.6983L12.0323 7.848V7.84913Z" fill="#CEB864"/>
</svg>
