<svg width="10" height="10" viewBox="0 0 10 10" fill="none" xmlns="http://www.w3.org/2000/svg">
<g id="&#233;&#152;&#191;&#233;&#135;&#140;&#229;&#183;&#180;&#229;&#183;&#180;&#231;&#159;&#162;&#233;&#135;&#143;&#229;&#155;&#190;&#230;&#160;&#135; (19) 1">
<path id="Vector" d="M4.96457 10C2.64359 10 1 8.36338 1 6.11C1 4.91283 1.70491 3.62322 1.73584 3.57039C1.76598 3.5164 1.81134 3.47259 1.86618 3.44448C1.92103 3.41637 1.98292 3.40523 2.04406 3.41245C2.16903 3.42909 2.26884 3.52082 2.30336 3.6424C2.3057 3.64909 2.49631 4.37405 2.74645 4.77533C2.91422 5.04617 3.08596 5.23614 3.27873 5.36948C3.14818 4.79596 3.04909 3.93206 3.21111 3.04753C3.65348 0.618288 5.5348 0.0353569 5.61518 0.0116561C5.66613 -0.00279243 5.71992 -0.00382628 5.77138 0.00865372C5.82284 0.0211337 5.87025 0.0467088 5.90907 0.0829258C5.94788 0.119143 5.97679 0.164787 5.99303 0.215479C6.00927 0.266171 6.01229 0.320211 6.0018 0.372415C6 0.389059 5.68801 2.09154 6.34652 3.54217C6.40658 3.67424 6.48948 3.82622 6.57921 3.98072C6.60429 3.7604 6.64699 3.54246 6.70689 3.32904C6.94965 2.46912 7.57436 2.17494 7.60133 2.16372C7.65248 2.14067 7.70891 2.13212 7.76454 2.13901C7.82017 2.14589 7.87286 2.16796 7.91692 2.2028C7.9615 2.23818 7.9956 2.28515 8.01554 2.33863C8.03548 2.39211 8.04049 2.45007 8.03003 2.50621C8.02661 2.52792 7.93886 3.11375 8.43014 3.94363C8.87358 4.69283 9 5.17879 9 6.11199C8.99784 8.36446 7.30318 10 4.96457 10ZM1.98777 4.64326C1.80931 5.10139 1.71676 5.58882 1.7148 6.08087C1.7148 7.91578 3.05916 9.247 4.96583 9.247C6.88743 9.247 8.28178 7.91578 8.28178 6.08032C8.28178 5.28698 8.18522 4.92079 7.81298 4.28956C7.56447 3.86873 7.44021 3.49042 7.38392 3.18828C7.31617 3.30038 7.2643 3.42144 7.22982 3.54796C7.04819 4.19385 7.09495 4.95191 7.09495 4.96042C7.09891 5.02608 7.0817 5.09128 7.04586 5.14631C7.01002 5.20134 6.95748 5.24325 6.89606 5.26581C6.77036 5.31159 6.62992 5.26617 6.55404 5.15545C6.53048 5.12379 6.00072 4.35939 5.76713 3.84286C5.28268 2.77578 5.28916 1.62041 5.33807 0.955345C4.84697 1.24627 4.09117 1.89741 3.84733 3.22085C3.61122 4.51046 4.06995 5.85833 4.07463 5.87082C4.09421 5.9226 4.0995 5.97875 4.08994 6.03331C4.08038 6.08787 4.05632 6.13881 4.02032 6.18074C3.98489 6.22244 3.93863 6.25342 3.88671 6.27019C3.83478 6.28696 3.77925 6.28888 3.72631 6.27572C3.6898 6.26667 2.78871 6.0445 2.24564 5.1721C2.14579 5.00303 2.05956 4.82618 1.98777 4.64326Z" fill="#CEB864"/>
</g>
</svg>
