<svg width="10" height="10" viewBox="0 0 10 10" fill="none" xmlns="http://www.w3.org/2000/svg">
<g id="&#233;&#152;&#191;&#233;&#135;&#140;&#229;&#183;&#180; (10) 1">
<path id="Subtract" fill-rule="evenodd" clip-rule="evenodd" d="M0.584961 8.46527H7.85996C8.71496 8.46527 9.41496 7.76527 9.41996 6.90527V3.09027C9.41996 2.23027 8.71496 1.53027 7.85996 1.53027H2.14496C1.28496 1.53027 0.584961 2.23527 0.584961 3.09027V8.46527ZM2.43514 2.25488H7.56514C8.20514 2.25488 8.73014 2.77988 8.73014 3.41988V6.56988C8.73014 7.21488 8.20514 7.73988 7.56014 7.73988H1.36514C1.31514 7.73988 1.26514 7.69988 1.26514 7.63988V3.42488C1.26514 2.77988 1.79014 2.25488 2.43514 2.25488Z" fill="#CEB864"/>
<path id="Vector" d="M7.37495 4.46004H2.40995C2.3211 4.46004 2.2359 4.42474 2.17307 4.36192C2.11025 4.29909 2.07495 4.21389 2.07495 4.12504C2.07495 4.03619 2.11025 3.95098 2.17307 3.88816C2.2359 3.82533 2.3211 3.79004 2.40995 3.79004H7.37495C7.4638 3.79004 7.54901 3.82533 7.61183 3.88816C7.67466 3.95098 7.70995 4.03619 7.70995 4.12504C7.70995 4.21389 7.67466 4.29909 7.61183 4.36192C7.54901 4.42474 7.4638 4.46004 7.37495 4.46004ZM4.40495 6.31004H2.40995C2.3211 6.31004 2.2359 6.27474 2.17307 6.21192C2.11025 6.1491 2.07495 6.06389 2.07495 5.97504C2.07495 5.88619 2.11025 5.80098 2.17307 5.73816C2.2359 5.67533 2.3211 5.64004 2.40995 5.64004H4.40495C4.58995 5.64004 4.73995 5.79004 4.73995 5.97504C4.73995 6.16504 4.58995 6.31004 4.40495 6.31004Z" fill="#CEB864"/>
</g>
</svg>
