<svg width="28" height="28" viewBox="0 0 28 28" fill="none" xmlns="http://www.w3.org/2000/svg">
<path d="M9.56797 22.8665V17.3248H11.7846V22.8665H21.7596V15.1082H6.24297V22.8665H9.56797ZM5.13464 12.8915H22.868V9.5665H16.218V5.13317H11.7846V9.5665H5.13464V12.8915ZM4.0263 23.9748V15.1082H2.91797V8.45817C2.91797 7.84567 3.4138 7.34984 4.0263 7.34984H9.56797V4.02484C9.56797 3.41234 10.0638 2.9165 10.6763 2.9165H17.3263C17.9388 2.9165 18.4346 3.41234 18.4346 4.02484V7.34984H23.9763C24.5888 7.34984 25.0846 7.84567 25.0846 8.45817V15.1082H23.9763V23.9748C23.9763 24.2688 23.8595 24.5507 23.6517 24.7585C23.4438 24.9664 23.1619 25.0832 22.868 25.0832H5.13464C4.84069 25.0832 4.55878 24.9664 4.35093 24.7585C4.14307 24.5507 4.0263 24.2688 4.0263 23.9748Z" fill="#8CB4BD" fill-opacity="0.4"/>
</svg>
