<svg width="16" height="16" viewBox="0 0 16 16" fill="none" xmlns="http://www.w3.org/2000/svg">
<path d="M3 3.5H6.75V5H4.5V7.25H3V3.5ZM3 13V9.25H4.5V11.5H6.75V13H3ZM12.5 13V9.25H11V11.5H8.75V13H12.5ZM12.5 3.5V7.25H11V5H8.75V3.5H12.5ZM7.7 9.8C8.09782 9.8 8.47936 9.64196 8.76066 9.36066C9.04196 9.07936 9.2 8.69782 9.2 8.3C9.2 7.90218 9.04196 7.52064 8.76066 7.23934C8.47936 6.95804 8.09782 6.8 7.7 6.8C7.30218 6.8 6.92064 6.95804 6.63934 7.23934C6.35804 7.52064 6.2 7.90218 6.2 8.3C6.2 8.69782 6.35804 9.07936 6.63934 9.36066C6.92064 9.64196 7.30218 9.8 7.7 9.8Z" fill="#192836"/>
</svg>
