<svg width="10" height="10" viewBox="0 0 10 10" fill="none" xmlns="http://www.w3.org/2000/svg">
<path d="M2.48203 1.39674C2.55362 1.48096 2.58883 1.59016 2.57992 1.70033C2.57101 1.8105 2.51872 1.91262 2.43453 1.98424C1.99698 2.35541 1.64556 2.81747 1.40475 3.33827C1.16395 3.85907 1.03953 4.42609 1.04016 4.99987C1.04016 6.20799 1.58078 7.28924 2.43391 8.01612C2.51175 8.0894 2.55845 8.18979 2.56438 8.29654C2.5703 8.40328 2.53499 8.50822 2.46574 8.58967C2.39649 8.67111 2.29859 8.72284 2.19228 8.73416C2.08598 8.74548 1.97938 8.71553 1.89453 8.65049C1.36501 8.20105 0.939756 7.64166 0.648333 7.01121C0.356911 6.38077 0.20632 5.69441 0.207034 4.99987C0.207034 3.53737 0.862034 2.22737 1.89453 1.34924C1.97875 1.27766 2.08795 1.24245 2.19812 1.25136C2.30829 1.26026 2.41041 1.31256 2.48203 1.39674ZM7.51453 1.39674C7.58616 1.31256 7.68828 1.26026 7.79845 1.25136C7.90862 1.24245 8.01782 1.27766 8.10203 1.34924C8.63155 1.79868 9.05681 2.35808 9.34823 2.98852C9.63966 3.61897 9.79025 4.30533 9.78953 4.99987C9.78953 6.46237 9.13391 7.77237 8.10203 8.65049C8.01732 8.71696 7.91016 8.74807 7.80302 8.73731C7.69588 8.72654 7.59706 8.67473 7.52726 8.59274C7.45747 8.51074 7.4221 8.40491 7.42859 8.29743C7.43507 8.18994 7.48289 8.08913 7.56203 8.01612C7.99967 7.64488 8.35113 7.18272 8.59194 6.66181C8.83276 6.14089 8.95713 5.57375 8.95641 4.99987C8.95713 4.42599 8.83276 3.85884 8.59194 3.33793C8.35113 2.81702 7.99967 2.35485 7.56203 1.98362C7.47785 1.912 7.42555 1.80987 7.41665 1.6997C7.40774 1.58953 7.44295 1.48033 7.51453 1.39612V1.39674Z" fill="#CEB864"/>
<path d="M3.93703 2.69805C3.99917 2.78933 4.02255 2.90154 4.00205 3.01004C3.98154 3.11855 3.91882 3.21448 3.82766 3.2768C3.54665 3.46781 3.31668 3.72472 3.15783 4.02508C2.99899 4.32545 2.9161 4.66014 2.91641 4.99992C2.9161 5.3397 2.99899 5.67439 3.15783 5.97476C3.31668 6.27513 3.54665 6.53203 3.82766 6.72305C3.91435 6.78708 3.97287 6.8822 3.99095 6.98845C4.00902 7.0947 3.98525 7.20382 3.92461 7.29292C3.86397 7.38201 3.77118 7.44417 3.66571 7.46633C3.56024 7.48849 3.45028 7.46895 3.35891 7.4118C2.96539 7.14451 2.64329 6.78497 2.42072 6.36455C2.19814 5.94413 2.08186 5.47562 2.08203 4.99992C2.08203 3.99742 2.58828 3.11242 3.35766 2.58867C3.40288 2.5578 3.45374 2.53615 3.50733 2.52494C3.56092 2.51373 3.6162 2.51319 3.67 2.52335C3.7238 2.53351 3.77507 2.55416 3.82089 2.58414C3.86671 2.61411 3.90617 2.65282 3.93703 2.69805ZM6.06141 2.69805C6.12372 2.60688 6.21965 2.54416 6.32816 2.52365C6.43666 2.50315 6.54887 2.52653 6.64016 2.58867C7.0335 2.85592 7.35546 3.21539 7.57792 3.6357C7.80039 4.056 7.9166 4.52437 7.91641 4.99992C7.91641 6.00305 7.41016 6.88742 6.64016 7.4118C6.59503 7.44513 6.54364 7.46901 6.48907 7.482C6.4345 7.495 6.37786 7.49685 6.32256 7.48744C6.26725 7.47804 6.21442 7.45756 6.16721 7.42725C6.12001 7.39693 6.07941 7.3574 6.04785 7.31103C6.01628 7.26465 5.9944 7.21238 5.98352 7.15734C5.97264 7.10231 5.97298 7.04564 5.98451 6.99074C5.99605 6.93584 6.01855 6.88384 6.05066 6.83784C6.08278 6.79184 6.12384 6.7528 6.17141 6.72305C6.4523 6.53196 6.68215 6.27502 6.84088 5.97466C6.99961 5.6743 7.08241 5.33965 7.08203 4.99992C7.08227 4.66008 6.99928 4.32536 6.84033 4.02499C6.68137 3.72461 6.45128 3.46774 6.17016 3.2768C6.07899 3.21448 6.01627 3.11855 5.99577 3.01004C5.97526 2.90154 5.99864 2.78933 6.06078 2.69805H6.06141Z" fill="#CEB864"/>
<path d="M4.99891 6.04176C5.27523 6.04176 5.54023 5.93199 5.73562 5.7366C5.93101 5.54121 6.04078 5.27621 6.04078 4.99988C6.04078 4.72356 5.93101 4.45856 5.73562 4.26317C5.54023 4.06778 5.27523 3.95801 4.99891 3.95801C4.72258 3.95801 4.45758 4.06778 4.26219 4.26317C4.0668 4.45856 3.95703 4.72356 3.95703 4.99988C3.95703 5.27621 4.0668 5.54121 4.26219 5.7366C4.45758 5.93199 4.72258 6.04176 4.99891 6.04176Z" fill="#CEB864"/>
</svg>
