<svg width="16" height="16" viewBox="0 0 16 16" fill="none" xmlns="http://www.w3.org/2000/svg">
<g id="&#231;&#174;&#128;&#230;&#138;&#165; ">
<path id="Vector" d="M4.98803 7.03706C4.72605 6.77456 4.31851 6.77456 4.05652 7.03706L1.23287 9.86623C0.97088 10.1287 0.97088 10.5371 1.23287 10.7996C1.49486 11.0621 1.90239 11.0621 2.16438 10.7996L4.52228 8.43706L6.88017 10.7996C7.02572 10.9454 7.17127 11.0037 7.34593 11.0037C7.52059 11.0037 7.69525 10.9454 7.81169 10.7996L10.7227 7.88289L11.1884 8.34956C11.3631 8.52456 11.6833 8.43706 11.7415 8.20373L12.4984 5.40373C12.5566 5.17039 12.3528 4.93706 12.0908 4.99539L9.29629 5.75373C9.06341 5.81206 8.97608 6.13289 9.15074 6.30789L9.79115 6.94956L7.34593 9.39956L4.98803 7.03706Z" fill="#CEB864"/>
<path id="Vector_2" d="M13.2552 1H2.77564C1.81502 1 1.02905 1.7875 1.02905 2.75V5.66667C1.02905 5.9875 1.29104 6.25 1.61125 6.25C1.93146 6.25 2.19345 5.9875 2.19345 5.66667V2.75C2.19345 2.42917 2.45543 2.16667 2.77564 2.16667H13.2552C13.5754 2.16667 13.8374 2.42917 13.8374 2.75V13.25C13.8374 13.5708 13.5754 13.8333 13.2552 13.8333H2.77564C2.45543 13.8333 2.19345 13.5708 2.19345 13.25V12.9292C2.19345 12.6083 1.93146 12.3458 1.61125 12.3458C1.29104 12.3458 1.02905 12.6083 1.02905 12.9292V13.25C1.02905 14.2125 1.81502 15 2.77564 15H13.2552C14.2158 15 15.0018 14.2125 15.0018 13.25V2.75C15.0018 1.7875 14.2158 1 13.2552 1Z" fill="#CEB864"/>
</g>
</svg>
