<svg width="38" height="38" viewBox="0 0 38 38" fill="none" xmlns="http://www.w3.org/2000/svg">
<g id="Alibaba Send 1">
<path id="Vector" d="M7.85467 30.1776C9.32257 31.6456 11.0652 32.81 12.9832 33.6045C14.9011 34.399 16.9567 34.8079 19.0327 34.8079C21.1087 34.8079 23.1643 34.3991 25.0822 33.6046C27.0002 32.8102 28.7429 31.6458 30.2108 30.1779C31.6787 28.7099 32.8432 26.9672 33.6376 25.0493C34.432 23.1313 34.8409 21.0757 34.8409 18.9997C34.8408 16.9238 34.4319 14.8681 33.6375 12.9502C32.843 11.0323 31.6785 9.28961 30.2106 7.82171C28.7427 6.35375 27 5.18929 25.0821 4.39482C23.1641 3.60035 21.1085 3.19143 19.0325 3.19141C16.9566 3.19138 14.9009 3.60026 12.983 4.39468C11.065 5.18911 9.32235 6.35353 7.85442 7.82146C6.38649 9.28939 5.22207 11.0321 4.42764 12.95C3.63322 14.868 3.22434 16.9236 3.22437 18.9996C3.22439 21.0756 3.63331 23.1312 4.42778 25.0491C5.22225 26.967 6.38671 28.7097 7.85467 30.1776Z" fill="#CEB864"/>
<path id="Vector_2" d="M9.88007 15.8727L25.5589 12.029C25.729 11.9878 25.9073 11.9956 26.0732 12.0515C26.239 12.1073 26.3857 12.209 26.4962 12.3448C26.6067 12.4805 26.6765 12.6448 26.6976 12.8185C26.7187 12.9923 26.6901 13.1685 26.6153 13.3267L19.629 27.9909C19.5484 28.1562 19.4204 28.2938 19.2613 28.386C19.1022 28.4783 18.9192 28.521 18.7356 28.5088C18.5521 28.4965 18.3764 28.4299 18.231 28.3173C18.0855 28.2048 17.9769 28.0515 17.919 27.8769L16.1387 22.3327C16.0877 22.1786 16.0784 22.0137 16.1118 21.8549C16.1452 21.696 16.22 21.5489 16.3287 21.4283L19.3801 18.0501C19.422 18.0073 19.4468 17.9507 19.4498 17.8909C19.4528 17.831 19.4338 17.7722 19.3964 17.7254C19.359 17.6786 19.3058 17.6472 19.2467 17.637C19.1877 17.6268 19.127 17.6386 19.0761 17.6701L15.031 20.0318C14.8926 20.1125 14.7357 20.1559 14.5755 20.1579C14.4154 20.1599 14.2574 20.1204 14.1171 20.0432L9.65777 17.5827C9.49515 17.4926 9.36337 17.3557 9.27954 17.1897C9.19571 17.0238 9.1637 16.8365 9.18767 16.6521C9.21164 16.4678 9.29047 16.2949 9.41394 16.1559C9.53741 16.0169 9.69982 15.9182 9.88007 15.8727Z" fill="black"/>
</g>
</svg>
