<svg width="16" height="16" viewBox="0 0 16 16" fill="none" xmlns="http://www.w3.org/2000/svg">
<path d="M3.30898 12.7064C3.92704 13.3244 4.66079 13.8147 5.46834 14.1493C6.27589 14.4838 7.14142 14.656 8.01551 14.656C8.8896 14.656 9.75514 14.4838 10.5627 14.1493C11.3703 13.8148 12.104 13.3245 12.7221 12.7065C13.3402 12.0884 13.8304 11.3546 14.1649 10.5471C14.4994 9.73951 14.6716 8.87398 14.6716 7.99989C14.6716 7.1258 14.4994 6.26027 14.1649 5.45272C13.8304 4.64517 13.3401 3.91142 12.722 3.29335C12.1039 2.67526 11.3702 2.18496 10.5626 1.85045C9.75507 1.51594 8.88954 1.34376 8.01545 1.34375C7.14136 1.34374 6.27583 1.5159 5.46827 1.85039C4.66071 2.18489 3.92695 2.67517 3.30887 3.29325C2.6908 3.91132 2.20051 4.64509 1.86602 5.45264C1.53152 6.2602 1.35937 7.12573 1.35938 7.99983C1.35938 8.87392 1.53156 9.73945 1.86608 10.547C2.20059 11.3545 2.69089 12.0883 3.30898 12.7064Z" fill="#8CB4BD" fill-opacity="0.4"/>
<path d="M4.15808 6.68308L10.7597 5.06468C10.8313 5.04733 10.9064 5.05061 10.9762 5.07414C11.0461 5.09767 11.1078 5.14049 11.1543 5.19764C11.2009 5.2548 11.2303 5.32396 11.2391 5.39712C11.248 5.47029 11.236 5.54447 11.2045 5.61108L8.26288 11.7855C8.22895 11.8551 8.17505 11.913 8.10805 11.9519C8.04106 11.9907 7.96401 12.0087 7.88674 12.0035C7.80947 11.9984 7.73549 11.9703 7.67424 11.9229C7.613 11.8755 7.56726 11.811 7.54288 11.7375L6.79328 9.40308C6.77182 9.3382 6.76792 9.26879 6.78197 9.2019C6.79602 9.13502 6.82752 9.07305 6.87328 9.02228L8.15808 7.59988C8.17573 7.58187 8.18618 7.55802 8.18745 7.53284C8.18872 7.50765 8.18072 7.48287 8.16496 7.46317C8.14921 7.44348 8.12679 7.43024 8.10194 7.42595C8.07709 7.42166 8.05152 7.42661 8.03008 7.43988L6.32688 8.43428C6.26861 8.46825 6.20255 8.48655 6.13511 8.48739C6.06767 8.48823 6.00117 8.47159 5.94208 8.43908L4.06448 7.40308C3.996 7.36515 3.94052 7.3075 3.90522 7.23763C3.86993 7.16776 3.85645 7.08889 3.86654 7.01127C3.87663 6.93364 3.90982 6.86084 3.96181 6.80232C4.0138 6.7438 4.08218 6.70225 4.15808 6.68308Z" fill="#102E38"/>
</svg>
