<svg width="38" height="38" viewBox="0 0 38 38" fill="none" xmlns="http://www.w3.org/2000/svg">
<g opacity="0.4">
<path opacity="0.4" d="M7.85296 30.1776C9.32086 31.6456 11.0635 32.81 12.9815 33.6045C14.8994 34.399 16.955 34.8079 19.031 34.8079C21.1069 34.8079 23.1626 34.3991 25.0805 33.6046C26.9985 32.8102 28.7412 31.6458 30.2091 30.1779C31.677 28.7099 32.8415 26.9672 33.6359 25.0493C34.4303 23.1313 34.8392 21.0757 34.8392 18.9997C34.8391 16.9238 34.4302 14.8681 33.6357 12.9502C32.8413 11.0323 31.6768 9.28961 30.2089 7.82171C28.741 6.35375 26.9983 5.18929 25.0804 4.39482C23.1624 3.60035 21.1068 3.19143 19.0308 3.19141C16.9549 3.19138 14.8992 3.60026 12.9813 4.39468C11.0633 5.18911 9.32064 6.35353 7.85271 7.82146C6.38478 9.28939 5.22036 11.0321 4.42593 12.95C3.63151 14.868 3.22263 16.9236 3.22266 18.9996C3.22268 21.0756 3.6316 23.1312 4.42607 25.0491C5.22054 26.967 6.385 28.7097 7.85296 30.1776Z" fill="#8CB4BD"/>
<path d="M9.87983 15.8727L25.5586 12.029C25.7287 11.9878 25.907 11.9956 26.0729 12.0515C26.2388 12.1073 26.3855 12.209 26.496 12.3448C26.6065 12.4805 26.6763 12.6448 26.6974 12.8185C26.7184 12.9923 26.6899 13.1685 26.615 13.3267L19.6287 27.9909C19.5482 28.1562 19.4201 28.2938 19.261 28.386C19.1019 28.4783 18.9189 28.521 18.7354 28.5088C18.5519 28.4965 18.3762 28.4299 18.2307 28.3173C18.0853 28.2048 17.9766 28.0515 17.9187 27.8769L16.1384 22.3327C16.0875 22.1786 16.0782 22.0137 16.1116 21.8549C16.1449 21.696 16.2198 21.5489 16.3284 21.4283L19.3798 18.0501C19.4218 18.0073 19.4466 17.9507 19.4496 17.8909C19.4526 17.831 19.4336 17.7722 19.3962 17.7254C19.3588 17.6786 19.3055 17.6472 19.2465 17.637C19.1875 17.6268 19.1268 17.6386 19.0758 17.6701L15.0307 20.0318C14.8924 20.1125 14.7354 20.1559 14.5753 20.1579C14.4151 20.1599 14.2572 20.1204 14.1168 20.0432L9.65753 17.5827C9.49491 17.4926 9.36313 17.3557 9.2793 17.1897C9.19547 17.0238 9.16346 16.8365 9.18743 16.6521C9.21139 16.4678 9.29023 16.2949 9.4137 16.1559C9.53717 16.0169 9.69957 15.9182 9.87983 15.8727Z" fill="#102E38"/>
</g>
</svg>
