<svg width="220" height="220" viewBox="0 0 220 220" fill="none" xmlns="http://www.w3.org/2000/svg">
<mask id="mask0_893_14201" style="mask-type:alpha" maskUnits="userSpaceOnUse" x="0" y="0" width="220" height="220">
<rect width="220" height="220" fill="#D9D9D9"/>
</mask>
<g mask="url(#mask0_893_14201)">
<path d="M58.6677 170.522L107.988 199.139L105.886 115.784C105.357 94.8337 93.9973 75.6483 75.9051 65.1509L48.1909 49.0706C49.6588 51.0424 54.5378 62.2742 60.1907 83.4762C65.8437 104.678 61.3541 149.679 58.6677 170.522Z" fill="#ADF1D9" fill-opacity="0.1"/>
<path d="M1.63045 75.6202L50.533 103.994L49.6457 94.6186C48.3009 80.4094 44.794 66.4865 39.2474 53.3352C35.9519 45.5215 30.208 38.9954 22.8881 34.7483L2.82094 23.1049L1.63045 75.6202Z" fill="#ADF1D9" fill-opacity="0.1"/>
<path d="M217.929 76.061V19L147.837 62.3409C130.155 73.2748 119.393 92.583 119.393 113.373V145.695C120.349 143.438 127.524 133.606 142.831 118.131C158.137 102.657 198.796 84.1205 217.929 76.061Z" fill="#ADF1D9" fill-opacity="0.1"/>
<path d="M164.313 174.037V116.57L157.257 121.786C145.638 130.373 135.405 140.692 126.914 152.383C122.026 159.114 119.393 167.221 119.393 175.54V199.577L164.313 174.037Z" fill="#ADF1D9" fill-opacity="0.1"/>
</g>
</svg>
