<svg xmlns="http://www.w3.org/2000/svg" width="24" height="24" viewBox="0 0 24 24" fill="none">
    <g clip-path="url(#clip0_146_5775)">
        <path d="M12 0C5.4 0 0 5.4 0 12C0 18.6 5.4 24 12 24C18.6 24 24 18.6 24 12C24 5.4 18.6 0 12 0ZM12 23C5.95 23 1 18.05 1 12C1 5.95 5.95 1 12 1C18.05 1 23 5.95 23 12C23 18.05 18.05 23 12 23Z" fill="#8CB4BD"/>
        <rect x="9" y="8" width="1.5" height="9" fill="#8CB4BD"/>
        <rect x="13" y="8" width="1.5" height="9" fill="#8CB4BD"/>
    </g>
    <defs>
        <clipPath id="clip0_146_5775">
            <rect width="24" height="24" fill="white"/>
        </clipPath>
    </defs>
</svg>
